<ttFont>
          <CharString index="0">
            -107 callgsubr
            326 vlineto
            return
          </CharString>
          <CharString index="1">
            -41 -28 -40 -24 hvcurveto
            -103 callsubr
            return
          </CharString>
          <CharString index="2">
            -107 callsubr
            45 6 return
          </CharString>
          <CharString index="3">
            -105 callsubr
            31 34 44 hhcurveto
            return
          </CharString>
          <CharString index="4">
            40 -24 -41 -97 callsubr
            return
          </CharString>
          <CharString index="5">
            -31 -20 hlineto
            -100 callsubr
            return
          </CharString>
          <CharString index="6">
            85 38 -46 -87 -86 -49 -41 -89 hvcurveto
            -102 callsubr
            return
          </CharString>
          <CharString index="7">
            -29 106 -65 -235 -101 callgsubr
            return
          </CharString>
          <CharString index="8">
            -34 -17 -21 -28 -43 vvcurveto
            -50 32 -30 43 38 25 26 36 vhcurveto
            77 -84 -26 27 vvcurveto
            18 27 10 30 47 38 -37 -82 -111 -70 -57 -129 vhcurveto
            -43 -20 hlineto
            26 -11 17 -8 43 -100 -85 callsubr
            121 47 123 58 -21 51 -57 26 hvcurveto
            return
          </CharString>
          <CharString index="9">
            101 callsubr
            -59 callgsubr
            return
          </CharString>
          <CharString index="10">
            -42 callsubr
            -109 45 -100 131 -98 callsubr
            return
          </CharString>
          <CharString index="11">
            -27 -4 -28 -42 -40 -90 callgsubr
            return
          </CharString>
          <CharString index="12">
            -94 callgsubr
            153 vlineto
            endchar
          </CharString>
          <CharString index="13">
            140 -18 callgsubr
          </CharString>
          <CharString index="14">
            -139 -126 -90 callsubr
            7 return
          </CharString>
          <CharString index="15">
            -88 callgsubr
            100 return
          </CharString>
          <CharString index="16">
            -30 -15 21 29 52 38 41 64 6 hvcurveto
            -86 -1 -11 -63 -45 hhcurveto
            return
          </CharString>
          <CharString index="17">
            -40 -177 -1 callgsubr
            hvcurveto
            -89 callsubr
            return
          </CharString>
          <CharString index="18">
            -4 18 rlineto
            -1 -5 -12 -1 -7 hhcurveto
            -54 -20 41 132 99 return
          </CharString>
          <CharString index="19">
            -74 callsubr
            -7 -1 -10 -15 vvcurveto
            return
          </CharString>
          <CharString index="20">
            -347 hlineto
            -96 callsubr
            return
          </CharString>
          <CharString index="21">
            35 -41 50 -29 40 -20 10 18 rcurveline
            -39 19 -48 31 -26 29 rrcurveto
            104 callgsubr
            73 114 -32 callgsubr
            return
          </CharString>
          <CharString index="22">
            rrcurveto
            -88 38 68 -30 93 hhcurveto
            38 31 2 20 37 hvcurveto
            -5 14 rlineto
            -4 -8 -12 -1 -12 hhcurveto
            -131 49 185 19 -143 hvcurveto
            4 19 vlineto
            109 return
          </CharString>
          <CharString index="23">
            23 32 -10 38 -27 12 -21 13 -33 -9 -16 -22 -33 -45 25 -27 -34 -49 rrcurveto
            return
          </CharString>
          <CharString index="24">
            32 -17 -76 callgsubr
            return
          </CharString>
          <CharString index="25">
            rmoveto
            11 vlineto
            92 17 127 64 63 19 -128 -102 vhcurveto
            140 -20 rmoveto
            205 -111 65 -110 -115 -116 -64 -174 -199 138 -43 122 71 81 35 253 callsubr
            -43 -29 -76 -18 -36 hhcurveto
            -68 -61 39 137 -8 hvcurveto
            endchar
          </CharString>
          <CharString index="26">
            58 311 -10 rmoveto
            162 129 92 199 175 -111 116 -180 -174 -117 -116 -175 -199 124 -92 167 hvcurveto
            562 vmoveto
            82 48 -101 -170 -176 -44 -95 -86 -83 -47 95 176 170 50 101 80 hvcurveto
            return
          </CharString>
          <CharString index="27">
            -123 -75 callsubr
          </CharString>
          <CharString index="28">
            159 -58 67 -90 -68 -48 -40 -66 -1 vhcurveto
            19 -1 rlineto
            44 3 24 20 24 hhcurveto
            36 20 -34 -149 hvcurveto
            return
          </CharString>
          <CharString index="29">
            8 1 9 1 vvcurveto
            91 9 55 return
          </CharString>
          <CharString index="30">
            61 22 39 41 62 vvcurveto
            65 -36 52 -71 16 vhcurveto
            return
          </CharString>
          <CharString index="31">
            -69 callsubr
            160 -540 -94 callsubr
          </CharString>
          <CharString index="32">
            102 callsubr
            -20 callsubr
            vhcurveto
            -167 -94 callsubr
          </CharString>
          <CharString index="33">
            72 48 -21 -88 -82 233 callgsubr
            hvcurveto
            -1 return
          </CharString>
          <CharString index="34">
            -144 -95 callsubr
          </CharString>
          <CharString index="35">
            -149 273 40 -117 -86 callgsubr
            return
          </CharString>
          <CharString index="36">
            -32 callsubr
            vhcurveto
            -140 139 -18 callgsubr
          </CharString>
          <CharString index="37">
            -86 callsubr
            endchar
          </CharString>
          <CharString index="38">
            -20 -51 callsubr
            return
          </CharString>
          <CharString index="39">
            -61 callgsubr
            98 vlineto
            endchar
          </CharString>
          <CharString index="40">
            58 21 27 40 46 vvcurveto
            43 -30 32 -42 -50 -28 -34 -49 return
          </CharString>
          <CharString index="41">
            28 15 12 22 vhcurveto
            36 52 -55 111 hhcurveto
            118 73 57 109 11 hvcurveto
            10 132 -110 35 -90 42 rrcurveto
            -73 34 -73 16 63 vvcurveto
            44 29 33 50 110 79 -67 -96 vhcurveto
            20 183 -20 hlineto
            -14 -4 -21 -16 vhcurveto
            -30 -42 35 -98 hhcurveto
            -94 -80 -59 -104 -10 hvcurveto
            -11 -116 87 -34 109 -49 rrcurveto
            80 -36 60 -26 -53 vvcurveto
            -53 -37 -33 -52 -129 -103 101 125 vhcurveto
            -20 -233 hlineto
            return
          </CharString>
          <CharString index="42">
            84 vvcurveto
            84 -63 48 -87 -85 -46 -47 -65 -42 27 -33 54 -3 vhcurveto
            2 20 rlineto
            -33 4 -22 17 37 vvcurveto
            35 25 23 38 41 29 -25 -53 -75 -47 return
          </CharString>
          <CharString index="43">
            rmoveto
            -34 49 25 27 -33 45 -16 22 -33 9 -21 -13 -27 -12 -10 -38 23 -32 28 -39 49 23 35 -51 rrcurveto
            return
          </CharString>
          <CharString index="44">
            -71 -6 -57 -42 -72 -49 callgsubr
            return
          </CharString>
          <CharString index="45">
            -87 callsubr
            -90 -85 -58 -140 return
          </CharString>
          <CharString index="46">
            -79 callsubr
            -7 vlineto
            -71 -6 -57 -42 -72 -16 callgsubr
            return
          </CharString>
          <CharString index="47">
            -70 callgsubr
            -90 -85 -58 -140 -19 callgsubr
            return
          </CharString>
          <CharString index="48">
            -89 callsubr
            7 return
          </CharString>
          <CharString index="49">
            hhcurveto
            -56 callsubr
            return
          </CharString>
          <CharString index="50">
            -20 hlineto
            -55 callgsubr
            return
          </CharString>
          <CharString index="51">
            -53 callsubr
            hvcurveto
            -15 callsubr
            return
          </CharString>
          <CharString index="52">
            -20 100 -38 callsubr
            return
          </CharString>
          <CharString index="53">
            36 13 24 22 36 hhcurveto
            64 29 -68 -83 -114 -24 -108 -124 -79 -67 46 100 56 24 48 57 5 hvcurveto
            20 vlineto
            -52 9 -21 38 50 vvcurveto
            66 41 42 77 vhcurveto
            return
          </CharString>
          <CharString index="54">
            -79 -61 -60 -76 -89 61 -46 69 32 43 12 20 17 return
          </CharString>
          <CharString index="55">
            rmoveto
            16 -6 21 58 53 -9 17 45 rlinecurve
            14 37 -20 34 -29 5 -24 7 -29 -18 -10 -25 -20 -52 31 -20 -20 -56 rrcurveto
            -150 hmoveto
            16 -6 21 58 53 -9 17 45 rlinecurve
            14 37 -20 34 -29 5 -24 7 -29 -18 -10 -25 -20 -52 31 -20 -20 -56 rrcurveto
            endchar
          </CharString>
          <CharString index="56">
            57 -303 -76 hlineto
            -10 72 -58 39 -82 5 rrcurveto
            4 vlineto
            62 13 56 32 69 vvcurveto
            55 -47 46 -92 -78 -44 -25 -16 -21 vhcurveto
            8 -14 rlineto
            11 14 27 12 24 hhcurveto
            47 26 -27 -50 -66 -35 -37 -70 hvcurveto
            -15 -20 15 hlineto
            102 28 -53 -74 -94 -42 -48 -81 -37 -45 18 callsubr
            55 -53 122 131 98 52 114 vhcurveto
            4 74 -217 -88 callgsubr
            return
          </CharString>
          <CharString index="57">
            -55 callsubr
            20 return
          </CharString>
          <CharString index="58">
            -20 99 hlineto
            65 34 -53 -57 -105 -71 -35 -88 hvcurveto
            -10 -20 hlineto
            -6 83 -12 -239 244 hhcurveto
            return
          </CharString>
          <CharString index="59">
            hlineto
            -63 callsubr
            return
          </CharString>
          <CharString index="60">
            rmoveto
            88 40 88 -40 9 9 -88 128 rlineto
            -19 hlineto
            -87 -128 rlineto
            return
          </CharString>
          <CharString index="61">
            rmoveto
            -38 -33 38 46 -8 hvcurveto
            8 15 8 16 7 18 rrcurveto
            99 40 2 135 47 hhcurveto
            36 4 -54 -129 -89 -4 -95 -69 hvcurveto
            -273 -15 rmoveto
            -36 -4 47 137 88 3 97 71 37 32 -42 -44 8 hvcurveto
            -8 -14 -7 -14 -6 -17 rrcurveto
            -109 -42 -1 -129 -47 hhcurveto
            return
          </CharString>
          <CharString index="62">
            rmoveto
            14 6 13 18 vhcurveto
            30 18 -32 38 hhcurveto
            38 30 24 72 hvcurveto
            -20 hlineto
            -14 -6 -12 -20 vhcurveto
            -30 -18 31 -37 hhcurveto
            -37 -30 -22 -74 hvcurveto
            return
          </CharString>
          <CharString index="63">
            -69 -24 -37 -46 -59 vvcurveto
            -100 83 -60 163 105 46 31 7 9 vhcurveto
            -67 callgsubr
            return
          </CharString>
          <CharString index="64">
            -100 callgsubr
            48 3 141 55 return
          </CharString>
          <CharString index="65">
            28 -71 hhcurveto
            -112 -82 -78 -128 return
          </CharString>
          <CharString index="66">
            21 hlineto
            169 440 rlineto
            60 20 -163 -20 80 hlineto
            -93 -242 -108 242 rlineto
            44 267 callgsubr
            37 hlineto
            33 -79 -65 -163 -108 242 rlineto
            53 20 -270 -20 47 hlineto
            203 -440 rlineto
            21 hlineto
            131 331 rlineto
            endchar
          </CharString>
          <CharString index="67">
            5 callsubr
            -79 -22 -46 -65 -86 vvcurveto
            -113 73 -71 return
          </CharString>
          <CharString index="68">
            152 74 90 116 96 -59 return
          </CharString>
          <CharString index="69">
            -540 -92 callsubr
            return
          </CharString>
          <CharString index="70">
            10 18 rcurveline
            180 callsubr
            rrcurveto
            -67 callsubr
            -33 12 -30 114 callgsubr
            -7 -1 -4 hhcurveto
            -83 -47 return
          </CharString>
          <CharString index="71">
            121 callsubr
            31 3 26 7 22 hvcurveto
            return
          </CharString>
          <CharString index="72">
            69 623 -10 rmoveto
            20 vlineto
            -38 -24 36 93 -27 hvcurveto
            58 -17 -34 74 -88 hhcurveto
            7 vlineto
            88 65 53 80 79 -52 70 -203 hvcurveto
            -263 163 callgsubr
            242 44 hlineto
            135 -143 -272 313 hhcurveto
            -349 550 rmoveto
            139 29 -50 -78 -92 -29 -38 -139 hvcurveto
            return
          </CharString>
          <CharString index="73">
            hhcurveto
            -6 callgsubr
          </CharString>
          <CharString index="74">
            rmoveto
            -91 0 -80 -69 -68 -1 80 91 vhcurveto
            212 138 vlineto
            return
          </CharString>
          <CharString index="75">
            -19 callgsubr
            50 callsubr
            return
          </CharString>
          <CharString index="76">
            -36 -52 10 30 vhcurveto
            25 43 -1 44 vvcurveto
            32 -26 25 -39 return
          </CharString>
          <CharString index="77">
            rmoveto
            258 vlineto
            127 -61 66 -117 -66 -57 -30 -33 -24 vhcurveto
            52 -200 -20 50 82 callgsubr
            351 vlineto
            40 23 33 20 35 hhcurveto
            54 30 -33 -98 hvcurveto
            -280 116 callsubr
          </CharString>
          <CharString index="78">
            49 callsubr
            endchar
          </CharString>
          <CharString index="79">
            105 -6 -67 70 -103 hhcurveto
            -59 -49 -25 -47 -27 hvcurveto
            16 -10 rlineto
            26 17 24 16 28 hhcurveto
            72 10 -101 -52 -88 -26 -64 -65 -37 -24 28 23 -11 hvcurveto
            -17 -7 rlineto
            -42 11 50 -44 79 hhcurveto
            118 66 81 111 1 hvcurveto
            return
          </CharString>
          <CharString index="80">
            rmoveto
            23 -8 17 -16 -24 vvcurveto
            -21 return
          </CharString>
          <CharString index="81">
            17 -1 20 -3 20 vhcurveto
            36 -33 44 -25 36 -16 -37 callsubr
            58 109 92 37 64 239 callsubr
          </CharString>
          <CharString index="82">
            rmoveto
            223 -19 vlineto
            -12 -9 -25 -22 vhcurveto
            -32 -37 50 -98 hhcurveto
            -158 -125 -80 -207 -219 118 -82 190 96 87 57 139 19 hvcurveto
            -20 hlineto
            -117 -16 -79 -59 -87 hhcurveto
            -101 -46 66 215 207 60 60 62 139 58 -125 -91 hvcurveto
            endchar
          </CharString>
          <CharString index="83">
            52 431 hmoveto
            20 -40 238 vlineto
            145 282 rlineto
            70 20 -175 -20 80 hlineto
            -130 -252 -140 252 rlineto
            49 20 -280 -20 52 hlineto
            179 -309 rlineto
            -211 -40 -20 vlineto
            return
          </CharString>
          <CharString index="84">
            rmoveto
            -32 -22 rlineto
            -7 -11 -14 -6 -14 -54 callgsubr
            202 145 vlineto
            return
          </CharString>
          <CharString index="85">
            -130 -77 -87 -105 -163 16 176 33 -121 hvcurveto
            return
          </CharString>
          <CharString index="86">
            -103 callgsubr
            6 callsubr
            -680 10 callsubr
            return
          </CharString>
          <CharString index="87">
            57 68 22 49 35 return
          </CharString>
          <CharString index="88">
            -7 -10 1 0 hvcurveto
            -1 return
          </CharString>
          <CharString index="89">
            -35 -24 1 1 rlineto
            -7 -10 -13 -5 -14 hhcurveto
            -55 -31 59 81 89 29 60 64 1 hvcurveto
            8 8 -1 -3 6 hvcurveto
            5 15 rlineto
            19 -21 -35 10 -34 hhcurveto
            return
          </CharString>
          <CharString index="90">
            50 callsubr
            hvcurveto
            -140 139 -18 callgsubr
          </CharString>
          <CharString index="91">
            vvcurveto
            -29 callgsubr
          </CharString>
          <CharString index="92">
            -5 11 rlineto
            -43 callgsubr
            return
          </CharString>
          <CharString index="93">
            rmoveto
            90 41 51 65 75 vvcurveto
            47 -32 52 -63 -47 -32 -36 -44 -47 36 -21 31 vhcurveto
            18 4 6 15 hhcurveto
            8 8 -6 -10 -39 -40 -36 -54 -30 hvcurveto
            return
          </CharString>
          <CharString index="94">
            45 callsubr
            130 20 -130 hlineto
            131 12 66 72 14 vhcurveto
            52 10 31 -42 -41 vvcurveto
            return
          </CharString>
          <CharString index="95">
            175 -287 -27 82 vvcurveto
            20 23 25 62 return
          </CharString>
          <CharString index="96">
            -2 -1 rlineto
            -46 -11 -57 -31 -89 hhcurveto
            -88 -57 31 46 -11 hvcurveto
            -2 1 -10 -2 -2 -2 rlineto
            -106 -3 71 -61 102 hhcurveto
            102 72 60 107 -3 hvcurveto
            return
          </CharString>
          <CharString index="97">
            hhcurveto
            -67 -49 -30 -44 -24 hvcurveto
            return
          </CharString>
          <CharString index="98">
            145 -302 hlineto
            55 callgsubr
            return
          </CharString>
          <CharString index="99">
            rmoveto
            -704 -20 125 -40 callgsubr
            return
          </CharString>
          <CharString index="100">
            -20 50 -520 -50 -20 return
          </CharString>
          <CharString index="101">
            142 callgsubr
            -22 vvcurveto
            -121 99 -52 116 71 72 24 54 34 vhcurveto
            -100 -94 callsubr
          </CharString>
          <CharString index="102">
            -40 -23 -33 -20 -35 hhcurveto
            -54 -30 33 98 hvcurveto
            300 93 callgsubr
            return
          </CharString>
          <CharString index="103">
            rmoveto
            20 550 70 20 -170 -20 80 -313 hlineto
            -281 333 rlineto
            -187 -20 hlineto
            16 21 -12 -32 23 hvcurveto
            -476 -60 -20 160 20 -80 451 vlineto
            return
          </CharString>
          <CharString index="104">
            -54 -9 -46 -28 -44 33 callgsubr
            return
          </CharString>
          <CharString index="105">
            rmoveto
            -24 -19 23 24 25 17 20 26 26 18 -20 -25 -24 -20 -23 -24 hvcurveto
            -37 vmoveto
            46 39 38 46 46 -39 39 -46 -46 -37 -39 -46 -46 37 -38 46 hvcurveto
            endchar
          </CharString>
          <CharString index="106">
            -46 101 8 callsubr
            return
          </CharString>
          <CharString index="107">
            4 5 0 6 hhcurveto
            -127 -86 11 -18 162 110 35 -40 50 -29 40 -20 rlinecurve
            10 18 60 callsubr
            rlinecurve
            104 callgsubr
            73 114 -32 callgsubr
            endchar
          </CharString>
          <CharString index="108">
            26 callsubr
            -580 -20 416 vlineto
            -46 -17 -25 -40 -45 vvcurveto
            -18 4 -15 6 -14 vhcurveto
            -107 186 callgsubr
            vhcurveto
            117 hlineto
            19 -23 30 -14 35 -5 rrcurveto
            -4 vlineto
            -82 -15 return
          </CharString>
          <CharString index="109">
            rmoveto
            -63 -11 60 121 122 11 60 63 63 11 -60 -122 -121 -11 -60 -63 hvcurveto
            return
          </CharString>
          <CharString index="110">
            rmoveto
            -129 209 129 hlineto
            return
          </CharString>
          <CharString index="111">
            vlineto
            -141 42 -110 2 77 callgsubr
            return
          </CharString>
          <CharString index="112">
            -36 55 77 101 34 75 76 hvcurveto
            20 20 -288 -20 138 -4 hlineto
            return
          </CharString>
          <CharString index="113">
            240 20 rmoveto
            return
          </CharString>
          <CharString index="114">
            hhcurveto
            9 callgsubr
          </CharString>
          <CharString index="115">
            -7 callgsubr
            vhcurveto
            6 return
          </CharString>
          <CharString index="116">
            -71 -6 -57 -42 -72 -16 callsubr
          </CharString>
          <CharString index="117">
            -20 79 hlineto
            -88 callsubr
            49 callgsubr
            return
          </CharString>
          <CharString index="118">
            rmoveto
            -1162 -20 922 -90 -768 -20 hlineto
            104 -1 32 -67 -93 callgsubr
            71 -92 12 vhcurveto
            6 292 vlineto
            -55 callgsubr
            216 -430 -92 callsubr
            vlineto
            endchar
          </CharString>
          <CharString index="119">
            169 callgsubr
            99 126 hvcurveto
            return
          </CharString>
          <CharString index="120">
            290 hmoveto
            20 -50 520 50 20 48 callsubr
            vlineto
            return
          </CharString>
          <CharString index="121">
            rmoveto
            -631 139 callsubr
            rlineto
            76 43 43 76 104 vvcurveto
            96 -37 58 -110 174 callgsubr
            25 41 45 46 23 -37 -80 -65 callgsubr
            380 hlineto
            endchar
          </CharString>
          <CharString index="122">
            8 callgsubr
            -82 -15 return
          </CharString>
          <CharString index="123">
            -198 hlineto
            -8 callgsubr
            return
          </CharString>
          <CharString index="124">
            hhcurveto
            91 54 55 152 1 41 callsubr
          </CharString>
          <CharString index="125">
            15 30 hvcurveto
            39 95 -21 79 vvcurveto
            34 -26 31 -45 -48 -32 -38 -51 -89 return
          </CharString>
          <CharString index="126">
            34 callgsubr
            171 hmoveto
            35 -26 28 -36 -33 -28 -28 -35 -34 28 -27 33 36 26 27 34 vhcurveto
            endchar
          </CharString>
          <CharString index="127">
            vvcurveto
            -50 82 callsubr
            76 -75 -20 32 vvcurveto
            return
          </CharString>
          <CharString index="128">
            -20 352 64 callsubr
            -49 -76 71 callgsubr
            return
          </CharString>
          <CharString index="129">
            36 callsubr
            47 callgsubr
            vhcurveto
            209 callsubr
            return
          </CharString>
          <CharString index="130">
            -55 -31 59 81 89 29 60 64 1 hvcurveto
            8 8 -1 -3 6 hvcurveto
            5 15 rlineto
            19 -21 -35 10 -34 hhcurveto
            -110 -65 -82 -108 -108 58 -87 113 return
          </CharString>
          <CharString index="131">
            219 rmoveto
            -103 hlineto
            -56 110 -219 -12 71 vvcurveto
            21 24 21 71 49 58 -10 -6 23 vhcurveto
            126 153 vlineto
            return
          </CharString>
          <CharString index="132">
            hhcurveto
            -66 -53 -53 -68 -51 29 -42 54 42 30 31 39 hvcurveto
            86 -85 -23 32 vvcurveto
            18 21 11 28 return
          </CharString>
          <CharString index="133">
            35 callgsubr
            60 18 48 77 hvcurveto
            20 return
          </CharString>
          <CharString index="134">
            -53 -16 -29 -40 -49 vvcurveto
            -59 37 -37 61 -10 vhcurveto
            -4 vlineto
            -73 -12 -33 return
          </CharString>
          <CharString index="135">
            -63 -31 rrcurveto
            -87 -44 -32 -75 -73 vvcurveto
            -60 -20 60 45 callsubr
            return
          </CharString>
          <CharString index="136">
            rrcurveto
            -85 callgsubr
            -90 -85 -58 -140 -19 callgsubr
            return
          </CharString>
          <CharString index="137">
            rmoveto
            2 -24 1 -26 -30 vvcurveto
            -153 -27 -65 -73 -54 -28 36 81 -11 vhcurveto
            -2 25 rmoveto
            -2 22 -1 26 28 vvcurveto
            157 25 65 73 54 29 -36 -82 11 vhcurveto
            159 124 rmoveto
            -14 14 -64 -61 rlineto
            42 -50 -66 264 callgsubr
            -71 25 -54 39 -39 hvcurveto
            -64 -60 14 -14 64 61 rlineto
            -41 49 65 -20 59 hhcurveto
            115 138 74 164 73 -26 55 -38 39 hvcurveto
            endchar
          </CharString>
          <CharString index="138">
            -152 274 58 -137 -38 callgsubr
            return
          </CharString>
          <CharString index="139">
            109 callgsubr
            -315 -20 151 22 callgsubr
            return
          </CharString>
          <CharString index="140">
            vlineto
            -63 callsubr
            return
          </CharString>
          <CharString index="141">
            -23 callsubr
            426 hmoveto
            20 -788 159 callsubr
            39 9 30 29 40 124 callsubr
            -65 -48 -29 -41 -25 hvcurveto
            149 vlineto
            endchar
          </CharString>
          <CharString index="142">
            242 rmoveto
            255 callsubr
            -88 -52 57 73 vhcurveto
            23 1 9 1 vvcurveto
            91 9 75 166 callsubr
            return
          </CharString>
          <CharString index="143">
            -104 23 -109 139 return
          </CharString>
          <CharString index="144">
            110 callsubr
            136 120 20 -502 -20 242 -87 vlineto
            -87 callgsubr
            return
          </CharString>
          <CharString index="145">
            426 188 rmoveto
            -44 -30 87 callgsubr
            164 20 -409 136 callgsubr
            319 218 rlineto
            return
          </CharString>
          <CharString index="146">
            27 callsubr
            -46 -61 vvcurveto
            return
          </CharString>
          <CharString index="147">
            -7 379 476 rmoveto
            -1 -56 1 -44 -12 -28 -150 141 rcurveline
            51 162 vlineto
            -82 -519 81 callgsubr
            60 309 rmoveto
            -14 -11 -18 -7 -27 hhcurveto
            -6 hlineto
            -74 -3 56 97 -1 hvcurveto
            388 98 rmoveto
            -615 101 callgsubr
            return
          </CharString>
          <CharString index="148">
            hvcurveto
            129 -24 callgsubr
          </CharString>
          <CharString index="149">
            4 callgsubr
            -50 return
          </CharString>
          <CharString index="150">
            160 -53 callgsubr
            return
          </CharString>
          <CharString index="151">
            433 rmoveto
            157 callsubr
            return
          </CharString>
          <CharString index="152">
            82 callgsubr
            420 return
          </CharString>
          <CharString index="153">
            -56 callgsubr
            endchar
          </CharString>
          <CharString index="154">
            511 -64 callsubr
            return
          </CharString>
          <CharString index="155">
            -250 -7 callsubr
            return
          </CharString>
          <CharString index="156">
            -92 callsubr
            hlineto
            return
          </CharString>
          <CharString index="157">
            61 54 32 36 19 return
          </CharString>
          <CharString index="158">
            418 -89 callgsubr
            return
          </CharString>
          <CharString index="159">
            rmoveto
            0 -50 98 -27 40 vhcurveto
            30 40 47 98 0 vvcurveto
            -12 12 rlineto
            0 -153 -122 -11 -11 vhcurveto
            -11 -11 1 -14 10 -9 rrcurveto
            11 -10 153 -123 0 vvcurveto
            return
          </CharString>
          <CharString index="160">
            rmoveto
            0 153 123 11 10 vhcurveto
            10 9 1 14 -11 11 rrcurveto
            -11 11 -153 122 0 vvcurveto
            -12 -12 rlineto
            0 47 -98 30 -40 vhcurveto
            -27 -40 -50 -98 0 vvcurveto
            return
          </CharString>
          <CharString index="161">
            13 -19 160 111 167 -115 13 19 return
          </CharString>
          <CharString index="162">
            -142 96 -66 140 78 54 34 50 30 return
          </CharString>
          <CharString index="163">
            vvcurveto
            -142 95 -66 140 78 55 34 50 30 vhcurveto
            -15 9 rlineto
            -35 -22 -40 -25 -48 hhcurveto
            -59 -69 38 138 -32 callgsubr
            endchar
          </CharString>
          <CharString index="164">
            148 callsubr
            99 126 return
          </CharString>
          <CharString index="165">
            88 callsubr
            540 return
          </CharString>
          <CharString index="166">
            -20 357 136 callsubr
            -110 -65 -82 -108 -108 58 -87 113 hvcurveto
            161 callsubr
            return
          </CharString>
          <CharString index="167">
            -39 19 -48 31 -26 29 return
          </CharString>
          <CharString index="168">
            224 hhcurveto
            41 31 7 17 23 hvcurveto
            -6 14 rlineto
            -3 -5 -14 -6 -18 hhcurveto
            -101 70 return
          </CharString>
          <CharString index="169">
            59 403 169 rmoveto
            -3 callsubr
            66 38 42 77 hvcurveto
            89 hlineto
            6 callsubr
            -663 -20 149 186 callsubr
            return
          </CharString>
          <CharString index="170">
            -91 callgsubr
            -90 -85 -58 -140 -122 78 -60 88 -4 hvcurveto
            -76 -37 -53 -43 -64 20 callsubr
            25 68 36 52 22 vhcurveto
            31 13 24 20 12 22 rrcurveto
            -140 139 -18 callgsubr
          </CharString>
          <CharString index="171">
            69 callgsubr
            31 return
          </CharString>
          <CharString index="172">
            192 rmoveto
            -48 -15 -49 -30 -59 hhcurveto
            -88 201 callsubr
            49 74 vvcurveto
            66 -38 49 -62 16 vhcurveto
            196 hlineto
            -559 -238 rmoveto
            56 20 36 36 59 vvcurveto
            64 -34 45 -69 14 vhcurveto
            209 hlineto
            72 48 -31 -88 -82 -55 -37 -74 hvcurveto
            610 258 rmoveto
            return
          </CharString>
          <CharString index="173">
            hvcurveto
            -186 hlineto
            -77 callsubr
            return
          </CharString>
          <CharString index="174">
            3 hlineto
            -160 -110 11 -18 return
          </CharString>
          <CharString index="175">
            122 callgsubr
            rrcurveto
            -87 -44 -42 -63 -103 vvcurveto
            -60 -20 60 45 callsubr
            167 return
          </CharString>
          <CharString index="176">
            rmoveto
            -164 -22 -20 -45 -7 vhcurveto
            -53 -8 -56 54 155 vvcurveto
            155 52 54 57 23 25 -16 -38 19 vhcurveto
            -338 vmoveto
            -46 200 20 -50 650 93 callgsubr
            -236 vlineto
            48 -23 -56 20 -50 hhcurveto
            -103 -96 -84 -168 -160 98 -82 101 50 56 8 50 23 hvcurveto
            endchar
          </CharString>
          <CharString index="177">
            rmoveto
            66 30 38 48 56 vvcurveto
            34 -24 39 -46 -35 -24 -27 -32 -35 27 -16 23 vhcurveto
            13 3 5 11 hhcurveto
            6 6 -5 -7 -29 -29 -26 -40 -23 hvcurveto
            return
          </CharString>
          <CharString index="178">
            rmoveto
            -90 -41 -51 -65 -75 vvcurveto
            -47 32 -52 63 47 32 36 44 47 -36 21 -31 vhcurveto
            -18 -4 -6 -15 hhcurveto
            -8 -8 6 10 39 40 36 54 30 hvcurveto
            return
          </CharString>
          <CharString index="179">
            36 callgsubr
            78 return
          </CharString>
          <CharString index="180">
            154 callsubr
            563 400 rmoveto
            -682 184 callsubr
            return
          </CharString>
          <CharString index="181">
            -86 callgsubr
            110 98 54 101 14 -2 12 -3 11 hvcurveto
            95 return
          </CharString>
          <CharString index="182">
            -52 -42 -42 203 callgsubr
            -80 -16 40 vvcurveto
            21 29 24 61 42 vhcurveto
            6 4 11 7 9 7 rrcurveto
            0 vlineto
            return
          </CharString>
          <CharString index="183">
            -420 4 callgsubr
            hlineto
            endchar
          </CharString>
          <CharString index="184">
            rmoveto
            -14 -6 -12 -20 vhcurveto
            -30 -18 31 -37 hhcurveto
            -37 -30 -22 -74 hvcurveto
            20 hlineto
            14 6 13 18 vhcurveto
            30 18 -32 38 hhcurveto
            38 30 24 72 hvcurveto
            return
          </CharString>
          <CharString index="185">
            rmoveto
            -104 callgsubr
            return
          </CharString>
          <CharString index="186">
            -46 -48 17 30 hvcurveto
            39 95 -27 83 vvcurveto
            34 -26 31 -45 -51 -30 -38 -52 -83 65 -58 119 return
          </CharString>
          <CharString index="187">
            rmoveto
            68 callgsubr
            -38 -31 -31 -38 -38 31 -31 38 6 callgsubr
            vhcurveto
            return
          </CharString>
          <CharString index="188">
            vhcurveto
            -1 -7 -1 -10 -15 vvcurveto
            49 callgsubr
            return
          </CharString>
          <CharString index="189">
            30 -35 36 callgsubr
            return
          </CharString>
          <CharString index="190">
            61 240 278 rmoveto
            117 20 -117 242 hlineto
            137 67 -101 -158 -196 -63 -65 -141 hvcurveto
            -200 540 rmoveto
            -20 50 -242 -50 -20 50 -258 -50 -20 250 vlineto
            207 98 94 189 133 -100 144 -205 hvcurveto
            endchar
          </CharString>
          <CharString index="191" raw="1">
            fbe50720 0a0b  
          </CharString>
          <CharString index="192">
            164 callsubr
            vlineto
            endchar
          </CharString>
          <CharString index="193">
            -152 274 58 -137 -75 callgsubr
            endchar
          </CharString>
          <CharString index="194">
            rmoveto
            88 -40 9 9 -88 128 rlineto
            -19 hlineto
            -87 -128 9 -9 rlineto
            return
          </CharString>
          <CharString index="195">
            hhcurveto
            47 callgsubr
            hvcurveto
            209 callsubr
            return
          </CharString>
          <CharString index="196">
            100 callsubr
            -200 -20 50 -630 160 callgsubr
          </CharString>
          <CharString index="197">
            -54 callgsubr
            202 145 vlineto
            -463 hmoveto
            172 -83 hlineto
            2 -10 -11 1 -11 -10 callsubr
            return
          </CharString>
          <CharString index="198">
            205 callgsubr
            -52 -46 -38 -49 -40 vhcurveto
            -32 26 -20 33 37 vvcurveto
            return
          </CharString>
          <CharString index="199">
            -56 -67 vvcurveto
            -99 90 -49 return
          </CharString>
          <CharString index="200">
            rmoveto
            -206 370 118 150 rlineto
            85 20 -204 -20 92 hlineto
            -232 -295 rlineto
            295 50 20 -250 163 callgsubr
            190 vlineto
            42 53 133 -243 rlineto
            -45 -20 260 20 hlineto
            endchar
          </CharString>
          <CharString index="201">
            -82 hlineto
            2 -19 -34 2 -25 hhcurveto
            -75 -87 -15 -75 -52 48 -19 47 -5 hvcurveto
            -70 -26 -37 -51 -68 vvcurveto
            -124 118 -48 123 41 54 9 12 21 vhcurveto
            -6 20 rlineto
            -4 -13 -32 -3 -18 hhcurveto
            -80 -68 43 97 76 26 64 91 hvcurveto
            return
          </CharString>
          <CharString index="202">
            -64 184 hmoveto
            162 74 80 126 hvcurveto
            334 50 267 callgsubr
            50 -343 vlineto
            -95 -24 -79 -95 -44 -42 22 25 19 21 -2 24 8 vhcurveto
            36 11 16 25 29 181 callgsubr
            -50 -33 -44 -48 -94 73 -46 101 vhcurveto
            return
          </CharString>
          <CharString index="203">
            48 callgsubr
            -6 return
          </CharString>
          <CharString index="204">
            hhcurveto
            -37 -27 16 7 -10 hvcurveto
            -11 -16 rlineto
            -18 22 49 -16 60 hhcurveto
            return
          </CharString>
          <CharString index="205">
            249 callgsubr
            -123 101 -68 99 -9 vhcurveto
            -150 -106 54 callsubr
            -158 110 rlineto
            98 10 101 68 122 vvcurveto
            175 callsubr
            return
          </CharString>
          <CharString index="206">
            211 callgsubr
            -430 -92 callsubr
            vlineto
            endchar
          </CharString>
          <CharString index="207">
            rmoveto
            120 119 rlineto
            79 20 -190 -20 81 hlineto
            -209 -208 rlineto
            438 return
          </CharString>
          <CharString index="208">
            1 callgsubr
            hvcurveto
            return
          </CharString>
          <CharString index="209">
            99 -70 130 return
          </CharString>
          <CharString index="210">
            hhcurveto
            53 35 -50 -75 6 hvcurveto
            -20 vlineto
            130 -49 -264 56 callgsubr
          </CharString>
          <CharString index="211">
            6 hlineto
            159 -58 67 -90 -68 -48 -40 -66 -1 vhcurveto
            19 -1 rlineto
            44 3 24 20 24 hhcurveto
            31 19 -25 -104 5 hvcurveto
            return
          </CharString>
          <CharString index="212">
            -460 -7 callsubr
            return
          </CharString>
          <CharString index="213">
            rmoveto
            -38 -30 -31 216 callsubr
            38 30 30 38 38 -30 31 -38 hvcurveto
            endchar
          </CharString>
          <CharString index="214">
            72 48 -21 -88 -54 -24 -31 -38 -15 hvcurveto
            return
          </CharString>
          <CharString index="215">
            56 -135 -116 -74 -63 -80 -51 32 -38 48 45 26 31 34 vhcurveto
            79 -85 -21 39 vvcurveto
            28 48 18 42 73 34 -52 -67 -113 -130 -70 -89 -118 vhcurveto
            -27 -36 -25 -55 -4 -52 rrcurveto
            20 hlineto
            42 9 25 return
          </CharString>
          <CharString index="216">
            19 15 18 10 21 hhcurveto
            55 48 -84 -110 54 hvcurveto
            -159 -122 12 -17 return
          </CharString>
          <CharString index="217">
            vvcurveto
            21 24 24 64 46 48 -10 -19 43 vhcurveto
            return
          </CharString>
          <CharString index="218">
            1 1 rlineto
            -7 -11 -11 -5 -14 -90 callgsubr
            -90 -85 -58 -140 -19 callgsubr
            hvcurveto
            214 callsubr
            return
          </CharString>
          <CharString index="219">
            -20 250 20 return
          </CharString>
          <CharString index="220">
            251 156 callsubr
            -65 -43 -28 -41 -22 hvcurveto
            return
          </CharString>
          <CharString index="221">
            44 callsubr
            -112 -82 -78 -128 hvcurveto
            -6 0 -5 -6 vvcurveto
            -21 -17 -24 -18 -25 -54 callgsubr
            202 532 vlineto
            322 hmoveto
            20 return
          </CharString>
          <CharString index="222">
            12 -18 161 112 168 -116 12 18 return
          </CharString>
          <CharString index="223">
            4 callgsubr
            vlineto
            endchar
          </CharString>
          <CharString index="224">
            -20 82 hlineto
            -101 callsubr
            return
          </CharString>
          <CharString index="225">
            26 -35 -83 callsubr
            return
          </CharString>
          <CharString index="226">
            hhcurveto
            -7 callgsubr
            hvcurveto
            6 return
          </CharString>
          <CharString index="227">
            525 160 128 callgsubr
            return
          </CharString>
          <CharString index="228">
            -62 -26 59 90 return
          </CharString>
          <CharString index="229">
            74 44 42 63 49 17 33 42 40 23 -26 -39 3 hvcurveto
            22 hlineto
            82 -4 -67 42 -64 hhcurveto
            -35 -34 -12 -27 -24 hvcurveto
            -14 -16 -11 -25 -4 -26 rrcurveto
            -24 -4 4 -17 -43 hhcurveto
            -96 vlineto
            endchar
          </CharString>
          <CharString index="230">
            109 callsubr
            272 209 rlineto
            return
          </CharString>
          <CharString index="231">
            hhcurveto
            53 32 -52 -61 9 hvcurveto
            111 97 rlineto
            43 -29 -56 28 -61 hhcurveto
            return
          </CharString>
          <CharString index="232">
            48 39 39 48 49 -39 40 -48 -49 -40 -40 -49 -48 40 -39 49 hvcurveto
            return
          </CharString>
          <CharString index="233">
            -48 callsubr
            101 -12 hlineto
            -80 callsubr
          </CharString>
          <CharString index="234">
            vvcurveto
            -78 62 -49 87 74 49 31 41 24 vhcurveto
            -13 8 rlineto
            -21 -16 -24 -11 -24 hhcurveto
            -51 -30 33 58 60 35 28 71 3 hvcurveto
            20 vlineto
            -54 5 -57 19 60 vvcurveto
            46 29 22 37 return
          </CharString>
          <CharString index="235">
            -20 138 hlineto
            57 callsubr
            return
          </CharString>
          <CharString index="236">
            hlineto
            22 callsubr
            540 100 vlineto
            endchar
          </CharString>
          <CharString index="237">
            -99 111 callgsubr
            -46 47 -25 47 -8 vhcurveto
            return
          </CharString>
          <CharString index="238">
            vhcurveto
            36 97 -27 81 vvcurveto
            return
          </CharString>
          <CharString index="239">
            -135 -16 -19 -53 -24 -57 14 35 26 22 2 26 4 vhcurveto
            28 4 27 19 40 vvcurveto
            47 -34 21 -36 -41 -42 -33 -60 -74 43 -66 111 152 44 90 116 vhcurveto
            return
          </CharString>
          <CharString index="240">
            rmoveto
            34 17 24 13 26 hhcurveto
            47 53 -67 -143 -150 -50 -68 -47 -47 -23 39 104 hvcurveto
            return
          </CharString>
          <CharString index="241">
            140 326 vlineto
            return
          </CharString>
          <CharString index="242">
            194 269 rmoveto
            10 -35 281 -18 vlineto
            -101 -46 3 -10 41 16 rlineto
            -241 -40 -10 vlineto
            356 292 rmoveto
            -300 -561 rlineto
            21 hlineto
            300 561 rlineto
            return
          </CharString>
          <CharString index="243">
            -381 vlineto
            -18 callsubr
            return
          </CharString>
          <CharString index="244">
            40 -24 -41 -42 callsubr
            return
          </CharString>
          <CharString index="245">
            181 callsubr
            20 return
          </CharString>
          <CharString index="246">
            134 callgsubr
            26 25 2 4 23 hvcurveto
            -206 -123 11 -18 291 174 return
          </CharString>
          <CharString index="247">
            74 -148 rmoveto
            101 46 56 72 83 vvcurveto
            53 -36 58 -69 -54 -35 -39 -49 -53 41 -24 34 vhcurveto
            20 4 6 17 hhcurveto
            9 9 -6 -11 -44 -44 -39 -60 -35 hvcurveto
            return
          </CharString>
          <CharString index="248">
            72 48 -21 -88 -6 0 -5 -1 -5 hvcurveto
            return
          </CharString>
          <CharString index="249">
            322 rmoveto
            -14 -2 rlineto
            76 -19 -56 23 -47 hhcurveto
            -36 -41 -4 -48 -65 hvcurveto
            4 12 2 14 14 vvcurveto
            65 -36 52 -71 16 vhcurveto
            379 hlineto
            241 20 rmoveto
            return
          </CharString>
          <CharString index="250">
            -6 -12 rlineto
            -20 27 40 -14 43 hhcurveto
            66 36 39 55 67 -67 34 -117 hvcurveto
            158 callgsubr
            41 42 15 60 188 callsubr
            hvcurveto
            endchar
          </CharString>
          <CharString index="251">
            hhcurveto
            58 42 -31 -65 -57 -41 -39 -71 -3 hvcurveto
            -2 hlineto
            -106 13 70 -70 111 hhcurveto
            return
          </CharString>
          <CharString index="252">
            rmoveto
            -340 147 callsubr
          </CharString>
          <CharString index="253">
            3 13 2 13 12 vvcurveto
            58 -27 53 -70 -57 -36 -45 -50 return
          </CharString>
          <CharString index="254">
            -20 100 108 callgsubr
          </CharString>
          <CharString index="255">
            -73 -26 -52 -58 -113 169 callgsubr
            return
          </CharString>
          <CharString index="256">
            81 144 41 198 168 -96 84 -93 -50 -57 -20 -38 -22 hvcurveto
            246 return
          </CharString>
          <CharString index="257">
            514 -47 callsubr
            return
          </CharString>
          <CharString index="258">
            7 0 -1 8 hvcurveto
            return
          </CharString>
          <CharString index="259">
            rmoveto
            138 113 -114 -137 -139 -113 -113 -138 -138 -113 113 139 137 113 114 138 hvcurveto
            return
          </CharString>
          <CharString index="260">
            -20 70 89 callgsubr
            77 1 54 51 21 50 rrcurveto
            -68 29 64 -29 103 hhcurveto
            148 66 60 145 hvcurveto
            198 return
          </CharString>
          <CharString index="261">
            80 424 331 3 callsubr
            -325 -380 rmoveto
            -91 callsubr
            return
          </CharString>
          <CharString index="262">
            39 callsubr
            -128 134 -40 157 207 callsubr
            return
          </CharString>
          <CharString index="263">
            hlineto
            85 38 -46 -87 -67 -29 -39 -55 -15 hvcurveto
            111 -2 -72 63 -86 hhcurveto
            return
          </CharString>
          <CharString index="264">
            -28 -12 -20 -20 -14 -23 rrcurveto
            40 -24 -41 28 -71 hhcurveto
            return
          </CharString>
          <CharString index="265">
            -79 -59 -37 -27 -39 -13 return
          </CharString>
          <CharString index="266">
            145 callgsubr
            275 189 rlineto
            -193 172 callsubr
            return
          </CharString>
          <CharString index="267">
            vlineto
            -81 -1 -80 -64 -24 -20 10 19 vhcurveto
            47 73 -39 73 vvcurveto
            28 -2 -20 24 -37 hhcurveto
            -44 -26 -34 -42 -73 49 -40 83 113 return
          </CharString>
          <CharString index="268">
            -111 -76 11 -18 231 159 rlineto
            -134 134 callsubr
            return
          </CharString>
          <CharString index="269">
            -7 callsubr
            470 190 return
          </CharString>
          <CharString index="270">
            hhcurveto
            -66 -49 -30 -42 -24 hvcurveto
            return
          </CharString>
          <CharString index="271">
            -88 callgsubr
            98 return
          </CharString>
          <CharString index="272">
            -90 -346 176 callsubr
            return
          </CharString>
          <CharString index="273">
            41 74 vvcurveto
            61 -37 44 -62 16 vhcurveto
            200 hlineto
            return
          </CharString>
          <CharString index="274">
            -3 20 22 -1 22 hhcurveto
            19 21 4 4 21 hvcurveto
            return
          </CharString>
          <CharString index="275">
            -88 -32 77 68 14 2 return
          </CharString>
          <CharString index="276">
            vlineto
            -84 -1 -83 -66 -25 -21 10 20 vhcurveto
            49 76 -41 76 vvcurveto
            29 -2 -21 25 -38 hhcurveto
            -46 -27 -35 -44 -76 51 -41 86 return
          </CharString>
          <CharString index="277">
            168 rmoveto
            -66 -49 -44 -70 -89 -32 54 79 vhcurveto
            8 1 9 1 vvcurveto
            82 7 58 22 86 vvcurveto
            64 -56 51 -122 vhcurveto
            return
          </CharString>
          <CharString index="278">
            rmoveto
            88 128 -9 9 -88 -40 -88 40 -9 -9 87 -128 rlineto
            return
          </CharString>
          <CharString index="279">
            140 338 vlineto
            return
          </CharString>
          <CharString index="280">
            400 460 rmoveto
            -160 hlineto
            131 11 48 63 14 vhcurveto
            56 13 66 -31 -23 -77 rrcurveto
            -10 -33 -3 -24 -41 vvcurveto
            return
          </CharString>
          <CharString index="281">
            vlineto
            -47 -29 -33 -56 -87 vvcurveto
            -71 callsubr
          </CharString>
          <CharString index="282">
            104 -70 64 -81 24 vhcurveto
            108 return
          </CharString>
          <CharString index="283">
            -20 hlineto
            151 callgsubr
            -44 -37 22 25 131 callsubr
            41 -29 31 -40 return
          </CharString>
          <CharString index="284">
            -127 195 callgsubr
            return
          </CharString>
          <CharString index="285">
            -118 -92 callsubr
            return
          </CharString>
          <CharString index="286">
            92 callsubr
            94 return
          </CharString>
          <CharString index="287">
            -47 21 -54 37 -28 30 return
          </CharString>
          <CharString index="288">
            540 rmoveto
            120 return
          </CharString>
          <CharString index="289">
            -51 25 -36 32 -17 hvcurveto
            -131 -83 callgsubr
            return
          </CharString>
          <CharString index="290">
            587 rmoveto
            -106 -62 -60 -71 -51 29 -31 44 40 23 28 30 hvcurveto
            71 -81 -22 35 vvcurveto
            25 31 23 49 68 return
          </CharString>
          <CharString index="291">
            -41 callgsubr
            129 return
          </CharString>
          <CharString index="292">
            hhcurveto
            -74 -52 -49 -64 -28 11 -26 22 -19 hvcurveto
            12 12 rlineto
            -15 14 -7 20 17 vvcurveto
            24 13 13 25 28 return
          </CharString>
          <CharString index="293">
            hlineto
            190 callgsubr
            return
          </CharString>
          <CharString index="294">
            201 callgsubr
            95 vlineto
            endchar
          </CharString>
          <CharString index="295">
            52 57 -14 -8 24 return
          </CharString>
          <CharString index="296">
            hhcurveto
            -67 -54 37 75 109 callgsubr
            return
          </CharString>
          <CharString index="297">
            -51 vvcurveto
            -55 33 -33 44 37 36 29 40 31 -15 22 -21 11 vhcurveto
            -22 11 -19 -4 -6 12 -6 11 return
          </CharString>
          <CharString index="298">
            98 hhcurveto
            87 33 77 75 22 -3 21 -5 20 hvcurveto
            endchar
          </CharString>
          <CharString index="299">
            -47 -17 -23 -43 -42 vvcurveto
            return
          </CharString>
          <CharString index="300">
            rlineto
            101 -51 -45 81 -93 hhcurveto
            -66 -53 -38 -49 -24 hvcurveto
            return
          </CharString>
          <CharString index="301">
            134 callsubr
            45 6 return
          </CharString>
          <CharString index="302">
            hvcurveto
            4 vlineto
            86 7 return
          </CharString>
          <CharString index="303">
            -195 hlineto
            22 callsubr
            326 vlineto
            return
          </CharString>
          <CharString index="304">
            hlineto
            -278 -191 11 -18 267 183 rlineto
            -147 85 callsubr
          </CharString>
          <CharString index="305">
            hvcurveto
            -159 -122 12 -17 272 209 rlineto
            -260 -94 callsubr
          </CharString>
          <CharString index="306">
            vlineto
            39 callsubr
            return
          </CharString>
          <CharString index="307">
            rmoveto
            -36 135 -248 -18 238 callgsubr
            return
          </CharString>
          <CharString index="308">
            -32 77 68 hvcurveto
            -78 callsubr
            return
          </CharString>
          <CharString index="309">
            -42 callgsubr
            -31 -20 hlineto
            return
          </CharString>
          <CharString index="310">
            19 vlineto
            41 21 29 24 vhcurveto
            54 31 -79 94 hhcurveto
            return
          </CharString>
          <CharString index="311">
            413 rmoveto
            117 callgsubr
            return
          </CharString>
          <CharString index="312">
            68 -44 55 158 callsubr
            return
          </CharString>
          <CharString index="313">
            -70 130 60 71 24 54 34 vhcurveto
            return
          </CharString>
          <CharString index="314">
            184 104 88 156 return
          </CharString>
          <CharString index="315">
            20 7 22 17 28 hhcurveto
            41 27 -32 -46 -51 -33 -33 -48 -102 -52 90 79 -2 hvcurveto
            return
          </CharString>
          <CharString index="316">
            -201 140 return
          </CharString>
          <CharString index="317">
            751 -22 callgsubr
            return
          </CharString>
          <CharString index="318">
            163 215 callgsubr
            vhcurveto
            -10 18 rlineto
            -7 -10 -45 -20 -55 hhcurveto
            -91 -55 return
          </CharString>
          <CharString index="319">
            -20 379 245 callsubr
            return
          </CharString>
          <CharString index="320">
            -262 -92 callsubr
            return
          </CharString>
          <CharString index="321">
            5 hlineto
            -131 -90 11 -18 return
          </CharString>
          <CharString index="322">
            -98 241 callsubr
            return
          </CharString>
          <CharString index="323">
            -38 -38 30 -30 38 return
          </CharString>
          <CharString index="324">
            -50 -29 rlineto
            -8 -14 -18 -4 -17 hhcurveto
            -67 116 callgsubr
            return
          </CharString>
          <CharString index="325">
            rmoveto
            38 -31 30 -38 -38 -30 -30 -38 -38 30 -31 38 6 callgsubr
            vhcurveto
            return
          </CharString>
          <CharString index="326">
            hlineto
            -71 -4 -57 -25 -72 vvcurveto
            -71 57 -34 64 91 53 48 139 2 vhcurveto
            return
          </CharString>
          <CharString index="327">
            245 callgsubr
            vlineto
            endchar
          </CharString>
          <CharString index="328">
            -51 -43 44 56 42 23 40 51 return
          </CharString>
          <CharString index="329">
            vlineto
            15 callsubr
            return
          </CharString>
          <CharString index="330">
            -63 -11 50 71 72 11 50 63 63 11 -50 -72 -71 -11 -50 -63 hvcurveto
            return
          </CharString>
          <CharString index="331">
            rmoveto
            650 93 callgsubr
            -630 116 callsubr
          </CharString>
          <CharString index="332">
            vlineto
            72 48 -21 -88 -82 -55 -29 -74 hvcurveto
            return
          </CharString>
          <CharString index="333">
            -118 1 83 -96 128 hhcurveto
            106 62 54 77 73 -49 44 -90 return
          </CharString>
          <CharString index="334">
            -201 -94 callsubr
          </CharString>
          <CharString index="335">
            -194 -40 -74 -69 -76 -23 106 104 88 15 122 135 return
          </CharString>
          <CharString index="336">
            141 callsubr
            482 145 rmoveto
            return
          </CharString>
          <CharString index="337">
            vvcurveto
            80 -64 47 -83 -77 -43 -48 -61 return
          </CharString>
          <CharString index="338">
            -118 hlineto
            -45 -41 -11 -20 -33 hvcurveto
            return
          </CharString>
          <CharString index="339">
            -105 vlineto
            179 callgsubr
            return
          </CharString>
          <CharString index="340">
            hlineto
            82 39 -43 -82 2 hvcurveto
            return
          </CharString>
          <CharString index="341">
            540 rmoveto
            109 20 return
          </CharString>
          <CharString index="342">
            rmoveto
            -308 -20 68 return
          </CharString>
          <CharString index="343">
            20 -260 -20 return
          </CharString>
          <CharString index="344">
            450 167 callgsubr
            return
          </CharString>
          <CharString index="345">
            rmoveto
            242 callgsubr
            return
          </CharString>
          <CharString index="346">
            97 22 30 -5 -7 14 hvcurveto
            endchar
          </CharString>
          <CharString index="347">
            rmoveto
            462 20 -462 hlineto
            endchar
          </CharString>
          <CharString index="348">
            hlineto
            -118 -87 return
          </CharString>
          <CharString index="349">
            hhcurveto
            -28 -40 24 55 -7 hvcurveto
            -6 74 50 35 55 7 return
          </CharString>
          <CharString index="350">
            rmoveto
            20 -27 vlineto
            -60 -34 43 54 66 38 42 77 hvcurveto
            return
          </CharString>
          <CharString index="351">
            -67 -43 -30 -43 -20 hvcurveto
            153 return
          </CharString>
          <CharString index="352">
            -254 hlineto
            -21 -16 rlineto
            101 -51 return
          </CharString>
          <CharString index="353">
            540 100 20 vlineto
            endchar
          </CharString>
          <CharString index="354">
            -20 257 callgsubr
            return
          </CharString>
          <CharString index="355">
            272 rmoveto
            17 -4 rlineto
            26 21 38 24 48 hhcurveto
            return
          </CharString>
          <CharString index="356">
            198 -10 95 70 117 vvcurveto
            128 -86 71 return
          </CharString>
          <CharString index="357">
            93 callgsubr
            -630 42 callsubr
            return
          </CharString>
          <CharString index="358">
            -68 -20 4 -27 15 -17 return
          </CharString>
          <CharString index="359">
            9 -25 2 -25 -33 vvcurveto
            return
          </CharString>
          <CharString index="360">
            50 30 vhcurveto
            -14 10 rlineto
            return
          </CharString>
          <CharString index="361">
            -101 22 -112 return
          </CharString>
          <CharString index="362">
            -66 -57 -44 -71 return
          </CharString>
          <CharString index="363">
            vhcurveto
            -100 -55 callsubr
            return
          </CharString>
          <CharString index="364" raw="1">
            780a848a 817c1a0b  
          </CharString>
          <CharString index="365">
            278 560 rmoveto
            -298 -20 298 hlineto
            return
          </CharString>
          <CharString index="366">
            -18 rmoveto
            11 -18 300 206 -11 18 rlineto
            return
          </CharString>
          <CharString index="367">
            -118 240 callgsubr
          </CharString>
          <CharString index="368">
            41 71 106 callgsubr
            return
          </CharString>
          <CharString index="369">
            21 46 24 vhcurveto
            -79 140 return
          </CharString>
          <CharString index="370">
            25 26 -18 19 -26 -25 -19 -19 -26 vhcurveto
            return
          </CharString>
          <CharString index="371">
            rmoveto
            17 -9 293 565 -18 9 rlineto
            return
          </CharString>
          <CharString index="372">
            vvcurveto
            -56 -41 -36 -63 vhcurveto
            -23 558 rmoveto
            return
          </CharString>
          <CharString index="373">
            239 20 rmoveto
            return
          </CharString>
        <CharString name=".notdef">
          186 180 hmoveto
          390 701 -390 hlineto
          54 -50 rmoveto
          282 -601 -282 hlineto
          endchar
        </CharString>
        <CharString name="A">
          79 169 180 -68 callgsubr
        </CharString>
        <CharString name="AE">
          256 212 210 40 callgsubr
        </CharString>
        <CharString name="AEacute">
          256 483 601 rmoveto
          35 51 49 -23 28 39 -84 callsubr
          -257 -401 40 callgsubr
        </CharString>
        <CharString name="Aacute">
          79 321 601 rmoveto
          35 51 49 -23 28 39 -84 callsubr
          -138 -431 -68 callgsubr
        </CharString>
        <CharString name="Abreve">
          79 384 745 91 callgsubr
          -235 -565 -68 callgsubr
        </CharString>
        <CharString name="Acircumflex">
          79 321 654 87 callsubr
          -64 -434 -68 callgsubr
        </CharString>
        <CharString name="Adieresis">
          79 405 621 rmoveto
          36 26 27 34 35 -26 28 -36 -33 -28 -28 -35 -34 28 -27 33 hvcurveto
          -170 hmoveto
          88 callgsubr
          -66 -441 -68 callgsubr
        </CharString>
        <CharString name="Agrave">
          79 332 611 -64 callsubr
          -149 -421 -68 callgsubr
        </CharString>
        <CharString name="Amacron">
          79 420 707 120 callgsubr
          -251 -477 -68 callgsubr
        </CharString>
        <CharString name="Aogonek">
          79 169 180 rmoveto
          85 204 98 -204 rlineto
          281 -180 rmoveto
          20 -48 vlineto
          -254 550 rlineto
          -25 hlineto
          -229 -550 rlineto
          -67 241 callgsubr
          -79 hlineto
          58 139 rlineto
          202 hlineto
          67 -139 rlineto
          -59 -20 156 hlineto
          -118 -124 52 -59 62 16 callgsubr
          -23 17 -7 35 50 69 rrcurveto
          endchar
        </CharString>
        <CharString name="Aring">
          79 315 727 rmoveto
          26 18 -20 -25 -24 -20 -23 -24 -24 -19 23 24 25 17 20 26 hvcurveto
          -129 vmoveto
          46 39 38 46 46 -39 39 -46 -46 -37 -39 -46 -46 37 -38 46 hvcurveto
          -146 -418 -68 callgsubr
        </CharString>
        <CharString name="Atilde">
          79 400 721 77 callsubr
          -251 -541 -68 callgsubr
        </CharString>
        <CharString name="B">
          32 40 hmoveto
          316 hlineto
          141 79 51 90 105 -82 46 -88 hvcurveto
          6 vlineto
          78 49 51 69 84 -69 58 -172 hvcurveto
          -252 -20 50 -520 -50 hlineto
          200 hmoveto
          266 32 vlineto
          83 71 -25 -120 -80 -52 -41 -78 hvcurveto
          -56 286 rmoveto
          234 31 vlineto
          68 53 -31 -88 -88 -54 -27 -67 hvcurveto
          endchar
        </CharString>
        <CharString name="C">
          -4 525 337 -25 callsubr
        </CharString>
        <CharString name="CR">
          -564 endchar
        </CharString>
        <CharString name="Cacute">
          -4 292 601 rmoveto
          35 51 49 -23 28 39 -84 callsubr
          247 -274 -25 callsubr
        </CharString>
        <CharString name="Ccaron">
          -4 229 210 callsubr
          208 -374 -25 callsubr
        </CharString>
        <CharString name="Ccedilla">
          -4 515 181 rmoveto
          -117 -16 -79 -59 -87 hhcurveto
          -101 -46 66 215 207 60 60 62 139 58 -125 -91 hvcurveto
          20 223 194 callgsubr
          -37 50 -98 hhcurveto
          -158 -125 -80 -207 -219 118 -82 190 hvcurveto
          1 hlineto
          -42 -77 rlineto
          -9 callgsubr
          36 64 rcurveline
          83 11 72 58 17 125 rrcurveto
          endchar
        </CharString>
        <CharString name="Cdotaccent">
          -4 351 682 34 callgsubr
          174 -345 -25 callsubr
        </CharString>
        <CharString name="D">
          51 121 callgsubr
          endchar
        </CharString>
        <CharString name="Dcaron">
          41 121 callgsubr
          149 210 callsubr
          endchar
        </CharString>
        <CharString name="Dcroat">
          83 callsubr
        </CharString>
        <CharString name="E">
          -79 callgsubr
          endchar
        </CharString>
        <CharString name="Eacute">
          -79 callgsubr
          -82 591 -74 callgsubr
        </CharString>
        <CharString name="Ebreve">
          -79 callgsubr
          -47 676 -33 callgsubr
        </CharString>
        <CharString name="Ecaron">
          -79 callgsubr
          -131 731 -22 callgsubr
          endchar
        </CharString>
        <CharString name="Ecircumflex">
          -79 callgsubr
          -133 594 -47 callsubr
          endchar
        </CharString>
        <CharString name="Edieresis">
          -79 callgsubr
          96 662 -50 callgsubr
          endchar
        </CharString>
        <CharString name="Edotaccent">
          -79 callgsubr
          24 662 rmoveto
          46 callsubr
        </CharString>
        <CharString name="Egrave">
          -79 callgsubr
          -11 591 -64 callsubr
          endchar
        </CharString>
        <CharString name="Emacron">
          -79 callgsubr
          50 687 120 callgsubr
          endchar
        </CharString>
        <CharString name="Eng">
          74 410 -252 rmoveto
          85 33 73 108 hvcurveto
          611 70 20 -170 -20 80 -313 vlineto
          -281 333 rlineto
          -187 -20 hlineto
          16 21 -12 -32 23 hvcurveto
          -476 -60 -20 160 20 -80 451 vlineto
          370 -459 rlineto
          12 -15 6 -14 -25 vvcurveto
          -28 vlineto
          -43 -6 -32 -15 vhcurveto
          -19 -13 47 -52 hhcurveto
          -48 -25 -30 -45 -48 38 -31 42 hvcurveto
          endchar
        </CharString>
        <CharString name="Eogonek">
          -19 510 hmoveto
          190 -20 vlineto
          -136 -73 -34 -77 vhcurveto
          -100 260 40 hlineto
          100 10 -18 -72 hvcurveto
          20 200 -20 hlineto
          -68 -10 -22 -100 vhcurveto
          -40 240 90 67 callgsubr
          170 105 callsubr
          336 hlineto
          -118 -124 52 -59 62 16 callgsubr
          -23 17 -7 35 50 69 rrcurveto
          endchar
        </CharString>
        <CharString name="Eth">
          83 callsubr
        </CharString>
        <CharString name="Euro">
          33 407 199 rmoveto
          20 -154 vlineto
          -1 17 -1 19 19 vvcurveto
          26 1 25 3 23 vhcurveto
          152 20 -149 hlineto
          112 17 51 71 81 hhcurveto
          41 29 -15 -26 hvcurveto
          -25 -43 1 -44 vvcurveto
          -32 27 -25 38 45 23 33 37 72 -75 44 -96 -150 -119 -71 -132 -38 vhcurveto
          -69 -20 64 hlineto
          -5 -24 -3 -25 -27 vvcurveto
          -19 1 -17 3 -17 vhcurveto
          -60 -20 63 hlineto
          -147 30 124 -65 159 hhcurveto
          96 75 44 72 37 -23 33 -45 -38 -27 -25 -32 hvcurveto
          -44 43 1 -25 vvcurveto
          -26 -29 -15 -41 -85 -52 72 120 -15 vhcurveto
          endchar
        </CharString>
        <CharString name="F">
          -34 500 560 rmoveto
          105 callsubr
          260 20 -60 238 40 hlineto
          100 10 -18 -72 hvcurveto
          20 200 -20 hlineto
          -68 -10 -22 -100 vhcurveto
          -40 262 90 67 callgsubr
          hlineto
          endchar
        </CharString>
        <CharString name="G">
          -52 callgsubr
          endchar
        </CharString>
        <CharString name="Gbreve">
          -52 callgsubr
          -167 642 -33 callgsubr
        </CharString>
        <CharString name="Gcircumflex">
          -52 callgsubr
          -256 560 -47 callsubr
          endchar
        </CharString>
        <CharString name="Gdotaccent">
          -52 callgsubr
          -106 628 rmoveto
          46 callsubr
        </CharString>
        <CharString name="H">
          93 627 540 rmoveto
          267 callgsubr
          50 -232 -197 232 50 20 -250 163 callgsubr
          268 197 -268 220 callsubr
        </CharString>
        <CharString name="Hbar">
          113 437 308 rmoveto
          -197 110 197 hlineto
          200 122 rmoveto
          267 callgsubr
          50 -102 -197 102 50 267 callgsubr
          50 -102 -50 -20 50 -398 42 callsubr
          268 197 -268 42 callsubr
          398 50 20 -50 102 vlineto
          endchar
        </CharString>
        <CharString name="I">
          -234 13 callsubr
          endchar
        </CharString>
        <CharString name="IJ">
          278 290 560 rmoveto
          -250 163 callgsubr
          520 50 hlineto
          512 20 rmoveto
          -250 -20 50 -343 hlineto
          -95 -24 -79 -95 -44 -42 22 25 19 21 -2 24 8 vhcurveto
          36 11 16 25 29 181 callgsubr
          -50 -33 -44 -48 -94 73 -46 101 162 74 80 126 vhcurveto
          334 50 vlineto
          endchar
        </CharString>
        <CharString name="Iacute">
          -254 13 callsubr
          82 611 -74 callgsubr
        </CharString>
        <CharString name="Ibreve">
          -254 13 callsubr
          121 696 -33 callgsubr
        </CharString>
        <CharString name="Icircumflex">
          -254 13 callsubr
          27 614 -47 callsubr
          endchar
        </CharString>
        <CharString name="Idieresis">
          -254 13 callsubr
          263 681 -50 callgsubr
          endchar
        </CharString>
        <CharString name="Idotaccent">
          -254 13 callsubr
          177 682 rmoveto
          46 callsubr
        </CharString>
        <CharString name="Igrave">
          -254 13 callsubr
          149 611 -64 callsubr
          endchar
        </CharString>
        <CharString name="Imacron">
          -254 13 callsubr
          215 707 120 callgsubr
          endchar
        </CharString>
        <CharString name="Iogonek">
          -254 290 540 rmoveto
          20 48 callsubr
          116 vlineto
          -118 -124 52 -59 62 16 callgsubr
          -23 17 -7 35 50 69 rrcurveto
          108 20 -50 520 hlineto
          endchar
        </CharString>
        <CharString name="Itilde">
          -254 13 callsubr
          44 630 -45 callsubr
          endchar
        </CharString>
        <CharString name="J">
          95 callsubr
          endchar
        </CharString>
        <CharString name="Jcircumflex">
          95 callsubr
          75 614 -47 callsubr
          endchar
        </CharString>
        <CharString name="K">
          76 587 20 93 callsubr
        </CharString>
        <CharString name="L">
          -44 490 190 30 callgsubr
        </CharString>
        <CharString name="Lacute">
          -44 132 601 rmoveto
          35 51 49 -23 28 39 -84 callsubr
          372 -421 30 callgsubr
        </CharString>
        <CharString name="Lcaron">
          -43 404 379 -80 callgsubr
          94 -205 30 callgsubr
        </CharString>
        <CharString name="Ldot">
          -34 376 240 rmoveto
          40 32 33 39 39 -32 33 -40 -39 -33 -33 -39 -39 33 -33 39 hvcurveto
          114 -50 30 callgsubr
        </CharString>
        <CharString name="Lslash">
          -34 490 190 rmoveto
          -156 -73 -14 -77 vhcurveto
          -100 351 hlineto
          140 74 rlineto
          25 vlineto
          -140 -74 rlineto
          144 60 236 callsubr
          50 -223 vlineto
          -70 -37 rlineto
          -25 vlineto
          70 37 rlineto
          -272 -50 -20 470 190 vlineto
          endchar
        </CharString>
        <CharString name="M">
          220 754 173 callgsubr
          -200 vlineto
          -145 -375 -156 375 rlineto
          -223 -20 61 -520 -60 -20 160 20 -80 497 hlineto
          222 -527 rlineto
          23 hlineto
          198 513 rlineto
          -483 220 callsubr
        </CharString>
        <CharString name="N">
          34 488 -10 -4 callsubr
          endchar
        </CharString>
        <CharString name="NULL">
          -564 endchar
        </CharString>
        <CharString name="Nacute">
          34 488 -10 -4 callsubr
          188 140 -74 callgsubr
        </CharString>
        <CharString name="Ncaron">
          34 488 -10 -4 callsubr
          129 280 -22 callgsubr
          endchar
        </CharString>
        <CharString name="Ntilde">
          34 237 630 -45 callsubr
          271 -640 -4 callsubr
          endchar
        </CharString>
        <CharString name="O">
          -81 callsubr
          endchar
        </CharString>
        <CharString name="OE">
          256 370 20 rmoveto
          -49 hlineto
          -83 -47 85 166 hvcurveto
          178 -1 51 91 80 hhcurveto
          49 hlineto
          380 -350 rmoveto
          -136 -73 -34 -77 vhcurveto
          -80 260 20 hlineto
          100 10 -18 -72 hvcurveto
          20 200 -20 hlineto
          -68 -10 -22 -100 vhcurveto
          -20 240 70 67 callgsubr
          170 -439 hlineto
          -174 -118 -106 -183 1 hvcurveto
          -189 124 -82 167 vhcurveto
          449 190 hlineto
          endchar
        </CharString>
        <CharString name="Oacute">
          -81 callsubr
          -13 59 -74 callgsubr
        </CharString>
        <CharString name="Obreve">
          -81 callsubr
          1 144 -33 callgsubr
        </CharString>
        <CharString name="Ocircumflex">
          -81 callsubr
          -88 62 -47 callsubr
          endchar
        </CharString>
        <CharString name="Odieresis">
          -81 callsubr
          144 130 -50 callgsubr
          endchar
        </CharString>
        <CharString name="Ograve">
          -81 callsubr
          15 59 -64 callsubr
          endchar
        </CharString>
        <CharString name="Ohungarumlaut">
          -81 callsubr
          69 58 -52 callsubr
        </CharString>
        <CharString name="Omacron">
          -81 callsubr
          99 155 120 callgsubr
          endchar
        </CharString>
        <CharString name="Oslash">
          138 473 389 29 callgsubr
        </CharString>
        <CharString name="Oslashacute">
          138 355 601 rmoveto
          35 51 49 -23 28 39 -84 callsubr
          132 -222 29 callgsubr
        </CharString>
        <CharString name="Otilde">
          -81 callsubr
          -79 78 -45 callsubr
          endchar
        </CharString>
        <CharString name="P">
          -1 290 20 rmoveto
          -50 174 hlineto
          249 callsubr
          -208 -10 vhcurveto
          -199 176 callgsubr
          hlineto
          -50 540 rmoveto
          230 callgsubr
        </CharString>
        <CharString name="Q">
          120 250 -69 rmoveto
          215 37 177 103 204 vvcurveto
          168 -127 127 -184 -184 -117 -130 -164 -184 117 -84 174 vhcurveto
          20 vlineto
          -89 -40 104 144 182 58 92 81 80 69 -86 -188 -190 -71 -89 -100 -30 hvcurveto
          -51 -15 -62 -9 -61 -52 11 -18 rcurveline
          21 27 29 14 31 132 56 -170 137 hhcurveto
          115 29 88 142 hvcurveto
          -20 hlineto
          -45 -37 -36 -59 -143 -40 50 -10 -153 vhcurveto
          endchar
        </CharString>
        <CharString name="R">
          -35 callsubr
          endchar
        </CharString>
        <CharString name="Racute">
          -35 callsubr
          38 327 -74 callgsubr
        </CharString>
        <CharString name="Rcaron">
          -35 callsubr
          -31 469 -22 callgsubr
          endchar
        </CharString>
        <CharString name="S">
          -6 80 hmoveto
          -66 callsubr
          endchar
        </CharString>
        <CharString name="Sacute">
          -51 80 hmoveto
          -66 callsubr
          182 601 rmoveto
          35 51 49 -23 28 39 -46 callgsubr
        </CharString>
        <CharString name="Scaron">
          -51 181 210 callsubr
          -189 -711 rmoveto
          -66 callsubr
          endchar
        </CharString>
        <CharString name="Scircumflex">
          -51 191 614 -47 callsubr
          -102 -623 rmoveto
          -66 callsubr
          endchar
        </CharString>
        <CharString name="T">
          50 callgsubr
          endchar
        </CharString>
        <CharString name="Tbar">
          -15 419 20 rmoveto
          -70 250 120 20 -120 250 hlineto
          117 132 callgsubr
          170 -529 -170 20 hlineto
          126 53 24 116 vhcurveto
          -250 -120 -20 120 -250 -70 -20 290 vlineto
          endchar
        </CharString>
        <CharString name="Tcaron">
          50 callgsubr
          -326 361 -22 callgsubr
          endchar
        </CharString>
        <CharString name="Thorn">
          -21 240 463 rmoveto
          77 50 20 -250 163 callgsubr
          77 vlineto
          249 callsubr
          -207 -10 vhcurveto
          -346 vmoveto
          326 vlineto
          230 callgsubr
        </CharString>
        <CharString name="U">
          -78 callgsubr
          endchar
        </CharString>
        <CharString name="Uacute">
          -78 callgsubr
          -207 367 -74 callgsubr
        </CharString>
        <CharString name="Ubreve">
          -78 callgsubr
          -186 452 -33 callgsubr
        </CharString>
        <CharString name="Ucircumflex">
          -78 callgsubr
          -276 370 -47 callsubr
          endchar
        </CharString>
        <CharString name="Udieresis">
          -78 callgsubr
          -34 438 -50 callgsubr
          endchar
        </CharString>
        <CharString name="Ugrave">
          -78 callgsubr
          -149 367 -64 callsubr
          endchar
        </CharString>
        <CharString name="Uhungarumlaut">
          -78 callgsubr
          -125 356 -52 callsubr
        </CharString>
        <CharString name="Umacron">
          -78 callgsubr
          -86 463 120 callgsubr
          endchar
        </CharString>
        <CharString name="Uogonek">
          41 441 560 rmoveto
          -20 79 -316 vlineto
          -139 -81 -71 -69 -93 -47 73 136 vhcurveto
          317 50 236 callsubr
          50 -306 vlineto
          -171 101 -78 156 vhcurveto
          4 hlineto
          -108 -104 50 -54 59 16 callgsubr
          -21 16 -8 31 40 61 rrcurveto
          120 14 62 85 158 vvcurveto
          254 callgsubr
          vlineto
          endchar
        </CharString>
        <CharString name="Uring">
          -78 callgsubr
          -185 391 -2 callsubr
        </CharString>
        <CharString name="Utilde">
          -78 callgsubr
          -258 386 -45 callsubr
          endchar
        </CharString>
        <CharString name="V">
          62 616 560 rmoveto
          -174 -20 80 hlineto
          -132 -335 -146 335 rlineto
          49 20 -283 -20 48 hlineto
          251 -540 rlineto
          26 hlineto
          213 540 rlineto
          68 hlineto
          endchar
        </CharString>
        <CharString name="W">
          -47 callgsubr
          endchar
        </CharString>
        <CharString name="Wacute">
          -47 callgsubr
          -22 231 -74 callgsubr
        </CharString>
        <CharString name="Wcircumflex">
          -47 callgsubr
          -71 252 -47 callsubr
          endchar
        </CharString>
        <CharString name="Wdieresis">
          -47 callgsubr
          167 320 -50 callgsubr
          endchar
        </CharString>
        <CharString name="Wgrave">
          -47 callgsubr
          31 249 -64 callsubr
          endchar
        </CharString>
        <CharString name="X">
          61 567 20 rmoveto
          -194 322 134 198 rlineto
          73 20 -180 -20 80 hlineto
          -119 -177 -107 177 rlineto
          46 20 -279 -20 53 hlineto
          164 -270 -156 -250 rlineto
          -72 -20 180 20 -81 hlineto
          142 228 139 -228 rlineto
          -50 -20 62 hlineto
          177 hlineto
          36 20 hlineto
          endchar
        </CharString>
        <CharString name="Y">
          -24 callsubr
          endchar
        </CharString>
        <CharString name="Yacute">
          -24 callsubr
          118 611 -74 callgsubr
        </CharString>
        <CharString name="Ycircumflex">
          -24 callsubr
          40 614 -47 callsubr
          endchar
        </CharString>
        <CharString name="Ydieresis">
          -24 callsubr
          307 682 -50 callgsubr
          endchar
        </CharString>
        <CharString name="Ygrave">
          -24 callsubr
          178 611 -64 callsubr
          endchar
        </CharString>
        <CharString name="Z">
          -35 469 210 12 callgsubr
        </CharString>
        <CharString name="Zacute">
          -35 262 601 rmoveto
          35 51 49 -23 28 39 -84 callsubr
          221 -401 12 callgsubr
        </CharString>
        <CharString name="Zcaron">
          -35 281 614 171 callsubr
          207 -404 12 callgsubr
        </CharString>
        <CharString name="Zdotaccent">
          -35 272 621 rmoveto
          88 callgsubr
          197 -411 12 callgsubr
        </CharString>
        <CharString name="a">
          -19 -95 callgsubr
          endchar
        </CharString>
        <CharString name="aacute">
          -39 -95 callgsubr
          -213 516 -74 callgsubr
        </CharString>
        <CharString name="abreve">
          -39 -95 callgsubr
          -170 601 -33 callgsubr
        </CharString>
        <CharString name="acircumflex">
          -39 -95 callgsubr
          -249 519 -47 callsubr
          endchar
        </CharString>
        <CharString name="acute">
          -26 200 511 -74 callgsubr
        </CharString>
        <CharString name="acute.cap">
          -28 198 611 -74 callgsubr
        </CharString>
        <CharString name="adieresis">
          -39 -95 callgsubr
          -196 587 19 callsubr
        </CharString>
        <CharString name="ae">
          228 733 85 -14 callgsubr
        </CharString>
        <CharString name="aeacute">
          228 394 501 rmoveto
          35 51 49 -23 28 39 -84 callsubr
          353 -426 -14 callgsubr
        </CharString>
        <CharString name="agrave">
          -39 -95 callgsubr
          -126 516 -64 callsubr
          endchar
        </CharString>
        <CharString name="amacron">
          -39 -95 callgsubr
          -69 612 120 callgsubr
          endchar
        </CharString>
        <CharString name="ampersand">
          292 191 161 rmoveto
          -36 81 26 78 50 30 18 -71 43 -68 51 -57 24 -28 27 -27 29 -23 -66 -83 -130 86 -36 82 rrcurveto
          635 55 rmoveto
          0 -9 -111 -125 -69 -56 36 49 -52 vhcurveto
          33 79 42 39 36 -14 35 -14 -42 -72 70 -29 40 -16 42 17 17 40 22 54 -37 45 -43 15 -86 29 -95 -32 -53 -122 -11 12 -12 12 -11 13 rrcurveto
          -71 80 -34 110 50 vvcurveto
          63 31 37 45 59 19 -44 -72 -49 -20 -63 -35 -13 vhcurveto
          5 -16 rlineto
          100 63 57 82 57 -46 81 -145 -124 -87 -79 -109 -16 2 -17 3 -16 hvcurveto
          -36 -2 -39 -10 -32 -18 rrcurveto
          -85 -154 42 -263 246 hhcurveto
          79 65 11 58 45 hvcurveto
          -42 57 66 -28 82 hhcurveto
          207 -9 226 0 hvcurveto
          endchar
        </CharString>
        <CharString name="aogonek">
          -39 314 64 rmoveto
          -17 -13 -20 -13 -27 242 callsubr
          36 5 rcurveline
          211 -204 rmoveto
          -45 -10 -16 9 73 vvcurveto
          180 vlineto
          141 -56 45 -139 -147 -61 -62 -62 -41 34 -33 40 41 33 33 41 46 -56 59 90 63 8 -38 -109 vhcurveto
          -49 vlineto
          -40 -5 rlineto
          -179 -21 -55 -48 -86 vvcurveto
          -70 58 -31 68 68 52 18 34 33 vhcurveto
          10 -22 16 -13 23 -7 rrcurveto
          -119 -126 52 -60 62 16 callgsubr
          -23 17 -7 34 48 67 rrcurveto
          -1 13 14 -1 16 hhcurveto
          33 45 11 14 14 hvcurveto
          endchar
        </CharString>
        <CharString name="approxequal">
          -99 435 211 rmoveto
          182 callgsubr
          156 vmoveto
          182 callgsubr
          endchar
        </CharString>
        <CharString name="aring">
          -39 -95 callgsubr
          -169 540 -2 callsubr
        </CharString>
        <CharString name="asciicircum">
          -222 171 455 rmoveto
          123 -257 18 8 -135 283 rlineto
          -12 hlineto
          -135 -283 17 -8 rlineto
          endchar
        </CharString>
        <CharString name="asciitilde">
          -80 53 148 rmoveto
          0 -1 8 10 vvcurveto
          28 18 21 27 vhcurveto
          79 54 -58 91 hhcurveto
          72 61 55 67 14 -1 15 -6 16 hvcurveto
          -16 hlineto
          0 1 -9 -9 vvcurveto
          -27 -16 -22 -30 vhcurveto
          -80 -54 58 -90 hhcurveto
          -71 -61 -53 -69 -15 2 -14 5 -16 hvcurveto
          endchar
        </CharString>
        <CharString name="asterisk">
          -236 279 433 rmoveto
          -32 20 -28 -30 -43 25 43 25 28 -30 32 20 19 10 21 22 -17 31 -19 32 -30 -8 -18 -10 -35 -20 12 -38 -43 -25 rrcurveto
          50 39 8 39 vvcurveto
          22 -8 29 -37 -36 -8 -29 -22 vhcurveto
          -38 39 -9 -50 vvcurveto
          -43 25 12 38 -34 20 -18 10 -30 8 -19 -32 -17 -31 21 -22 18 -10 33 -20 28 30 42 -25 -42 -25 -28 30 -33 -20 -18 -10 -21 -22 17 -31 19 -32 30 8 18 10 rrcurveto
          34 20 -12 38 43 25 rrcurveto
          -50 -39 -9 -38 vvcurveto
          -22 8 -29 36 37 8 29 22 vhcurveto
          39 -39 8 50 vvcurveto
          43 -25 -12 -38 35 -20 18 -10 30 -8 19 32 17 31 -21 22 -19 10 rrcurveto
          endchar
        </CharString>
        <CharString name="at">
          436 533 145 rmoveto
          -40 -30 -15 -26 -48 -38 33 116 104 42 54 46 18 21 -13 -31 15 vhcurveto
          121 -236 rmoveto
          301 40 16 -160 vlineto
          -1 -47 rlineto
          39 -19 -45 16 -40 hhcurveto
          -83 -78 -77 -126 -145 79 -56 82 61 28 23 24 15 hvcurveto
          0 22 -57 94 146 23 150 70 191 -115 136 -231 -201 -144 -146 -191 -221 154 -116 191 18 19 1 3 17 vhcurveto
          27 vlineto
          -3 -18 -18 -2 -19 hhcurveto
          -176 -142 104 207 177 132 135 186 217 104 -125 -177 -78 -42 -100 -49 -36 -11 20 27 hvcurveto
          endchar
        </CharString>
        <CharString name="atilde">
          -39 -95 callgsubr
          -250 542 -45 callsubr
          endchar
        </CharString>
        <CharString name="b">
          -6 303 -9 rmoveto
          149 callsubr
          93 callgsubr
          -650 203 callsubr
          -93 403 133 callsubr
          endchar
        </CharString>
        <CharString name="backslash">
          -300 58 564 rmoveto
          -18 -5 165 -564 19 6 rlineto
          endchar
        </CharString>
        <CharString name="bar">
          -424 60 -99 rmoveto
          20 684 -20 hlineto
          endchar
        </CharString>
        <CharString name="braceleft">
          -276 241 183 rmoveto
          48 -33 38 -63 3 vhcurveto
          63 33 47 43 hvcurveto
          50 -27 68 49 vvcurveto
          53 14 27 50 vhcurveto
          20 -66 vlineto
          -59 -63 -39 -89 hvcurveto
          -50 28 -61 -36 vvcurveto
          -47 -25 -27 -63 vhcurveto
          -15 vlineto
          63 25 -27 -47 hvcurveto
          -36 -28 -61 -50 vvcurveto
          -89 63 -33 59 vhcurveto
          66 20 hlineto
          -50 -14 21 53 hvcurveto
          49 27 68 50 vvcurveto
          endchar
        </CharString>
        <CharString name="braceright">
          -276 47 183 rmoveto
          -50 27 -68 -49 vvcurveto
          -53 -14 -21 -50 vhcurveto
          -20 66 vlineto
          59 63 33 89 hvcurveto
          50 -28 61 36 vvcurveto
          47 25 27 63 vhcurveto
          15 vlineto
          -63 -25 27 47 hvcurveto
          36 28 61 50 vvcurveto
          89 -63 39 -59 vhcurveto
          -66 -20 hlineto
          50 14 -27 -53 hvcurveto
          -49 -27 -68 -50 vvcurveto
          -43 33 -47 63 vhcurveto
          -63 -3 -33 -38 -48 vvcurveto
          endchar
        </CharString>
        <CharString name="bracketleft">
          -294 50 -57 rmoveto
          210 20 -86 634 86 20 -210 hlineto
          endchar
        </CharString>
        <CharString name="bracketright">
          -294 220 -57 rmoveto
          674 -210 -20 86 -634 -86 -20 vlineto
          endchar
        </CharString>
        <CharString name="breve">
          20 293 596 -33 callgsubr
        </CharString>
        <CharString name="breve.cap">
          20 293 696 -33 callgsubr
        </CharString>
        <CharString name="brokenbar">
          -424 60 hmoveto
          20 227 -20 hlineto
          106 vmoveto
          20 227 -20 hlineto
          endchar
        </CharString>
        <CharString name="bullet">
          -245 29 329 rmoveto
          -73 58 -58 73 72 58 58 73 72 -58 58 -72 -73 -58 -58 -72 vhcurveto
          endchar
        </CharString>
        <CharString name="c">
          -61 -31 callgsubr
          endchar
        </CharString>
        <CharString name="cacute">
          -62 -31 callgsubr
          210 281 -74 callgsubr
        </CharString>
        <CharString name="caron">
          30 209 651 -22 callgsubr
          endchar
        </CharString>
        <CharString name="caron.cap">
          30 209 210 callsubr
          endchar
        </CharString>
        <CharString name="ccaron">
          -62 -31 callgsubr
          159 421 -22 callgsubr
          endchar
        </CharString>
        <CharString name="ccedilla">
          -62 242 -92 rmoveto
          -9 callgsubr
          38 69 rcurveline
          67 6 54 32 27 45 -14 10 rcurveline
          -33 -22 -53 -28 -46 hhcurveto
          -99 -48 74 132 122 25 89 65 10 hvcurveto
          79 10 -32 -72 -63 vvcurveto
          -39 21 -24 42 -10 vhcurveto
          39 -9 39 20 11 42 rrcurveto
          65 17 -57 99 -156 hhcurveto
          -133 -111 -75 -165 -161 90 -77 167 -1 hvcurveto
          endchar
        </CharString>
        <CharString name="cdotaccent">
          -62 -31 callgsubr
          311 352 rmoveto
          46 callsubr
        </CharString>
        <CharString name="cedilla">
          24 322 4 rmoveto
          -28 hlineto
          -52 -96 rlineto
          -9 callgsubr
          rrcurveto
          endchar
        </CharString>
        <CharString name="cedilla.cap">
          24 322 4 rmoveto
          -28 hlineto
          -52 -96 rlineto
          -9 callgsubr
          rrcurveto
          endchar
        </CharString>
        <CharString name="cent">
          -149 201 178 rmoveto
          -20 23 -11 33 40 vvcurveto
          85 33 66 57 38 22 -18 -19 vhcurveto
          -28 -63 17 -55 vvcurveto
          -9 3 -8 4 -8 vhcurveto
          15 -13 rmoveto
          -4 7 9 -3 11 hhcurveto
          34 23 24 40 22 -8 21 -15 17 hvcurveto
          35 67 -17 8 -32 -61 rlineto
          17 -22 -32 11 -40 hhcurveto
          -128 -64 -89 -84 -93 45 -59 74 -20 hvcurveto
          -33 -62 18 -9 35 66 rlineto
          -3 14 16 -1 16 hhcurveto
          94 56 58 76 hvcurveto
          -12 hlineto
          253 callgsubr
          -25 -23 8 14 -17 hvcurveto
          endchar
        </CharString>
        <CharString name="circumflex">
          30 209 150 callsubr
          endchar
        </CharString>
        <CharString name="circumflex.cap">
          30 209 614 -47 callsubr
          endchar
        </CharString>
        <CharString name="colon">
          -300 36 374 rmoveto
          58 callgsubr
          -303 vmoveto
          58 callgsubr
          endchar
        </CharString>
        <CharString name="comma">
          -274 140 callsubr
          endchar
        </CharString>
        <CharString name="commaaccent">
          -12 245 -240 24 callgsubr
        </CharString>
        <CharString name="copyright">
          38 572 282 152 callgsubr
          -271 251 152 callsubr
          137 -293 rmoveto
          -36 -5 -24 -37 -45 hhcurveto
          -61 -39 49 70 77 29 60 52 34 20 -16 -18 hvcurveto
          -25 -57 15 -49 vvcurveto
          -21 17 -20 28 30 21 22 36 50 -43 42 -75 -116 -58 -80 -76 -108 66 -56 101 85 51 52 69 vhcurveto
          endchar
        </CharString>
        <CharString name="currency">
          -116 351 239 rmoveto
          31 -12 29 -18 22 vhcurveto
          87 87 -14 14 -88 -87 rlineto
          19 -22 -29 11 -31 hhcurveto
          -32 -29 -11 -19 -22 hvcurveto
          -87 87 -14 -14 87 -88 rlineto
          -19 -22 -11 -28 -31 vvcurveto
          -33 13 -30 20 -22 vhcurveto
          -90 -90 14 -14 90 90 rlineto
          -17 22 28 -11 30 hhcurveto
          30 28 11 17 21 hvcurveto
          91 -90 14 14 -90 90 rlineto
          20 22 13 30 33 vvcurveto
          -127 -107 rmoveto
          -59 -48 48 59 59 48 47 59 59 48 -47 -59 -59 -48 -48 -59 hvcurveto
          endchar
        </CharString>
        <CharString name="d">
          24 358 219 69 callsubr
        </CharString>
        <CharString name="dagger">
          -122 228 -180 rmoveto
          243 84 206 0 vhcurveto
          -76 31 -5 74 55 vvcurveto
          -6 49 34 -40 226 callgsubr
          -47 -35 -36 -9 -48 hvcurveto
          7 50 39 143 callgsubr
          -56 -5 -74 -76 -31 vhcurveto
          0 84 -225 -224 vvcurveto
          endchar
        </CharString>
        <CharString name="daggerdbl">
          -122 362 153 rmoveto
          -48 -34 -37 -9 -49 hvcurveto
          5 88 66 71 0 vvcurveto
          2 -65 71 -6 87 vhcurveto
          -7 49 34 -39 226 callgsubr
          -48 -34 -37 -9 -48 hvcurveto
          5 51 41 143 callgsubr
          -88 -5 -67 -72 1 hhcurveto
          -1 66 -72 -87 6 hvcurveto
          6 -49 -35 40 -48 hhcurveto
          -36 -34 -16 -40 -39 34 -18 36 48 34 37 9 49 hvcurveto
          -9 -51 -37 -52 -48 vvcurveto
          -36 18 -34 39 40 16 34 36 48 -41 51 -5 51 vhcurveto
          -7 48 34 -39 226 callgsubr
          hvcurveto
          endchar
        </CharString>
        <CharString name="dcaron">
          134 565 490 70 callsubr
          -202 -283 69 callsubr
        </CharString>
        <CharString name="dcroat">
          34 291 18 rmoveto
          -54 -55 56 155 155 52 61 57 44 53 -70 -145 -157 -53 -55 -44 hvcurveto
          267 544 rmoveto
          20 -50 88 93 callgsubr
          -68 -160 -20 160 -148 vlineto
          48 -23 -56 20 -50 hhcurveto
          -103 -96 -84 -168 -160 98 -82 101 50 56 8 50 23 hvcurveto
          -46 200 20 -50 542 vlineto
          endchar
        </CharString>
        <CharString name="degree">
          -149 207 590 rmoveto
          74 34 29 74 75 -34 28 -74 -75 -32 -28 -75 -74 32 -29 75 hvcurveto
          20 vmoveto
          -28 -10 13 70 70 10 13 28 28 11 -13 -70 -70 -11 -13 -28 hvcurveto
          endchar
        </CharString>
        <CharString name="dieresis">
          132 325 582 19 callsubr
        </CharString>
        <CharString name="dieresis.cap">
          132 496 682 -50 callgsubr
          endchar
        </CharString>
        <CharString name="divide">
          -79 445 242 rmoveto
          -405 -20 405 hlineto
          -261 140 rmoveto
          -31 25 -26 32 31 26 26 31 31 -26 26 -31 -32 -25 -26 -31 vhcurveto
          -260 vmoveto
          -32 25 -25 32 31 26 25 32 31 -26 26 -31 -32 -25 -26 -31 vhcurveto
          endchar
        </CharString>
        <CharString name="dollar">
          -16 294 7 rmoveto
          181 vlineto
          58 -27 39 -25 -43 vvcurveto
          -53 -37 -33 -52 vhcurveto
          -28 372 rmoveto
          -56 23 -46 21 50 vvcurveto
          44 29 33 50 8 8 0 -1 7 vhcurveto
          20 -3 rmoveto
          87 -15 59 -61 -83 vvcurveto
          20 183 -20 hlineto
          -14 -4 -21 -16 -25 -34 24 8 -67 vhcurveto
          66 -20 -64 vlineto
          1 -8 -8 0 -8 hhcurveto
          -94 -80 -59 -104 -10 hvcurveto
          -11 -116 87 -34 109 -49 23 -10 rcurveline
          -189 vlineto
          -116 13 -88 95 116 vvcurveto
          -20 -233 20 hlineto
          28 15 12 22 32 46 -44 -9 89 vhcurveto
          -38 20 36 12 vlineto
          118 73 57 109 11 hvcurveto
          10 132 -110 35 -90 42 -8 4 -8 3 -8 4 rrcurveto
          endchar
        </CharString>
        <CharString name="dotaccent">
          -39 325 582 rmoveto
          46 callsubr
        </CharString>
        <CharString name="dotaccent.cap">
          -39 325 682 rmoveto
          46 callsubr
        </CharString>
        <CharString name="dotlessi">
          -234 240 20 97 callgsubr
        </CharString>
        <CharString name="dvDDH_DDHA">
          -13 404 540 rmoveto
          167 20 -591 -20 284 -78 241 callsubr
          -50 -99 -89 52 -47 85 -17 hvcurveto
          -82 -17 -55 -47 -79 vvcurveto
          -120 94 -42 140 109 97 35 91 161 callgsubr
          75 31 50 80 7 hvcurveto
          100 5 84 36 85 vvcurveto
          161 callgsubr
          82 37 52 239 callsubr
        </CharString>
        <CharString name="dvDD_GA">
          -17 445 540 rmoveto
          122 20 -587 -20 325 -67 hlineto
          159 callgsubr
          hvcurveto
          -152 274 58 -137 vvcurveto
          -49 -39 -37 -68 -17 -21 2 6 -16 vhcurveto
          -8 2 rlineto
          -15 7 -11 9 14 25 43 -1 44 vvcurveto
          32 -26 25 -39 -45 -23 -33 -37 -41 27 -32 41 -20 vhcurveto
          -34 160 callsubr
          35 70 122 hvcurveto
          7 vlineto
          22 20 3 4 19 hvcurveto
          -229 130 315 vlineto
          11 20 6 23 25 28 callgsubr
          endchar
        </CharString>
        <CharString name="dvNG_GA">
          -17 471 425 -97 callgsubr
          -491 135 rmoveto
          -20 250 -67 vlineto
          -17 callgsubr
          -68 76 -43 86 -5 vhcurveto
          -92 -38 -63 -34 -71 20 callsubr
          22 54 20 71 29 vhcurveto
          0 vlineto
          -228 140 296 vlineto
          21 25 12 31 35 28 callgsubr
          117 197 20 vlineto
          endchar
        </CharString>
        <CharString name="dvNG_MA">
          216 457 304 rmoveto
          6 callgsubr
          68 callgsubr
          -38 -31 -31 -38 -38 31 -31 38 hvcurveto
          103 -283 rmoveto
          -196 91 hlineto
          31 26 17 36 44 171 -266 -49 75 vvcurveto
          26 28 12 67 37 44 -4 -13 46 vhcurveto
          104 192 vlineto
          -392 -670 223 callgsubr
          632 690 rmoveto
          -820 -20 248 -67 hlineto
          -110 -66 -28 -68 hvcurveto
          -145 254 73 -131 vvcurveto
          -49 -32 -37 -65 -31 callsubr
          -45 -23 -33 -37 -72 85 -44 92 vhcurveto
          17 -46 219 callsubr
          196 -203 140 741 100 hlineto
          endchar
        </CharString>
        <CharString name="dvNY_CA">
          51 635 560 rmoveto
          -655 -20 415 -145 -74 hlineto
          65 -11 -68 33 -68 hhcurveto
          -55 -48 -15 -36 -31 hvcurveto
          13 -14 rlineto
          13 15 24 12 29 hhcurveto
          53 24 -34 -43 -49 -28 -33 -50 -35 -30 21 14 -9 hvcurveto
          -16 -12 rlineto
          -31 19 42 -32 78 hhcurveto
          86 67 33 88 1 hvcurveto
          72 -195 hlineto
          -55 -6 -36 -83 -71 hhcurveto
          -51 -31 34 45 51 22 25 43 7 hvcurveto
          15 -213 -20 96 -4 vlineto
          -48 -10 -36 -33 -52 vvcurveto
          -75 71 -36 77 81 74 47 72 28 vhcurveto
          -108 -94 callsubr
        </CharString>
        <CharString name="dvSHA_MatraVocalicR">
          187 callgsubr
          438 87 rmoveto
          100 20 66 callgsubr
          -168 hlineto
          -105 -15 -40 -49 -55 vvcurveto
          -67 67 -51 110 80 60 33 52 24 vhcurveto
          -1 3 -14 6 -3 -1 rlineto
          258 callgsubr
          41 42 103 2 hvcurveto
          endchar
        </CharString>
        <CharString name="dvSH_VA.aSimp">
          430 1014 560 rmoveto
          -1034 -20 141 hlineto
          -99 callsubr
          455 -62 callsubr
          -127 84 -59 92 -17 callsubr
        </CharString>
        <CharString name="dvTTH_TTHA">
          -39 262 237 rmoveto
          223 callsubr
          -317 vmoveto
          223 callsubr
          283 620 rmoveto
          20 -565 -20 212 -46 vlineto
          -80 -14 -69 -40 -82 vvcurveto
          -79 69 -42 80 -14 vhcurveto
          -46 vlineto
          -80 -14 -69 -40 -82 vvcurveto
          -102 114 -39 105 105 116 39 102 82 -70 40 -81 14 vhcurveto
          46 vlineto
          81 14 70 42 79 vvcurveto
          82 -70 40 -81 14 vhcurveto
          46 vlineto
          endchar
        </CharString>
        <CharString name="dvTT_GA">
          21 468 540 rmoveto
          137 20 -625 -20 348 -58 hlineto
          -118 -107 -41 -104 -57 30 -39 47 -24 hvcurveto
          -81 160 callsubr
          45 70 122 hvcurveto
          46 vlineto
          -1 15 16 -1 16 hhcurveto
          11 12 0 1 11 hvcurveto
          -260 140 299 vlineto
          -10 18 rlineto
          -14 -23 -57 -9 -31 hhcurveto
          -78 -79 33 85 80 60 49 92 22 27 -3 -6 19 hvcurveto
          endchar
        </CharString>
        <CharString name="dvT_KH_NA">
          507 855 51 callsubr
          236 20 rmoveto
          -1111 -20 394 hlineto
          65 34 -53 -57 -5 0 -5 -1 -5 hvcurveto
          -167 hlineto
          -93 callsubr
          99 126 hvcurveto
          152 hlineto
          -79 -14 -64 -27 -78 hhcurveto
          -20 138 callgsubr
          17 16 1 2 16 hvcurveto
          -97 -49 -59 -43 -69 vvcurveto
          -55 82 callsubr
          78 -80 -21 40 vvcurveto
          21 43 21 76 38 vhcurveto
          20 10 33 14 28 18 24 14 21 17 17 21 rrcurveto
          -119 136 -18 callgsubr
        </CharString>
        <CharString name="dvT_S_NA">
          553 898 142 callsubr
          -1159 -20 385 233 callsubr
          -183 hlineto
          -93 callsubr
          99 126 hvcurveto
          170 hlineto
          -78 -4 -49 -38 -85 hhcurveto
          -102 callsubr
          vlineto
          67 4 57 16 37 30 rrcurveto
          27 36 24 13 39 hhcurveto
          47 27 -22 -49 14 hvcurveto
          -61 -32 -41 -48 -66 137 callgsubr
          39 73 32 82 14 vhcurveto
          -302 139 540 102 vlineto
          endchar
        </CharString>
        <CharString name="e">
          -49 179 220 -82 callsubr
        </CharString>
        <CharString name="eacute">
          -49 247 501 rmoveto
          35 51 49 -23 28 39 -84 callsubr
          -54 -291 -82 callsubr
        </CharString>
        <CharString name="ebreve">
          -49 334 645 91 callgsubr
          -175 -425 -82 callsubr
        </CharString>
        <CharString name="ecaron">
          -49 281 514 171 callsubr
          -83 -294 -82 callsubr
        </CharString>
        <CharString name="ecircumflex">
          -49 268 554 87 callsubr
          -1 -294 -82 callsubr
        </CharString>
        <CharString name="edieresis">
          -49 343 521 rmoveto
          36 26 27 34 35 -26 28 -36 -33 -28 -28 -35 -34 28 -27 33 hvcurveto
          -170 hmoveto
          88 callgsubr
          6 -301 -82 callsubr
        </CharString>
        <CharString name="edotaccent">
          -49 264 521 rmoveto
          88 callgsubr
          -85 -301 -82 callsubr
        </CharString>
        <CharString name="egrave">
          -49 299 47 callsubr
          -106 -281 -82 callsubr
        </CharString>
        <CharString name="eight">
          -34 278 8 rmoveto
          -53 -72 48 77 53 13 38 17 41 hvcurveto
          89 -65 110 -42 -58 265 callsubr
          59 49 -44 -62 -37 -6 -46 -14 -26 hvcurveto
          -86 54 -88 41 50 vvcurveto
          43 31 27 55 vhcurveto
          110 -229 rmoveto
          66 21 45 37 63 vvcurveto
          67 -76 61 -145 -114 -67 -69 -79 -66 37 -49 48 -40 vhcurveto
          -79 -22 -50 -54 -66 vvcurveto
          -119 122 -34 126 110 112 64 101 79 -64 58 -71 47 vhcurveto
          endchar
        </CharString>
        <CharString name="ellipsis">
          254 132 -10 rmoveto
          125 callgsubr
          260 hmoveto
          125 callgsubr
          260 hmoveto
          125 callgsubr
          endchar
        </CharString>
        <CharString name="emacron">
          -49 370 607 120 callgsubr
          -191 -337 -82 callsubr
        </CharString>
        <CharString name="emdash">
          253 30 206 rmoveto
          749 20 -749 hlineto
          endchar
        </CharString>
        <CharString name="endash">
          -42 30 206 240 callsubr
        </CharString>
        <CharString name="eng">
          61 263 callgsubr
          -200 -20 50 82 callgsubr
          351 hlineto
          40 23 33 20 35 hhcurveto
          54 30 -33 -98 hvcurveto
          -300 vlineto
          -144 -30 -76 -89 vhcurveto
          -20 vlineto
          164 105 56 184 hvcurveto
          278 vlineto
          127 -61 66 -117 -66 -57 -30 -33 -24 vhcurveto
          endchar
        </CharString>
        <CharString name="eogonek">
          -49 179 220 rmoveto
          11 vlineto
          92 17 127 64 63 19 -128 -102 vhcurveto
          140 -20 rmoveto
          205 -111 65 -110 -115 -116 -64 -174 -191 128 -48 118 -3 vhcurveto
          -111 -111 51 -56 60 16 callgsubr
          -22 16 -7 32 43 64 67 4 71 34 28 46 -14 10 rcurveline
          -43 -29 -76 -18 -36 hhcurveto
          -68 -61 39 137 -8 hvcurveto
          endchar
        </CharString>
        <CharString name="equal">
          -99 435 321 rmoveto
          -405 -20 405 hlineto
          -135 vmoveto
          -405 -21 405 hlineto
          endchar
        </CharString>
        <CharString name="estimated">
          -64 endchar
        </CharString>
        <CharString name="eth">
          8 527 651 rmoveto
          -8 19 -160 -58 rlineto
          38 -67 -81 22 -91 hhcurveto
          -20 vlineto
          63 57 -23 -44 46 hvcurveto
          -161 -59 9 -20 167 62 rlineto
          55 -63 33 -98 -129 vvcurveto
          228 callsubr
          vhcurveto
          20 vlineto
          229 callgsubr
          64 224 134 -64 115 -105 70 hvcurveto
          endchar
        </CharString>
        <CharString name="exclam">
          -252 65 71 rmoveto
          58 callgsubr
          99 136 rmoveto
          21 129 82 46 77 vvcurveto
          55 -30 55 -80 -83 -29 -55 -56 -79 85 -43 18 -129 vhcurveto
          endchar
        </CharString>
        <CharString name="exclamdown">
          -312 125 569 rmoveto
          -40 -35 -35 -40 -42 35 -34 40 42 34 34 42 40 -34 35 -42 hvcurveto
          9 -185 rmoveto
          -16 hlineto
          -18 -129 -65 -83 -79 vvcurveto
          -56 29 -45 63 60 30 45 55 77 -62 86 -21 129 vhcurveto
          endchar
        </CharString>
        <CharString name="f">
          -132 290 hmoveto
          20 -50 420 130 20 -130 vlineto
          128 9 72 39 27 11 -24 -45 -43 23 -17 31 27 25 18 33 47 -44 51 -100 -139 -59 -78 -142 vhcurveto
          -60 -20 60 -420 -50 -20 hlineto
          endchar
        </CharString>
        <CharString name="f_b">
          341 557 394 133 callsubr
          -150 442 rmoveto
          -598 203 callsubr
          149 callsubr
          232 callgsubr
          rrcurveto
          -86 -43 -43 -64 -103 vvcurveto
          -60 -20 60 -13 callsubr
          endchar
        </CharString>
        <CharString name="f_f">
          188 173 callsubr
          -110 -460 rmoveto
          20 -50 420 160 45 callsubr
          130 20 -130 vlineto
          128 9 72 39 27 11 -24 -45 -43 23 -17 31 27 25 18 33 47 -44 51 -100 -48 -39 -9 -19 -30 vhcurveto
          -79 44 -130 -13 -63 -31 rrcurveto
          -87 -44 -32 -75 -73 vvcurveto
          -60 -20 60 -420 -50 -20 hlineto
          endchar
        </CharString>
        <CharString name="f_f_b">
          657 966 -9 rmoveto
          149 callsubr
          4 callsubr
          -598 203 callsubr
          -560 469 rmoveto
          -166 hlineto
          100 callgsubr
          467 -66 133 callsubr
          endchar
        </CharString>
        <CharString name="f_f_h">
          697 263 callgsubr
          100 callgsubr
          792 -440 rmoveto
          258 vlineto
          127 -61 66 -117 -66 -57 -29 -34 -24 vhcurveto
          262 vlineto
          -113 52 -138 -8 77 callgsubr
          -578 42 callsubr
          351 vlineto
          40 23 33 20 35 hhcurveto
          54 30 -33 -98 hvcurveto
          -280 -67 112 callsubr
          vlineto
          endchar
        </CharString>
        <CharString name="f_f_i">
          383 263 callgsubr
          131 11 48 63 14 vhcurveto
          56 13 66 -31 -23 -77 rrcurveto
          -10 -33 -3 -24 -41 vvcurveto
          467 -440 247 callgsubr
          -307 122 callgsubr
          -11 -6 -11 -6 -10 -6 rrcurveto
          -78 37 -147 -6 28 callsubr
          160 45 callsubr
          167 76 callsubr
        </CharString>
        <CharString name="f_f_j">
          355 173 callsubr
          259 -680 rmoveto
          139 59 78 142 hvcurveto
          460 -307 vlineto
          11 callgsubr
          -11 -6 -11 -6 -10 -6 rrcurveto
          -78 37 -147 -6 28 callsubr
          160 45 callsubr
          157 -440 hlineto
          85 callgsubr
          vhcurveto
          endchar
        </CharString>
        <CharString name="f_f_k">
          687 263 callgsubr
          100 callgsubr
          586 -139 100 callsubr
          4 callsubr
          -578 160 callgsubr
        </CharString>
        <CharString name="f_f_l">
          389 263 callgsubr
          100 callgsubr
          467 -440 rmoveto
          650 4 callsubr
          -578 116 callsubr
        </CharString>
        <CharString name="f_j">
          53 557 460 rmoveto
          -317 68 callsubr
          -440 hlineto
          85 callgsubr
          139 59 78 142 vhcurveto
          endchar
        </CharString>
        <CharString name="f_k">
          371 676 321 100 callsubr
          95 callgsubr
          -50 182 vlineto
          13 12 63 -97 rlineto
          -108 70 48 -9 174 hhcurveto
          20 vlineto
          -28 -44 36 85 -57 hvcurveto
          endchar
        </CharString>
        <CharString name="fi">
          73 557 20 247 callgsubr
          -140 hlineto
          -167 68 callsubr
          76 callsubr
        </CharString>
        <CharString name="five">
          -49 75 248 callsubr
          97 14 -65 -76 -95 -32 -68 -97 79 callsubr
          176 85 77 113 100 -73 67 -167 -66 -48 -21 -19 -20 vhcurveto
          21 189 rlineto
          -52 49 70 -42 80 hhcurveto
          84 38 65 82 31 -2 14 -6 23 hvcurveto
          -10 hlineto
          -64 -28 -37 1 -74 hhcurveto
          -59 -81 8 15 -37 hvcurveto
          endchar
        </CharString>
        <CharString name="fl">
          73 557 20 rmoveto
          650 95 callgsubr
          vlineto
          endchar
        </CharString>
        <CharString name="florin">
          16 215 310 rmoveto
          -127 -20 123 hlineto
          -51 -290 -23 -128 -26 -61 -40 -11 rlinecurve
          -29 -7 6 45 45 vvcurveto
          54 -26 23 -39 -38 -42 -29 -51 9 vhcurveto
          -59 10 56 -41 85 hhcurveto
          139 83 78 142 25 hvcurveto
          51 290 rlineto
          137 20 -133 hlineto
          26 150 23 128 26 61 40 11 rlinecurve
          29 7 -6 -45 -45 vvcurveto
          -58 41 -19 36 38 35 25 55 -10 vhcurveto
          58 -11 -59 42 -85 hhcurveto
          -139 -83 -78 -142 -25 hvcurveto
          endchar
        </CharString>
        <CharString name="four">
          -33 36 163 rmoveto
          208 309 rlineto
          -309 vlineto
          224 66 rmoveto
          -66 -74 419 -100 vlineto
          -284 -419 rlineto
          -20 234 -123 -65 -20 280 251 callgsubr
        </CharString>
        <CharString name="fraction">
          -503 -130 hmoveto
          21 hlineto
          300 561 rlineto
          -21 hlineto
          endchar
        </CharString>
        <CharString name="g">
          -11 362 -69 rmoveto
          111 14 -48 -40 -53 hvcurveto
          -22 -29 -45 -22 -72 hhcurveto
          -111 -84 49 100 20 hvcurveto
          -12 23 28 -5 30 hhcurveto
          67 518 rmoveto
          54 30 -26 -125 -114 -30 -34 -51 -45 -29 35 114 125 30 25 41 hvcurveto
          -65 -388 rmoveto
          0 -36 0 32 vvcurveto
          20 6 15 7 12 vhcurveto
          -7 25 29 -3 29 hhcurveto
          118 121 54 113 65 -36 45 -50 28 hvcurveto
          -33 22 -16 36 30 vvcurveto
          42 24 29 13 5 vhcurveto
          15 6 8 -4 2 -9 1 -6 -5 -5 -3 -6 rrcurveto
          -4 -7 -4 -10 -10 vvcurveto
          -33 23 -31 40 39 24 32 35 39 -29 39 -55 -67 -42 -40 -67 -23 8 -24 15 -20 vhcurveto
          9 -29 -31 5 -30 hhcurveto
          -111 -132 -53 -117 -76 47 -50 68 -25 hvcurveto
          -35 -21 -46 -44 -53 vvcurveto
          -32 13 -23 19 -16 vhcurveto
          -28 -8 -33 -23 -4 -43 rrcurveto
          -82 -8 134 -24 131 hhcurveto
          152 66 92 54 10 hvcurveto
          74 14 -37 62 -125 hhcurveto
          endchar
        </CharString>
        <CharString name="gbreve">
          -26 339 644 91 callgsubr
          3 -713 -73 callgsubr
        </CharString>
        <CharString name="gcircumflex">
          -26 273 554 87 callsubr
          177 -583 -73 callgsubr
        </CharString>
        <CharString name="gdotaccent">
          -26 278 520 rmoveto
          88 callgsubr
          84 -589 -73 callgsubr
        </CharString>
        <CharString name="germandbls">
          130 359 659 rmoveto
          71 41 -33 -52 10 hvcurveto
          10 -53 -21 -42 -38 -21 -92 -51 -60 -37 20 -83 rrcurveto
          29 -119 229 48 -140 vvcurveto
          -49 -41 -18 -38 -36 -52 11 30 vhcurveto
          25 43 -1 44 vvcurveto
          32 -26 25 -39 -45 -23 -33 -37 -72 85 -44 92 108 98 67 94 165 -228 -24 -46 78 vhcurveto
          -14 24 15 30 36 19 95 51 72 34 -20 64 rrcurveto
          67 -21 -118 22 -97 hhcurveto
          -129 -139 -58 -162 hvcurveto
          -50 -20 50 82 callgsubr
          440 hlineto
          135 42 64 77 vhcurveto
          endchar
        </CharString>
        <CharString name="grave">
          -25 339 47 callsubr
          endchar
        </CharString>
        <CharString name="grave.cap">
          -25 339 611 -64 callsubr
          endchar
        </CharString>
        <CharString name="greater">
          -81 30 22 rmoveto
          423 214 rlineto
          13 vlineto
          -423 212 rlineto
          -22 vlineto
          392 -197 -392 -197 rlineto
          endchar
        </CharString>
        <CharString name="greaterequal">
          -81 453 31 rmoveto
          -423 -20 423 hlineto
          -423 125 rmoveto
          423 154 rlineto
          13 vlineto
          -423 152 rlineto
          -22 vlineto
          387 -137 -387 -137 rlineto
          endchar
        </CharString>
        <CharString name="guillemotleft">
          -130 394 88 52 callsubr
          -158 12 52 callsubr
          endchar
        </CharString>
        <CharString name="guillemotright">
          -141 212 76 53 callsubr
          -148 -12 53 callsubr
          endchar
        </CharString>
        <CharString name="guilsinglleft">
          -300 224 88 52 callsubr
          endchar
        </CharString>
        <CharString name="guilsinglright">
          -300 52 76 53 callsubr
          endchar
        </CharString>
        <CharString name="h">
          81 565 20 99 callgsubr
        </CharString>
        <CharString name="hbar">
          81 565 20 rmoveto
          258 vlineto
          127 -61 66 -117 -66 -57 -29 -34 -24 vhcurveto
          154 160 20 -160 88 93 callgsubr
          -68 -50 -20 50 -542 42 callsubr
          351 vlineto
          40 23 33 20 35 hhcurveto
          54 30 -33 -98 hvcurveto
          -280 116 callsubr
        </CharString>
        <CharString name="hcircumflex">
          81 160 751 87 callsubr
          493 -691 99 callgsubr
        </CharString>
        <CharString name="hungarumlaut">
          97 350 500 -52 callsubr
        </CharString>
        <CharString name="hungarumlaut.cap">
          97 350 600 -52 callsubr
        </CharString>
        <CharString name="hyphen">
          -313 40 198 rmoveto
          171 76 -171 hlineto
          endchar
        </CharString>
        <CharString name="i">
          -244 162 505 rmoveto
          125 callsubr
          78 -485 247 callgsubr
          -180 -20 40 76 callsubr
        </CharString>
        <CharString name="i.alt">
          -234 6 callsubr
          465 vlineto
          25 22 17 34 50 vvcurveto
          64 -35 55 -88 -1 vhcurveto
          -68 -1 -44 -64 190 callsubr
          11 20 41 1 rrcurveto
          58 1 43 -31 -69 vvcurveto
          0 9 -130 -164 vhcurveto
          -66 -20 50 76 callsubr
        </CharString>
        <CharString name="iacute">
          -244 124 501 rmoveto
          35 51 49 -23 28 39 -84 callsubr
          130 -491 97 callgsubr
        </CharString>
        <CharString name="ibreve">
          -244 236 645 91 callgsubr
          -16 -625 97 callgsubr
        </CharString>
        <CharString name="icircumflex">
          -244 165 554 87 callsubr
          163 -494 97 callgsubr
        </CharString>
        <CharString name="idieresis">
          -244 241 521 rmoveto
          36 26 27 34 35 -26 28 -36 -33 -28 -28 -35 -34 28 -27 33 hvcurveto
          -109 61 34 callgsubr
          108 -122 rmoveto
          -10 hlineto
          -140 hlineto
          -40 -20 40 82 callgsubr
          hlineto
          endchar
        </CharString>
        <CharString name="igrave">
          -244 200 47 callsubr
          54 -481 247 callgsubr
          -180 -20 40 76 callsubr
        </CharString>
        <CharString name="ij">
          97 514 505 rmoveto
          125 callsubr
          -352 hmoveto
          125 callsubr
          128 -485 rmoveto
          -50 440 -10 hlineto
          -180 -20 40 -420 -50 -20 250 hlineto
          300 460 rmoveto
          93 callgsubr
          -515 hlineto
          132 callsubr
          endchar
        </CharString>
        <CharString name="imacron">
          -244 264 607 120 callgsubr
          -24 -537 97 callgsubr
        </CharString>
        <CharString name="infinity">
          192 498 56 -46 callsubr
          311 401 rmoveto
          -67 -67 -20 -72 -50 hvcurveto
          18 callgsubr
          126 47 101 121 116 -59 85 -126 hvcurveto
          endchar
        </CharString>
        <CharString name="iogonek">
          -244 162 505 rmoveto
          125 callsubr
          128 -505 rmoveto
          20 -50 255 callgsubr
          -180 -20 40 -420 -50 -20 126 hlineto
          -118 -124 52 -59 62 16 callgsubr
          -23 17 -7 35 50 69 rrcurveto
          endchar
        </CharString>
        <CharString name="itfLogo">
          1084 147 hmoveto
          150 callgsubr
          236 -634 rmoveto
          150 callgsubr
          236 -634 rmoveto
          150 callgsubr
          -410 vmoveto
          196 185 -196 hlineto
          endchar
        </CharString>
        <CharString name="itfStar">
          108 663 452 rmoveto
          -28 -200 -6 -2 -34 hvcurveto
          -66 246 -8 -27 -53 -188 -8 -31 rlinecurve
          -261 8 25 -15 168 -108 28 -17 rlinecurve
          -96 -247 24 20 152 128 29 20 rlinecurve
          204 -168 -11 28 -71 189 -12 30 rlinecurve
          endchar
        </CharString>
        <CharString name="itilde">
          -244 244 628 77 callsubr
          -24 -608 247 callgsubr
          -180 -20 40 76 callsubr
        </CharString>
        <CharString name="j">
          -232 262 592 rmoveto
          49 -39 40 -48 -49 -40 -40 -49 -48 40 -39 49 48 39 39 48 vhcurveto
          -162 -592 rmoveto
          85 callgsubr
          139 59 78 142 vhcurveto
          460 93 callgsubr
          vlineto
          endchar
        </CharString>
        <CharString name="j.alt">
          -223 60 460 rmoveto
          -20 50 -515 vlineto
          132 callsubr
          531 vlineto
          24 22 17 33 49 vvcurveto
          64 -43 58 -81 -6 vhcurveto
          -76 -6 -35 -57 190 callsubr
          12 17 40 4 rrcurveto
          58 6 43 -46 -59 vvcurveto
          0 6 -130 -161 vhcurveto
          endchar
        </CharString>
        <CharString name="jcircumflex">
          -251 68 150 callsubr
          31 -523 rmoveto
          85 callgsubr
          139 59 78 142 vhcurveto
          460 93 callgsubr
          vlineto
          endchar
        </CharString>
        <CharString name="k">
          54 359 321 89 callsubr
        </CharString>
        <CharString name="l">
          -244 240 20 224 callsubr
        </CharString>
        <CharString name="lacute">
          -244 126 715 rmoveto
          35 51 49 -23 28 39 -84 callsubr
          128 -705 224 callsubr
        </CharString>
        <CharString name="lcaron">
          -156 220 callgsubr
          65 470 70 callsubr
          endchar
        </CharString>
        <CharString name="ldot">
          -142 220 callgsubr
          136 364 rmoveto
          -39 -33 -33 -39 -39 33 -33 39 40 32 33 39 39 -32 33 -40 hvcurveto
          endchar
        </CharString>
        <CharString name="less">
          -81 453 45 rmoveto
          -392 197 392 197 rlineto
          22 vlineto
          -423 -212 rlineto
          -13 vlineto
          423 -214 rlineto
          endchar
        </CharString>
        <CharString name="lessequal">
          -81 454 11 rmoveto
          20 -423 -20 vlineto
          36 285 rmoveto
          387 137 rlineto
          22 vlineto
          -423 -152 rlineto
          -13 vlineto
          423 -154 rlineto
          23 vlineto
          endchar
        </CharString>
        <CharString name="logicalnot">
          -59 465 245 rmoveto
          -425 -20 405 -226 20 hlineto
          endchar
        </CharString>
        <CharString name="lozenge">
          -151 373 268 rmoveto
          -166 273 -167 -273 167 -272 rlineto
          495 vmoveto
          133 -223 -133 -222 -133 222 rlineto
          endchar
        </CharString>
        <CharString name="lslash">
          -204 330 445 rmoveto
          25 vlineto
          -70 -46 rlineto
          246 93 callgsubr
          -324 vlineto
          -70 -46 rlineto
          -25 vlineto
          70 46 rlineto
          -281 42 callsubr
          379 vlineto
          endchar
        </CharString>
        <CharString name="m">
          396 880 20 rmoveto
          258 vlineto
          127 -61 66 -117 -62 -63 -24 -43 -35 vhcurveto
          47 -25 -47 20 -83 hhcurveto
          -66 -57 -30 -33 -24 hvcurveto
          52 -200 -20 50 82 callgsubr
          351 vlineto
          40 23 33 20 35 hhcurveto
          54 30 -33 -98 hvcurveto
          -280 -60 -20 260 20 -50 258 vlineto
          40 -3 33 -9 27 vhcurveto
          35 24 38 18 31 hhcurveto
          54 30 -33 -98 hvcurveto
          -280 116 callsubr
        </CharString>
        <CharString name="macron">
          36 400 607 120 callgsubr
          endchar
        </CharString>
        <CharString name="macron.cap">
          36 400 707 120 callgsubr
          endchar
        </CharString>
        <CharString name="minus">
          -59 465 245 rmoveto
          -425 -20 425 hlineto
          endchar
        </CharString>
        <CharString name="multiply">
          -169 212 230 rmoveto
          143 143 -15 14 -142 -143 -143 143 -14 -14 142 -143 -143 -143 14 -14 144 143 143 -143 14 14 rlineto
          endchar
        </CharString>
        <CharString name="n">
          81 565 20 -30 callsubr
        </CharString>
        <CharString name="nacute">
          81 274 501 rmoveto
          35 51 49 -23 28 39 -84 callsubr
          305 -491 -30 callsubr
        </CharString>
        <CharString name="ncaron">
          81 316 514 171 callsubr
          268 -494 -30 callsubr
        </CharString>
        <CharString name="nine">
          -13 180 412 rmoveto
          91 21 65 61 67 31 -77 -180 2 vhcurveto
          -21 -23 -27 -15 -35 hhcurveto
          -66 -31 57 80 hvcurveto
          83 176 rmoveto
          -143 -80 -72 -115 -102 84 -56 116 54 41 17 23 27 hvcurveto
          -154 6 -117 -132 -30 -49 11 25 -7 vhcurveto
          -10 37 88 18 -34 72 -15 32 -38 13 -39 -16 -44 -18 -7 -48 16 -49 rrcurveto
          -74 24 90 -27 56 hhcurveto
          188 96 117 187 191 -81 105 -177 hvcurveto
          endchar
        </CharString>
        <CharString name="notequal">
          -59 465 301 rmoveto
          20 -121 vlineto
          48 54 -15 14 -60 -68 rlineto
          -277 -20 259 hlineto
          -121 -136 rlineto
          -138 -20 121 hlineto
          -66 -74 14 -13 78 87 rlineto
          278 20 -260 hlineto
          121 136 rlineto
          endchar
        </CharString>
        <CharString name="ntilde">
          81 428 628 77 callsubr
          117 -608 -30 callsubr
        </CharString>
        <CharString name="numbersign">
          -63 314 197 rmoveto
          -170 hlineto
          55 176 rlineto
          169 hlineto
          126 hmoveto
          20 -99 vlineto
          54 173 rlineto
          -21 hlineto
          -54 -173 rlineto
          -169 hlineto
          54 175 rlineto
          -21 hlineto
          -54 -175 rlineto
          -123 -20 117 hlineto
          -55 -176 rlineto
          -103 -20 97 hlineto
          -52 -168 rlineto
          21 hlineto
          52 168 rlineto
          170 hlineto
          -53 -170 rlineto
          21 hlineto
          53 170 rlineto
          119 20 -113 hlineto
          54 176 rlineto
          endchar
        </CharString>
        <CharString name="o">
          -77 callgsubr
          endchar
        </CharString>
        <CharString name="oacute">
          -77 callgsubr
          -34 501 -74 callgsubr
        </CharString>
        <CharString name="obreve">
          -77 callgsubr
          1 586 -33 callgsubr
        </CharString>
        <CharString name="ocircumflex">
          -77 callgsubr
          -89 504 -47 callsubr
          endchar
        </CharString>
        <CharString name="odieresis">
          -77 callgsubr
          -12 572 19 callsubr
        </CharString>
        <CharString name="oe">
          310 281 10 rmoveto
          -73 -25 65 153 157 25 65 73 73 27 -65 -157 -153 -27 -65 -73 hvcurveto
          254 210 rmoveto
          11 vlineto
          92 17 127 64 63 19 -128 -102 vhcurveto
          143 -20 rmoveto
          205 -112 65 -105 -61 -63 -18 -42 -46 vhcurveto
          41 -49 -65 264 callgsubr
          -164 136 -74 115 59 64 19 41 50 hvcurveto
          -47 51 73 -13 68 hhcurveto
          71 81 35 50 30 hvcurveto
          -14 10 rlineto
          -43 -29 -76 -18 -36 hhcurveto
          -68 -61 39 137 -8 hvcurveto
          endchar
        </CharString>
        <CharString name="ogonek">
          -16 288 11 rmoveto
          -125 -139 53 -63 64 16 callgsubr
          -23 17 -7 35 51 70 rrcurveto
          endchar
        </CharString>
        <CharString name="ogonek.cap">
          -17 288 11 rmoveto
          -125 -139 53 -63 64 16 callgsubr
          -23 17 -7 35 51 70 rrcurveto
          endchar
        </CharString>
        <CharString name="ograve">
          -77 callgsubr
          28 501 -64 callsubr
          endchar
        </CharString>
        <CharString name="ohungarumlaut">
          -77 callgsubr
          49 490 -52 callsubr
        </CharString>
        <CharString name="omacron">
          -77 callgsubr
          100 597 120 callgsubr
          endchar
        </CharString>
        <CharString name="one">
          -187 277 20 rmoveto
          562 -36 vlineto
          -201 -93 6 -19 81 31 rlineto
          -481 -80 -20 300 20 vlineto
          endchar
        </CharString>
        <CharString name="onehalf">
          -5 135 callsubr
          89 -458 rmoveto
          -28 -3 -22 -2 -26 -26 -20 13 -31 hhcurveto
          -12 -13 -3 -7 -9 hvcurveto
          35 51 131 -16 106 vvcurveto
          49 -50 28 -68 -58 -37 -32 -40 -25 16 -19 24 23 13 15 17 vhcurveto
          40 -43 -11 20 vvcurveto
          14 24 9 21 37 17 -26 -34 -56 -65 -35 -45 -59 vhcurveto
          -13 -18 -13 -28 -2 -26 rrcurveto
          10 hlineto
          21 5 12 12 20 36 32 -38 49 hhcurveto
          44 16 39 37 11 -1 11 -3 10 hvcurveto
          endchar
        </CharString>
        <CharString name="onequarter">
          -25 135 callsubr
          -150 127 callgsubr
        </CharString>
        <CharString name="onesuperior">
          -351 145 335 rmoveto
          225 -25 vlineto
          -80 -37 2 -15 33 12 rlineto
          -185 -32 -18 130 18 vlineto
          endchar
        </CharString>
        <CharString name="oslash">
          0 378 308 30 callsubr
        </CharString>
        <CharString name="oslashacute">
          0 284 501 rmoveto
          35 51 49 -23 28 39 -84 callsubr
          108 -203 30 callsubr
        </CharString>
        <CharString name="otilde">
          -77 callgsubr
          -79 527 -45 callsubr
          endchar
        </CharString>
        <CharString name="p">
          14 220 414 rmoveto
          46 93 callgsubr
          -650 200 20 -50 236 vlineto
          -48 23 56 -20 50 hhcurveto
          103 96 84 168 160 -98 82 -101 -50 -50 -8 -50 -29 hvcurveto
          -173 vmoveto
          144 13 47 64 65 34 -46 -155 -155 -52 -54 -57 -23 -25 16 38 -19 vhcurveto
          endchar
        </CharString>
        <CharString name="paragraph">
          -97 447 173 callgsubr
          -260 0 vlineto
          -109 -1 -58 -41 -116 vvcurveto
          -110 58 -56 109 -2 vhcurveto
          -214 -60 -20 80 540 160 -540 80 20 -60 520 vlineto
          endchar
        </CharString>
        <CharString name="parenleft">
          -245 40 285 rmoveto
          -212 146 -138 123 -17 vhcurveto
          20 vlineto
          -81 38 -48 126 183 vvcurveto
          183 48 126 81 38 vhcurveto
          20 vlineto
          -123 -17 -146 -138 -212 vvcurveto
          endchar
        </CharString>
        <CharString name="parenright">
          -245 279 285 rmoveto
          212 -146 138 -123 17 vhcurveto
          -20 vlineto
          81 -38 48 -126 -183 vvcurveto
          -183 -48 -126 -81 -38 vhcurveto
          -20 vlineto
          123 17 146 138 212 vvcurveto
          endchar
        </CharString>
        <CharString name="partialdiff">
          36 340 450 rmoveto
          229 callgsubr
          54 234 234 -177 190 -254 hvcurveto
          -20 vlineto
          151 118 -152 -252 228 callsubr
          hvcurveto
          endchar
        </CharString>
        <CharString name="percent">
          66 319 445 53 callgsubr
          -24 -548 264 callsubr
          142 -439 53 callgsubr
          endchar
        </CharString>
        <CharString name="period">
          -309 36 71 rmoveto
          58 callgsubr
          endchar
        </CharString>
        <CharString name="periodcentered">
          -339 113 145 rmoveto
          125 callgsubr
          endchar
        </CharString>
        <CharString name="perthousand">
          362 906 128 53 callgsubr
          -587 317 rmoveto
          34 13 -32 -72 -72 -12 -45 -34 -38 -12 44 73 73 17 31 32 hvcurveto
          410 -422 rmoveto
          75 -52 50 -87 -89 -51 -56 -73 -76 41 -55 96 98 44 59 76 vhcurveto
          -434 -126 264 callsubr
          3 -334 rmoveto
          34 13 -32 -72 -72 -12 -45 -34 -38 -12 44 73 73 17 31 32 hvcurveto
          -132 212 rmoveto
          75 -52 50 -87 -89 -51 -56 -73 -76 41 -55 96 98 44 59 76 vhcurveto
          endchar
        </CharString>
        <CharString name="plus">
          -79 252 242 rmoveto
          212 -20 -212 -212 -20 212 -213 20 213 213 20 vlineto
          endchar
        </CharString>
        <CharString name="plusminus">
          -59 262 302 rmoveto
          192 -20 -192 -202 -20 202 -193 20 193 203 20 vlineto
          -263 vmoveto
          -425 -20 425 hlineto
          endchar
        </CharString>
        <CharString name="product">
          -64 606 173 callgsubr
          -566 163 callgsubr
          520 166 -520 220 callsubr
        </CharString>
        <CharString name="q">
          14 358 241 rmoveto
          -165 vlineto
          -38 -19 -25 -16 -23 hhcurveto
          -57 -52 54 155 155 34 46 65 64 13 -47 -144 hvcurveto
          173 vmoveto
          50 -29 -50 8 -50 hhcurveto
          -101 -98 -82 -160 -168 96 -84 103 50 56 20 48 23 hvcurveto
          -236 42 callsubr
          630 50 20 -200 vlineto
          endchar
        </CharString>
        <CharString name="question">
          -113 110 71 rmoveto
          58 callgsubr
          93 499 rmoveto
          -118 -75 -63 -73 -45 31 -35 47 27 32 27 32 hvcurveto
          64 -64 -11 36 vvcurveto
          18 57 23 43 46 56 -24 -77 -18 vhcurveto
          -15 -65 -108 -14 -10 -75 -5 -41 22 -30 39 -22 rrcurveto
          17 hlineto
          -30 126 231 -54 13 158 rrcurveto
          107 9 -120 38 -107 hhcurveto
          endchar
        </CharString>
        <CharString name="questiondown">
          -113 250 588 rmoveto
          -42 -35 -35 -40 -42 35 -34 42 40 35 34 42 40 -35 35 -40 hvcurveto
          -1 -596 rmoveto
          118 75 67 78 49 -31 37 -47 -37 -32 -29 -34 hvcurveto
          -77 74 20 -38 vvcurveto
          -25 -37 -24 -43 -56 -48 34 79 vhcurveto
          89 113 25 61 vvcurveto
          35 -7 21 -29 43 vhcurveto
          -17 hlineto
          -45 -23 -23 -26 -21 vhcurveto
          -51 -40 -107 -9 -7 -108 rrcurveto
          -124 -9 110 -41 117 hhcurveto
          endchar
        </CharString>
        <CharString name="quotedbl">
          -302 71 451 rmoveto
          144 callgsubr
          144 hmoveto
          144 callgsubr
          endchar
        </CharString>
        <CharString name="quotedblbase">
          -130 273 -143 -14 callsubr
          -213 -17 -14 callsubr
          endchar
        </CharString>
        <CharString name="quotedblleft">
          -131 381 708 71 callsubr
          -227 17 71 callsubr
          endchar
        </CharString>
        <CharString name="quotedblright">
          -131 53 428 -14 callsubr
          227 -17 -14 callsubr
          endchar
        </CharString>
        <CharString name="quoteleft">
          -366 151 708 71 callsubr
          endchar
        </CharString>
        <CharString name="quoteright">
          -366 43 428 -14 callsubr
          endchar
        </CharString>
        <CharString name="quotesinglbase">
          -360 43 -142 -14 callsubr
          endchar
        </CharString>
        <CharString name="quotesingle">
          -383 100 451 rmoveto
          144 callgsubr
          endchar
        </CharString>
        <CharString name="r">
          -3 callgsubr
          endchar
        </CharString>
        <CharString name="racute">
          -3 callgsubr
          170 511 -74 callgsubr
        </CharString>
        <CharString name="radical">
          6 530 560 rmoveto
          -226 hlineto
          -143 -534 -100 266 rlineto
          -21 hlineto
          110 -292 rlineto
          26 hlineto
          145 540 rlineto
          209 hlineto
          endchar
        </CharString>
        <CharString name="rcaron">
          -3 callgsubr
          129 651 -22 callgsubr
          endchar
        </CharString>
        <CharString name="registered">
          38 301 533 152 callsubr
          271 -251 152 callgsubr
          -293 136 rmoveto
          51 23 -16 -45 -36 -22 -23 -52 hvcurveto
          -19 vmoveto
          79 -46 -143 100 hhcurveto
          13 28 4 7 13 hvcurveto
          -1 7 rlineto
          -63 42 136 -112 hhcurveto
          63 4 28 27 39 vvcurveto
          57 -50 19 -83 vhcurveto
          -105 -19 28 -255 -28 -19 125 19 -31 hlineto
          endchar
        </CharString>
        <CharString name="ring">
          4 283 535 -2 callsubr
        </CharString>
        <CharString name="ring.cap">
          4 283 635 -2 callsubr
        </CharString>
        <CharString name="s">
          -89 -71 callgsubr
          endchar
        </CharString>
        <CharString name="sacute">
          -88 -71 callgsubr
          -50 503 -74 callgsubr
        </CharString>
        <CharString name="scaron">
          -88 -71 callgsubr
          -111 643 -22 callgsubr
          endchar
        </CharString>
        <CharString name="scircumflex">
          -88 -71 callgsubr
          -111 506 -47 callsubr
          endchar
        </CharString>
        <CharString name="section">
          -175 143 256 rmoveto
          -65 28 -6 56 66 7 102 -44 rcurveline
          65 -27 6 -57 -69 -6 rrcurveto
          -62 264 rmoveto
          24 -52 4 49 59 hhcurveto
          52 51 -29 -73 23 hvcurveto
          20 114 -15 hlineto
          -10 -5 -10 -16 vhcurveto
          -23 -37 28 -50 hhcurveto
          -82 -45 -42 -53 -9 hvcurveto
          -7 -46 20 -42 46 -28 -107 -27 -30 -136 123 -59 113 -53 rcurveline
          -26 52 4 -48 -78 hhcurveto
          -52 -50 30 81 -24 hvcurveto
          -20 -124 16 hlineto
          10 3 11 15 vhcurveto
          25 28 -28 59 hhcurveto
          83 45 41 54 8 hvcurveto
          7 48 -20 41 -48 27 112 26 39 136 -125 60 rrcurveto
          endchar
        </CharString>
        <CharString name="semicolon">
          -300 140 callsubr
          -31 504 rmoveto
          58 callgsubr
          endchar
        </CharString>
        <CharString name="seven">
          -92 409 485 rmoveto
          -77 -176 -203 -15 -198 vvcurveto
          -59 29 -49 67 51 37 49 44 vhcurveto
          40 -18 29 42 174 157 9 224 vvcurveto
          -17 hlineto
          -38 -7 -12 -27 -37 -66 -90 58 -96 hhcurveto
          -83 -34 -59 -73 -22 3 -43 6 -23 hvcurveto
          11 hlineto
          42 2 24 33 39 51 66 -23 62 hhcurveto
          62 42 17 47 28 hvcurveto
          endchar
        </CharString>
        <CharString name="six">
          -13 289 8 rmoveto
          -67 -31 77 180 -2 hvcurveto
          21 23 27 15 35 hhcurveto
          66 31 -57 -80 -91 -21 -65 -61 hvcurveto
          22 325 rmoveto
          -54 -41 -17 -23 -27 hvcurveto
          154 -6 117 132 30 49 -11 -25 7 vhcurveto
          10 -37 -88 -18 34 -72 15 -32 38 -13 39 16 44 18 7 48 -16 49 rrcurveto
          74 -24 -90 27 -56 hhcurveto
          -188 -96 -117 -187 -191 81 -105 177 143 80 72 115 102 -84 56 -116 hvcurveto
          endchar
        </CharString>
        <CharString name="slash">
          -300 40 1 rmoveto
          19 -6 165 564 -18 5 rlineto
          endchar
        </CharString>
        <CharString name="space">
          -349 endchar
        </CharString>
        <CharString name="sterling">
          -61 454 204 rmoveto
          -55 -7 -43 -25 -52 -53 -39 26 -62 hhcurveto
          -21 -25 -8 -13 -20 hvcurveto
          -3 6 42 24 63 43 8 70 rlinecurve
          138 20 -137 hlineto
          -2 59 -33 25 70 vvcurveto
          64 35 54 65 50 33 -25 -21 vhcurveto
          219 callgsubr
          -112 -91 -69 -107 -61 21 -26 17 -33 vhcurveto
          -59 -20 67 hlineto
          5 -15 4 -17 -23 -88 -78 -14 -116 vvcurveto
          20 hlineto
          42 9 25 33 39 72 45 -85 191 callsubr
        </CharString>
        <CharString name="summation">
          -64 453 hmoveto
          230 -20 vlineto
          -96 -23 -14 -127 vhcurveto
          -153 hlineto
          208 218 -164 202 rlineto
          106 67 callgsubr
          170 -450 -20 hlineto
          227 -282 -223 -236 rlineto
          -22 vlineto
          endchar
        </CharString>
        <CharString name="t">
          -203 224 440 32 callgsubr
        </CharString>
        <CharString name="tbar">
          -183 234 270 rmoveto
          116 20 -116 150 116 20 -116 143 -14 hlineto
          -20 -85 -56 -48 -60 -10 rrcurveto
          -74 -20 74 -150 -74 -20 74 -97 hlineto
          -146 70 -37 102 47 31 15 19 27 vhcurveto
          20 vlineto
          -8 -12 -20 -2 -21 hhcurveto
          -74 0 84 78 hvcurveto
          endchar
        </CharString>
        <CharString name="tcaron">
          -176 275 490 70 callsubr
          -46 -62 32 callgsubr
        </CharString>
        <CharString name="thorn">
          34 240 387 rmoveto
          39 19 25 19 23 hhcurveto
          57 52 -61 -155 -155 -55 -56 -54 -23 -26 14 36 -18 hvcurveto
          602 vmoveto
          93 callgsubr
          -840 42 callsubr
          236 hlineto
          -50 23 56 -8 50 hhcurveto
          101 98 82 160 168 -96 84 -103 -50 -56 -20 -48 -23 hvcurveto
          endchar
        </CharString>
        <CharString name="three">
          -38 222 183 callsubr
          38 -51 -66 -48 -24 -76 -96 vhcurveto
          -16 -20 16 hlineto
          115 31 -49 -91 -95 -53 -60 -77 79 callsubr
          167 95 218 callgsubr
          -71 48 -157 vhcurveto
          endchar
        </CharString>
        <CharString name="threequarters">
          35 100 428 rmoveto
          -10 8 vlineto
          57 16 -25 -45 -48 -27 -30 -38 -23 -24 9 15 hvcurveto
          19 47 -13 41 vvcurveto
          17 -13 16 -22 -26 -15 -19 -26 -42 33 -29 59 84 47 34 56 47 -42 28 -60 vhcurveto
          56 3 28 30 35 vvcurveto
          45 -35 24 -79 -53 -31 -30 -36 -25 15 -16 22 20 11 14 15 vhcurveto
          36 -40 -11 17 vvcurveto
          13 15 11 25 34 19 -25 -33 -24 -12 -38 -48 vhcurveto
          342 133 rmoveto
          -300 -561 rlineto
          21 hlineto
          300 561 rlineto
          -140 127 callgsubr
        </CharString>
        <CharString name="threesuperior">
          -306 113 567 rmoveto
          -43 -24 -24 -29 -20 11 -12 18 16 9 11 12 hvcurveto
          25 -32 -9 14 vvcurveto
          10 12 10 20 27 15 -18 -26 -19 -10 -28 -38 vhcurveto
          -6 -14 6 hlineto
          46 12 -16 -37 -38 -21 -19 -31 -18 -19 7 12 hvcurveto
          16 38 -11 28 vvcurveto
          14 -11 12 -18 -20 -12 -15 -21 -33 26 -23 48 66 38 26 46 37 -34 22 -47 1 vhcurveto
          45 2 22 24 28 vvcurveto
          36 -28 19 -63 vhcurveto
          endchar
        </CharString>
        <CharString name="tilde">
          34 220 537 -45 callsubr
          endchar
        </CharString>
        <CharString name="tilde.cap">
          34 220 630 -45 callsubr
          endchar
        </CharString>
        <CharString name="trademark">
          196 130 396 rmoveto
          -37 -10 145 10 -38 263 hlineto
          51 41 -15 -63 4 hvcurveto
          12 89 -288 -89 10 hlineto
          63 6 44 15 50 hhcurveto
          238 -263 rmoveto
          -37 -10 85 10 -36 266 1 hlineto
          111 -279 rlineto
          12 hlineto
          107 279 rlineto
          1 -266 -36 -10 144 10 -36 263 36 11 -120 hlineto
          -71 -181 -75 181 rlineto
          -123 -11 37 hlineto
          endchar
        </CharString>
        <CharString name="two">
          -36 460 205 rmoveto
          -55 -7 -43 -5 -52 -53 -39 26 -62 hhcurveto
          -24 -26 -5 -15 -18 hvcurveto
          69 103 263 -33 212 vvcurveto
          98 -101 108 callsubr
          23 39 72 65 -75 191 callsubr
        </CharString>
        <CharString name="twosuperior">
          -305 212 412 rmoveto
          -22 -3 -17 -2 -21 -21 -16 10 -24 hhcurveto
          -8 -10 -2 -6 -8 hvcurveto
          28 42 103 -14 85 vvcurveto
          39 -40 23 -54 -47 -29 -25 -32 -21 13 -15 19 18 10 12 14 vhcurveto
          32 -34 -10 12 vvcurveto
          10 19 8 17 29 14 -21 -21 -46 -52 -28 -36 -47 vhcurveto
          -10 -14 -10 -22 -2 -21 rrcurveto
          13 hlineto
          20 9 6 15 vhcurveto
          29 26 -30 39 hhcurveto
          35 13 31 30 9 -1 8 -2 8 hvcurveto
          endchar
        </CharString>
        <CharString name="u">
          51 -72 callgsubr
          endchar
        </CharString>
        <CharString name="uacute">
          56 -72 callgsubr
          -135 458 -74 callgsubr
        </CharString>
        <CharString name="ubreve">
          56 -72 callgsubr
          -97 543 -33 callgsubr
        </CharString>
        <CharString name="ucircumflex">
          56 -72 callgsubr
          -189 461 -47 callsubr
          endchar
        </CharString>
        <CharString name="udieresis">
          56 -72 callgsubr
          -69 529 19 callsubr
        </CharString>
        <CharString name="ugrave">
          56 -72 callgsubr
          -86 458 -64 callsubr
          endchar
        </CharString>
        <CharString name="uhungarumlaut">
          56 -72 callgsubr
          -35 447 -52 callsubr
        </CharString>
        <CharString name="umacron">
          56 -72 callgsubr
          10 554 120 callgsubr
          endchar
        </CharString>
        <CharString name="underscore">
          -42 30 -64 240 callsubr
        </CharString>
        <CharString name="uni00B5">
          31 535 20 rmoveto
          440 93 callgsubr
          -351 vlineto
          -5 callsubr
          -650 150 200 vlineto
          -1 9 9 0 10 hhcurveto
          66 57 30 34 24 hvcurveto
          -53 200 20 vlineto
          endchar
        </CharString>
        <CharString name="uni0122">
          -52 callgsubr
          -235 -294 24 callgsubr
        </CharString>
        <CharString name="uni0123">
          -26 308 729 rmoveto
          -74 -34 -41 -52 -61 vvcurveto
          -39 26 -42 51 39 26 28 36 39 -30 18 -25 vhcurveto
          -15 -3 -5 -12 hhcurveto
          -7 -6 5 8 32 32 28 44 26 hvcurveto
          49 -785 -73 callgsubr
        </CharString>
        <CharString name="uni0136">
          76 315 -240 -80 callgsubr
          280 244 93 callsubr
        </CharString>
        <CharString name="uni0137">
          54 325 -240 -80 callgsubr
          42 545 89 callsubr
        </CharString>
        <CharString name="uni013B">
          -44 245 -240 -80 callgsubr
          253 414 30 callgsubr
        </CharString>
        <CharString name="uni013C">
          -244 135 -240 -80 callgsubr
          113 244 224 callsubr
        </CharString>
        <CharString name="uni0145">
          34 488 -10 -4 callsubr
          195 -711 24 callgsubr
        </CharString>
        <CharString name="uni0146">
          81 312 -240 -80 callgsubr
          261 244 -30 callsubr
        </CharString>
        <CharString name="uni0156">
          -35 callsubr
          105 -522 24 callgsubr
        </CharString>
        <CharString name="uni0157">
          -3 callgsubr
          97 -240 24 callgsubr
        </CharString>
        <CharString name="uni015E">
          -51 470 387 rmoveto
          183 -20 vlineto
          -14 -4 -21 -16 vhcurveto
          -30 -42 35 -98 hhcurveto
          -94 -80 -59 -104 -10 hvcurveto
          -11 -116 87 -34 109 -49 rrcurveto
          80 -36 60 -26 -53 vvcurveto
          -53 -37 -33 -52 -129 -103 101 125 vhcurveto
          -20 -233 20 hlineto
          28 15 12 22 30 41 -38 -13 78 vhcurveto
          -44 -81 rlineto
          -9 callgsubr
          35 63 rcurveline
          -1 8 8 0 8 hhcurveto
          118 73 57 109 11 hvcurveto
          10 132 -110 35 -90 42 rrcurveto
          -73 34 -73 16 63 vvcurveto
          44 29 33 50 110 79 -67 -96 vhcurveto
          endchar
        </CharString>
        <CharString name="uni015F">
          -88 202 -92 rmoveto
          -9 callgsubr
          36 65 rcurveline
          127 4 56 64 84 187 -325 -54 114 vvcurveto
          33 39 30 56 53 56 -10 -24 -23 -29 -4 -2 -35 vhcurveto
          -2 -31 31 -24 31 1 48 1 10 43 -4 30 rrcurveto
          58 -8 -67 38 -117 hhcurveto
          -101 -85 -55 -86 -8 hvcurveto
          -20 -205 352 60 -119 vvcurveto
          -36 -30 -21 -74 -63 -83 16 29 22 29 5 2 35 vhcurveto
          2 31 -31 24 -31 -1 -48 -1 -10 -44 4 -29 8 -58 78 -46 128 -3 rrcurveto
          endchar
        </CharString>
        <CharString name="uni0162">
          50 callgsubr
          -264 -630 24 callgsubr
        </CharString>
        <CharString name="uni0163">
          -203 185 -240 -80 callgsubr
          47 664 32 callgsubr
        </CharString>
        <CharString name="uni0218">
          -51 245 -240 -80 callgsubr
          -157 224 rmoveto
          -66 callsubr
          endchar
        </CharString>
        <CharString name="uni0219">
          -88 -71 callgsubr
          -64 -248 24 callgsubr
        </CharString>
        <CharString name="uni0901">
          -564 9 802 rmoveto
          -11 callsubr
          -2 2 rlineto
          -101 53 rmoveto
          38 -30 30 -38 -38 -31 -30 -38 -38 31 -31 38 38 30 31 38 vhcurveto
          endchar
        </CharString>
        <CharString name="uni0902">
          -564 -82 198 callgsubr
        </CharString>
        <CharString name="uni0902.aMatraI">
          -564 290 198 callgsubr
        </CharString>
        <CharString name="uni0903">
          -347 177 146 rmoveto
          224 callgsubr
          300 vmoveto
          224 callgsubr
          endchar
        </CharString>
        <CharString name="uni0905">
          145 729 560 rmoveto
          -297 -69 callsubr
          100 vlineto
          endchar
        </CharString>
        <CharString name="uni0906">
          445 1029 560 rmoveto
          -597 -76 callsubr
        </CharString>
        <CharString name="uni0907">
          -102 362 138 callsubr
          -502 -20 242 -87 hlineto
          -82 callgsubr
          hvcurveto
          172 -288 -27 81 110 callsubr
          endchar
        </CharString>
        <CharString name="uni0908">
          -97 362 138 callsubr
          -87 hlineto
          -85 -54 46 68 49 31 28 37 38 29 -24 -48 -6 -1 -5 0 hvcurveto
          20 hlineto
          0 2 8 10 vvcurveto
          71 -56 44 -76 -69 -54 -47 -69 -57 45 -47 57 -17 vhcurveto
          -4 -279 -20 242 -87 vlineto
          -82 callgsubr
          hvcurveto
          172 -288 -27 81 110 callsubr
          endchar
        </CharString>
        <CharString name="uni09080902">
          -13 362 138 callsubr
          -87 hlineto
          -85 -54 46 68 49 31 38 47 36 24 -20 -22 12 hvcurveto
          21 7 rlineto
          59 -19 -49 26 -60 hhcurveto
          -91 -51 -57 -69 -67 54 -46 64 -12 hvcurveto
          -295 -20 242 -87 hlineto
          -82 callgsubr
          hvcurveto
          172 -288 -27 81 110 callsubr
          -22 312 rmoveto
          -30 -24 -23 -30 -30 24 -25 30 30 23 25 30 30 -23 23 -30 hvcurveto
          endchar
        </CharString>
        <CharString name="uni0909">
          -98 487 560 rmoveto
          -507 90 callgsubr
          82 -70 52 -88 9 vhcurveto
          4 vlineto
          63 9 64 28 71 vvcurveto
          52 -31 32 -48 14 vhcurveto
          170 hlineto
          endchar
        </CharString>
        <CharString name="uni090A">
          109 693 560 rmoveto
          -713 90 callgsubr
          26 -7 23 -12 19 vhcurveto
          20 9 19 15 23 hhcurveto
          46 21 -51 -63 -68 -18 -56 -53 -11 -11 3 3 -4 hvcurveto
          -8 -11 rlineto
          -16 13 32 -14 42 hhcurveto
          92 62 58 101 100 -65 61 -85 -59 -37 -30 -36 -20 hvcurveto
          -29 33 -46 21 -52 5 rrcurveto
          4 vlineto
          63 9 64 28 71 vvcurveto
          52 -31 32 -48 14 vhcurveto
          376 hlineto
          endchar
        </CharString>
        <CharString name="uni090B">
          310 724 438 rmoveto
          36 19 -23 -31 -35 -19 -25 -22 -12 hvcurveto
          -41 37 -22 22 25 vvcurveto
          27 22 15 27 vhcurveto
          -225 102 rmoveto
          398 20 -917 103 callgsubr
          88 vlineto
          11 -17 15 -16 15 -14 rrcurveto
          54 -50 32 -35 -38 vvcurveto
          -37 -27 -17 -29 -46 -39 33 41 -16 vhcurveto
          -18 -10 rlineto
          -50 21 43 -38 76 hhcurveto
          92 63 52 75 51 -26 35 -54 48 hvcurveto
          29 18 18 34 35 vvcurveto
          53 -47 30 -60 -73 -54 -48 -68 -18 3 -15 6 -14 vhcurveto
          -77 hlineto
          endchar
        </CharString>
        <CharString name="uni090C">
          187 769 173 callgsubr
          -789 59 callgsubr
          34 25 -51 -84 -92 -16 -47 -40 -55 vhcurveto
          -37 -51 -11 -32 -42 vvcurveto
          -82 55 -46 79 62 63 37 70 39 -31 32 -40 -38 -32 -27 -44 vhcurveto
          -38 30 -17 -19 vvcurveto
          -11 -11 -5 -13 -50 -36 34 41 vhcurveto
          127 211 16 184 vvcurveto
          86 -57 67 -78 22 vhcurveto
          102 vlineto
          endchar
        </CharString>
        <CharString name="uni090D">
          0 456 803 rmoveto
          -45 -10 -51 -38 -96 hhcurveto
          -89 -58 34 49 -10 hvcurveto
          -13 -3 rlineto
          -107 -4 71 -62 103 hhcurveto
          103 71 61 108 -4 hvcurveto
          116 -240 rmoveto
          -604 -44 callgsubr
        </CharString>
        <CharString name="uni090E">
          0 585 560 rmoveto
          -138 hlineto
          9 12 8 19 28 -28 callgsubr
          -15 -8 -15 -8 -10 hvcurveto
          -442 -44 callgsubr
        </CharString>
        <CharString name="uni090F">
          1 585 560 rmoveto
          -604 -44 callgsubr
        </CharString>
        <CharString name="uni0910">
          0 435 603 -23 callgsubr
          159 -29 rmoveto
          -604 -44 callgsubr
        </CharString>
        <CharString name="uni0911">
          449 887 800 rmoveto
          -10 2 -11 callsubr
          140 -238 rmoveto
          -597 -76 callsubr
        </CharString>
        <CharString name="uni0912">
          449 1029 560 rmoveto
          -170 hlineto
          9 12 8 19 28 -28 callgsubr
          -15 -8 -15 -8 -10 hvcurveto
          -403 -76 callsubr
        </CharString>
        <CharString name="uni0913">
          449 861 603 -23 callgsubr
          177 -29 rmoveto
          -597 -76 callsubr
        </CharString>
        <CharString name="uni0914">
          449 920 -13 callgsubr
          189 -15 rmoveto
          -597 -76 callsubr
        </CharString>
        <CharString name="uni0915">
          249 833 540 14 callgsubr
        </CharString>
        <CharString name="uni0915093C">
          249 149 12 -97 callgsubr
          684 528 14 callgsubr
        </CharString>
        <CharString name="uni0915093C094D">
          4 144 -2 -97 callgsubr
          687 542 rmoveto
          20 -851 -20 355 -337 vlineto
          -104 callsubr
          53 32 -52 -61 9 hvcurveto
          111 97 rlineto
          43 -29 -56 28 -61 -10 callsubr
          154 vlineto
          endchar
        </CharString>
        <CharString name="uni0915093C094D0915093C">
          837 184 18 -97 callgsubr
          600 -4 -97 callgsubr
          141 189 78 callsubr
          -33 -28 -7 -13 -24 hvcurveto
          16 -28 -34 10 -36 -10 callsubr
          154 450 vlineto
          237 callgsubr
          -1441 -20 355 -337 vlineto
          -104 callsubr
          37 27 -26 -36 16 hvcurveto
          -9 -24 -4 -27 -28 vvcurveto
          -66 callgsubr
          vhcurveto
          -73 callsubr
        </CharString>
        <CharString name="uni0915093C094D0924">
          573 184 18 -97 callgsubr
          733 395 rmoveto
          117 callgsubr
          -46 -45 -4 -13 -39 hvcurveto
          38 -30 -53 24 -56 -10 callsubr
          154 442 vlineto
          238 20 rmoveto
          -1175 -20 355 -337 hlineto
          -104 callsubr
          46 30 -39 -51 13 hvcurveto
          -16 -30 -10 -38 -49 vvcurveto
          -148 87 -49 108 18 19 2 6 15 vhcurveto
          -68 callsubr
        </CharString>
        <CharString name="uni0915093C094D092B">
          843 184 18 -97 callgsubr
          748 220 -63 callgsubr
          -457 hmoveto
          166 -82 hlineto
          1 -9 -8 1 -9 -10 callsubr
          953 154 rmoveto
          20 -1448 -20 355 -337 vlineto
          -104 callsubr
          42 28 -32 -44 15 hvcurveto
          -99 3 27 -98 132 88 callsubr
          338 vlineto
          8 42 25 29 37 -102 callgsubr
          -66 -43 -29 -42 -20 hvcurveto
          146 vlineto
          endchar
        </CharString>
        <CharString name="uni0915093C094D092B093C">
          851 184 18 -97 callgsubr
          592 41 -97 callgsubr
          163 179 -63 callgsubr
          -464 hmoveto
          173 -83 hlineto
          2 -11 -11 1 -11 -10 callsubr
          960 154 rmoveto
          20 -1455 -20 355 -337 vlineto
          -104 callsubr
          53 32 -52 -61 9 hvcurveto
          0 vlineto
          -85 9 36 -75 115 88 callsubr
          338 vlineto
          8 42 25 29 37 -102 callgsubr
          -66 -43 -29 -42 -20 hvcurveto
          146 vlineto
          endchar
        </CharString>
        <CharString name="uni0915093C094D092C">
          582 184 18 -97 callgsubr
          743 221 rmoveto
          31 callgsubr
          -29 -29 -6 -14 -26 hvcurveto
          15 -27 -32 9 -34 -10 callsubr
          154 452 vlineto
          -329 vmoveto
          26 callgsubr
          -1186 -20 355 -337 hlineto
          -104 callsubr
          35 25 -22 -33 17 hvcurveto
          -10 -25 -6 -31 -36 vvcurveto
          -71 callsubr
        </CharString>
        <CharString name="uni0915093C094D092E">
          729 184 18 -97 callgsubr
          889 313 3 callsubr
          -334 -380 rmoveto
          -36 -15 25 32 56 44 36 73 1 hvcurveto
          -86 -1 -12 -64 -53 hhcurveto
          -264 380 rmoveto
          330 -209 hlineto
          -10 -10 -1 -1 -10 hvcurveto
          88 -27 -66 43 -67 -10 callsubr
          838 174 rmoveto
          -1333 -20 355 -337 hlineto
          -104 callsubr
          65 41 -85 -103 -71 57 -41 74 91 58 55 152 2 41 callsubr
        </CharString>
        <CharString name="uni0915093C094D0930">
          249 271 -23 -97 callgsubr
          562 563 rmoveto
          20 -853 59 callsubr
          6 46 26 32 39 -102 callgsubr
          244 callsubr
          vlineto
          endchar
        </CharString>
        <CharString name="uni0915093C094D0930094D">
          -21 221 -23 -97 callgsubr
          542 563 21 callgsubr
        </CharString>
        <CharString name="uni0915094D">
          6 831 173 callgsubr
          -851 -20 355 -337 vlineto
          -104 callsubr
          53 32 -52 -61 9 hvcurveto
          111 97 rlineto
          43 -29 -56 28 -61 -10 callsubr
          154 vlineto
          endchar
        </CharString>
        <CharString name="uni0915094D0915">
          855 943 149 callgsubr
          -37 -32 -9 -17 -26 hvcurveto
          20 -29 -38 12 -39 -10 callsubr
          154 468 vlineto
          237 callgsubr
          -1459 -20 355 -337 vlineto
          -104 callsubr
          47 30 -40 -52 13 hvcurveto
          -3 -15 -2 -17 -17 vvcurveto
          -66 callgsubr
          vhcurveto
          -73 callsubr
        </CharString>
        <CharString name="uni0915094D0916">
          843 1191 418 rmoveto
          15 -23 -30 8 -41 -58 callsubr
          25 41 45 46 23 -37 -80 -130 -77 -87 -105 -163 8 195 14 -129 195 callsubr
          99 48 86 vvcurveto
          54 -23 42 -52 20 vhcurveto
          324 hlineto
          -716 hmoveto
          235 hlineto
          65 34 -53 -57 -48 -18 -33 -28 -22 hvcurveto
          71 -8 -65 62 -75 -10 callsubr
          952 174 rmoveto
          -1447 -20 355 -337 hlineto
          -105 callsubr
          29 34 44 hhcurveto
          58 22 -57 -59 hvcurveto
          -19 vlineto
          -1 87 -3 -244 237 225 callgsubr
        </CharString>
        <CharString name="uni0915094D091A">
          663 1007 153 rmoveto
          253 callgsubr
          -54 -42 35 77 91 34 45 76 hvcurveto
          20 20 -197 hlineto
          72 -7 -62 68 -86 hhcurveto
          -67 -43 -30 -43 -20 hvcurveto
          133 530 236 callgsubr
          -1267 -20 357 -337 hlineto
          -107 callgsubr
          346 vlineto
          46 6 26 33 39 hhcurveto
          44 28 -51 -54 hvcurveto
          189 -4 hlineto
          -65 -12 -60 -44 -82 vvcurveto
          -108 82 -51 103 69 48 31 46 21 vhcurveto
          -96 -94 callsubr
        </CharString>
        <CharString name="uni0915094D091C">
          781 1125 237 callsubr
          -93 -32 -90 -87 -68 -36 57 48 vhcurveto
          61 92 -29 70 vvcurveto
          122 -68 69 -101 -67 -49 -30 -44 -24 vhcurveto
          154 650 236 callgsubr
          -1385 -20 355 -337 hlineto
          -107 callsubr
          38 3 31 41 44 hhcurveto
          58 26 -62 -103 -118 64 -83 127 148 84 51 callgsubr
        </CharString>
        <CharString name="uni0915094D091F">
          491 475 540 rmoveto
          360 -118 hlineto
          -32 -30 -5 -11 -26 hvcurveto
          33 -31 -49 21 -52 -10 callsubr
          500 154 rmoveto
          100 20 -1095 -20 355 -337 hlineto
          -104 callsubr
          47 31 -41 -52 12 hvcurveto
          -10 -24 -6 -27 -29 56 callsubr
        </CharString>
        <CharString name="uni0915094D0923">
          853 930 328 -33 callsubr
          -455 hmoveto
          172 -83 hlineto
          2 -10 -11 1 -11 -10 callsubr
          960 174 rmoveto
          -1455 -20 355 69 callgsubr
          32 -52 -61 9 hvcurveto
          0 vlineto
          -109 15 67 -46 129 hhcurveto
          148 66 60 145 hvcurveto
          155 callgsubr
        </CharString>
        <CharString name="uni0915094D0924">
          239 823 173 callgsubr
          -843 -20 358 -127 vlineto
          117 callgsubr
          -278 128 callsubr
          5 7 0 -1 8 hvcurveto
          -395 140 292 vlineto
          9 37 25 25 34 -102 callgsubr
          -64 -42 -27 -40 -21 hvcurveto
          197 vlineto
          endchar
        </CharString>
        <CharString name="uni0915094D0924094D092F">
          956 1300 -105 callgsubr
          -405 -125 rmoveto
          -50 -47 -5 -15 -42 hvcurveto
          40 -30 -53 25 -58 -10 callsubr
          154 464 227 callgsubr
          -1560 -20 355 -337 hlineto
          -104 callsubr
          51 31 -48 -57 11 hvcurveto
          -12 -28 -7 -33 -41 12 callsubr
          147 hlineto
          -55 -14 -49 -21 -62 -34 callsubr
        </CharString>
        <CharString name="uni0915094D0924094D0930">
          526 870 286 rmoveto
          -21 -16 rlineto
          101 -51 -72 91 -109 hhcurveto
          -54 -59 -32 -74 -29 hvcurveto
          184 395 236 callgsubr
          -1130 -20 355 -337 hlineto
          -107 callgsubr
          303 vlineto
          48 22 33 24 40 hhcurveto
          76 48 -87 -98 51 198 callsubr
        </CharString>
        <CharString name="uni0915094D0924094D0935">
          860 1205 193 rmoveto
          -96 callsubr
          -42 -42 -13 -28 -31 hvcurveto
          -80 hlineto
          -43 -42 -4 -11 -38 hvcurveto
          37 -30 -52 23 -55 -10 callsubr
          154 730 vlineto
          266 callsubr
          -1464 -20 355 -337 hlineto
          -104 callsubr
          43 29 -34 -46 14 hvcurveto
          -20 -31 -12 -42 -54 12 callsubr
          49 hlineto
          -26 -32 -16 -45 -61 vvcurveto
          -71 callsubr
        </CharString>
        <CharString name="uni0915094D0925">
          740 1323 560 78 callgsubr
          -48 -59 -23 -55 -22 vhcurveto
          13 -9 rlineto
          18 15 26 15 35 hhcurveto
          41 29 -25 -53 -66 -43 -42 -67 -19 hvcurveto
          95 -11 -58 61 -105 hhcurveto
          -65 -41 -29 -41 -20 hvcurveto
          150 224 20 -719 -20 355 -337 vlineto
          -107 callgsubr
          332 vlineto
          42 8 30 31 42 hhcurveto
          70 26 -75 -62 -151 116 -59 132 61 86 25 56 38 hvcurveto
          -139 -88 callgsubr
          99 vlineto
          endchar
        </CharString>
        <CharString name="uni0915094D0926">
          514 475 540 rmoveto
          363 -118 hlineto
          -33 -30 -6 -11 -27 hvcurveto
          34 -31 -49 21 -53 -10 callsubr
          503 154 rmoveto
          120 20 -1118 -20 355 -337 hlineto
          -104 callsubr
          49 30 -44 -54 12 hvcurveto
          -9 -22 -5 -25 -28 vvcurveto
          -138 97 -70 137 16 23 2 5 22 vhcurveto
          -70 callsubr
        </CharString>
        <CharString name="uni0915094D0928">
          249 833 173 callgsubr
          -853 -20 357 -376 vlineto
          -46 -31 rlineto
          -5 -8 -9 -4 -10 hhcurveto
          -60 -24 71 69 89 29 60 64 1 hvcurveto
          8 8 -1 -3 6 hvcurveto
          5 15 rlineto
          19 -21 -35 10 -34 hhcurveto
          -110 -65 -82 -108 -102 63 -91 103 hvcurveto
          3 hlineto
          -66 -53 -25 -45 -51 vvcurveto
          -55 30 -37 72 callsubr
          -87 -13 40 vvcurveto
          21 14 18 60 43 vhcurveto
          76 53 rlineto
          -141 -95 callsubr
        </CharString>
        <CharString name="uni0915094D092A">
          594 938 238 rmoveto
          -26 -7 -29 -28 -35 90 callsubr
          701 174 rmoveto
          -1196 -20 355 -337 hlineto
          -104 callsubr
          51 31 -48 -57 11 hvcurveto
          -88 7 34 -80 119 58 callsubr
          98 vlineto
          endchar
        </CharString>
        <CharString name="uni0915094D092A094D0930">
          594 938 219 rmoveto
          -32 -22 rlineto
          -7 -11 -14 -6 -14 90 callsubr
          701 174 rmoveto
          -1196 -20 355 69 callgsubr
          32 -50 -56 8 hvcurveto
          -88 7 35 -79 118 hhcurveto
          17 callgsubr
        </CharString>
        <CharString name="uni0915094D092B">
          850 938 238 rmoveto
          -26 -7 -29 -28 -35 90 callsubr
          959 154 rmoveto
          20 -1454 -20 355 -337 vlineto
          -104 callsubr
          51 31 -48 -57 11 hvcurveto
          -88 7 34 -80 119 88 callsubr
          338 vlineto
          8 42 25 29 37 -102 callgsubr
          -66 -43 -29 -42 -20 hvcurveto
          146 vlineto
          endchar
        </CharString>
        <CharString name="uni0915094D092E">
          729 1073 331 3 callsubr
          -334 -380 rmoveto
          -36 -15 25 32 56 44 36 73 1 hvcurveto
          -86 -1 -12 -64 -53 hhcurveto
          -264 380 rmoveto
          330 -209 hlineto
          -10 -10 -1 -1 -10 hvcurveto
          88 -27 -66 43 -67 -10 callsubr
          838 174 rmoveto
          -1333 -20 355 -337 hlineto
          -104 callsubr
          65 41 -85 -103 -71 57 -41 74 91 58 55 152 2 41 callsubr
        </CharString>
        <CharString name="uni0915094D092F">
          710 1054 35 callsubr
          -579 hmoveto
          213 248 callgsubr
          -9 -44 57 -90 -10 callsubr
          819 174 rmoveto
          -1314 -20 355 -337 hlineto
          -104 callsubr
          59 25 -47 -66 64 callgsubr
        </CharString>
        <CharString name="uni0915094D0930">
          249 833 173 callgsubr
          -853 59 callsubr
          6 46 26 32 39 -102 callgsubr
          244 callsubr
          vlineto
          endchar
        </CharString>
        <CharString name="uni0915094D0930.aTrad">
          271 499 540 rmoveto
          356 20 -875 -20 379 -254 hlineto
          -21 -16 135 callgsubr
          -260 -94 callgsubr
          endchar
        </CharString>
        <CharString name="uni0915094D0930094D">
          10 763 540 21 callgsubr
        </CharString>
        <CharString name="uni0915094D0932">
          764 1026 44 callsubr
          -36 -33 -8 -15 -28 hvcurveto
          23 -30 -41 14 -43 -10 callsubr
          154 549 vlineto
          322 hmoveto
          20 -1366 -20 355 -337 vlineto
          -104 callsubr
          45 30 -37 -49 13 hvcurveto
          -8 -23 -4 -27 -29 vvcurveto
          -109 45 -100 131 1 callgsubr
          vhcurveto
          -98 callgsubr
        </CharString>
        <CharString name="uni0915094D0935">
          566 911 193 rmoveto
          -96 callsubr
          -26 -26 -5 -11 -24 hvcurveto
          13 -25 -29 7 -31 -10 callsubr
          154 436 vlineto
          266 callsubr
          -1170 -20 355 -337 hlineto
          -104 callsubr
          29 22 -15 -24 16 hvcurveto
          -14 -29 -8 -35 -44 vvcurveto
          -71 callsubr
        </CharString>
        <CharString name="uni0915094D0935094D092F">
          962 1306 -105 callgsubr
          -419 -116 rmoveto
          21 -22 -33 11 -34 hhcurveto
          -31 -30 -7 -14 -26 hvcurveto
          16 -28 -33 9 -35 -10 callsubr
          154 470 vlineto
          -88 callsubr
          -39 10 -33 17 -28 vhcurveto
          -15 -35 -26 -28 -42 -2 rrcurveto
          121 callsubr
          93 32 54 41 10 10 -3 -6 10 hvcurveto
          670 149 rmoveto
          -1566 -20 355 -337 hlineto
          -104 callsubr
          37 27 -26 -36 16 hvcurveto
          -8 -24 -5 -28 -33 vvcurveto
          -19 callgsubr
          66 62 29 69 31 vhcurveto
          -48 41 68 -26 79 -57 callgsubr
        </CharString>
        <CharString name="uni0915094D0936">
          846 477 540 rmoveto
          348 hlineto
          -32 -17 -20 -28 -43 vvcurveto
          -50 32 -30 43 38 25 26 36 vhcurveto
          77 -84 -26 27 vvcurveto
          18 22 10 30 47 38 -37 -82 -104 -79 -46 -117 -6 vhcurveto
          107 -1 -52 88 -108 hhcurveto
          -67 -43 -30 -43 -20 hvcurveto
          951 173 rmoveto
          -1448 -20 357 10 callgsubr
          60 25 -64 -78 hvcurveto
          -18 vlineto
          64 48 -31 -100 43 hvcurveto
          -88 38 68 -30 93 hhcurveto
          38 31 2 20 37 hvcurveto
          -5 14 rlineto
          -4 -8 -12 -1 -12 hhcurveto
          -131 49 197 19 -143 hvcurveto
          4 19 vlineto
          109 141 35 123 58 -21 51 -57 26 hvcurveto
          168 164 callgsubr
          hlineto
          endchar
        </CharString>
        <CharString name="uni0915094D0937">
          160 105 453 rmoveto
          45 29 40 57 172 callgsubr
          637 107 rmoveto
          -336 -20 98 -216 hlineto
          -12 -31 -42 -8 -50 243 callgsubr
          77 -69 46 -82 -73 -61 -42 -74 -45 23 -35 36 -27 vhcurveto
          -55 -44 -56 -49 -71 -69 callgsubr
          73 69 40 59 51 hvcurveto
          -5 31 33 -3 32 hhcurveto
          47 44 7 11 32 hvcurveto
          -302 85 callsubr
        </CharString>
        <CharString name="uni0915094D0937094D">
          -131 105 453 rmoveto
          45 32 40 54 172 callgsubr
          424 -116 rmoveto
          -19 -30 -53 -14 -65 243 callgsubr
          72 -69 51 -82 -69 -65 -42 -74 -45 23 -35 36 -27 vhcurveto
          -55 -44 -56 -49 -71 -69 callgsubr
          73 69 40 59 51 hvcurveto
          -5 31 33 -3 32 hhcurveto
          63 57 12 19 31 hvcurveto
          endchar
        </CharString>
        <CharString name="uni0915094D0937094D092E">
          506 850 331 3 callsubr
          -325 -380 128 callgsubr
          985 107 rmoveto
          -684 -20 176 -210 hlineto
          5 callgsubr
          129 -312 49 callsubr
          endchar
        </CharString>
        <CharString name="uni0915094D0937094D092E094D">
          248 120 callsubr
          834 87 rmoveto
          20 -533 -20 176 -210 vlineto
          5 callgsubr
          216 19 -216 209 hlineto
          endchar
        </CharString>
        <CharString name="uni0915094D0937094D092E094D092F">
          876 120 callsubr
          1255 106 rmoveto
          -140 -349 hlineto
          -48 -15 -49 -30 -59 hhcurveto
          -88 201 callsubr
          41 74 vvcurveto
          76 -58 51 -92 vhcurveto
          -115 -6 hlineto
          107 callsubr
          -196 209 59 20 -344 -20 146 -210 hlineto
          5 callgsubr
          111 hlineto
          -1 -6 0 -7 -10 vvcurveto
          49 callgsubr
          -20 callsubr
          vhcurveto
          -167 140 vlineto
          endchar
        </CharString>
        <CharString name="uni0915094D0937094D092F">
          487 831 -105 callgsubr
          -724 -81 rmoveto
          47 30 32 50 43 22 -20 -31 -50 -42 -37 -48 -39 vhcurveto
          -33 24 -22 32 42 vvcurveto
          964 101 rmoveto
          -665 -20 64 hlineto
          72 48 -21 -88 -80 -74 -28 -49 -10 hvcurveto
          -5 -1 -6 -1 -6 -1 -7 -1 rcurveline
          0 vlineto
          -3 -18 -20 -1 -19 hhcurveto
          -26 -28 2 4 -26 hvcurveto
          36 35 28 41 59 vvcurveto
          72 -69 51 -82 -69 -63 -34 -76 -48 23 -36 35 -27 vhcurveto
          -55 -45 -57 -49 -72 -69 callgsubr
          73 70 41 59 51 hvcurveto
          -5 33 34 -3 33 hhcurveto
          19 19 1 2 18 hvcurveto
          -122 -75 callsubr
        </CharString>
        <CharString name="uni0915094D0937094D0935">
          426 105 453 91 callsubr
          905 107 57 callgsubr
          -82 -77 -48 -114 -14 hvcurveto
          -5 -24 -28 -3 -30 hhcurveto
          -30 -31 4 6 -30 hvcurveto
          43 38 37 45 67 vvcurveto
          72 -69 51 -82 -69 -65 -42 -74 -43 21 -37 34 -30 vhcurveto
          -54 -43 -53 -48 -70 -69 callgsubr
          67 58 39 55 46 hvcurveto
          -9 36 38 -5 37 hhcurveto
          29 27 2 5 24 hvcurveto
          -15 vlineto
          -71 callsubr
        </CharString>
        <CharString name="uni0915094D0938">
          797 1141 282 rmoveto
          -244 hlineto
          -77 callsubr
          251 hlineto
          -666 hmoveto
          60 callgsubr
          906 174 rmoveto
          -1401 -20 355 69 callgsubr
          35 -50 -75 6 71 callgsubr
          350 213 callsubr
          vlineto
          endchar
        </CharString>
        <CharString name="uni0915094D0938094D091F">
          945 887 282 rmoveto
          -77 callsubr
          409 -118 hlineto
          -100 -78 -54 -86 -21 hvcurveto
          -615 258 rmoveto
          113 callsubr
          954 149 rmoveto
          100 20 -1549 -20 355 64 callsubr
          -52 -73 71 callgsubr
          305 vlineto
          -1 -10 -1 -10 -10 vvcurveto
          55 callsubr
          vhcurveto
          -25 callgsubr
        </CharString>
        <CharString name="uni0915094D0938094D0921">
          930 884 282 rmoveto
          -77 callsubr
          388 -87 hlineto
          159 callgsubr
          -21 5 -18 10 -14 hvcurveto
          -622 258 rmoveto
          113 callsubr
          933 149 rmoveto
          109 20 -1534 21 callsubr
          334 vlineto
          72 -63 169 13 -108 -75 callgsubr
          endchar
        </CharString>
        <CharString name="uni0915094D0938094D0924">
          1016 1360 204 callsubr
          -114 -104 -27 -106 -35 hvcurveto
          -190 hlineto
          -77 callsubr
          483 hlineto
          -888 hmoveto
          113 callsubr
          1126 169 rmoveto
          -1618 21 callsubr
          291 vlineto
          -5 -19 -2 -21 -24 vvcurveto
          -148 87 -49 108 18 19 2 6 15 vhcurveto
          -68 callsubr
        </CharString>
        <CharString name="uni0915094D0938094D092A094D0930">
          1059 1403 -10 callgsubr
          -506 -258 rmoveto
          -77 callsubr
          222 -195 hlineto
          -21 1 -21 3 -21 vhcurveto
          -641 258 rmoveto
          60 callgsubr
          1171 174 rmoveto
          -1666 -20 355 69 callgsubr
          35 -50 -75 6 71 callgsubr
          328 vlineto
          -72 14 39 -58 102 hhcurveto
          67 callsubr
          275 189 rlineto
          -193 -88 callgsubr
          103 vlineto
          endchar
        </CharString>
        <CharString name="uni0915094D0938094D092A094D0932">
          1528 1790 44 callsubr
          -112 -82 -78 -128 -8 0 -7 1 -8 hvcurveto
          -19 -20 -24 -14 -23 -54 callgsubr
          202 532 vlineto
          -893 -258 rmoveto
          -77 callsubr
          222 -195 hlineto
          -21 1 -21 3 -21 vhcurveto
          -641 258 rmoveto
          60 callgsubr
          1637 154 rmoveto
          20 -2132 -20 355 -337 vlineto
          -104 callsubr
          53 35 -50 -75 6 71 callgsubr
          328 vlineto
          -71 14 39 -59 99 hhcurveto
          56 44 22 31 31 hvcurveto
          -86 14 50 -68 108 hhcurveto
          41 32 15 15 16 hvcurveto
          -98 callgsubr
        </CharString>
        <CharString name="uni0916">
          207 555 51 callsubr
          236 20 rmoveto
          -811 134 callgsubr
          105 82 33 61 49 hvcurveto
          -119 136 540 100 vlineto
          endchar
        </CharString>
        <CharString name="uni0916093C">
          212 132 2 -97 callgsubr
          428 416 -89 callgsubr
          236 20 rmoveto
          -811 134 callgsubr
          105 82 33 61 49 hvcurveto
          -119 136 540 100 vlineto
          endchar
        </CharString>
        <CharString name="uni0916093C094D">
          88 145 7 -97 callgsubr
          521 553 rmoveto
          -686 -49 callsubr
          177 112 94 168 96 -40 58 -107 -79 -61 -60 -76 -89 61 -46 69 32 43 12 20 17 hvcurveto
          -5 11 rlineto
          -84 callgsubr
          430 hlineto
          endchar
        </CharString>
        <CharString name="uni0916093C094D0924">
          542 127 6 -97 callgsubr
          759 407 rmoveto
          117 callgsubr
          -102 -96 -22 -82 -43 hvcurveto
          82 -6 -42 48 -98 hhcurveto
          -79 -61 -60 -76 -89 61 -46 69 32 43 12 20 17 hvcurveto
          -5 11 rlineto
          -84 callgsubr
          650 hlineto
          238 20 rmoveto
          -1144 -49 callsubr
          129 95 50 92 41 hvcurveto
          -124 12 82 -42 100 hhcurveto
          -4 callgsubr
          hvcurveto
          -68 callsubr
        </CharString>
        <CharString name="uni0916093C094D092E">
          638 127 6 -97 callgsubr
          855 325 3 callsubr
          -325 -380 rmoveto
          -91 callsubr
          -114 53 rmoveto
          -84 callgsubr
          478 -210 hlineto
          -41 -3 -37 -16 -23 -27 rrcurveto
          3 210 callgsubr
          674 358 rmoveto
          -1242 -49 callsubr
          132 96 52 96 40 hvcurveto
          -46 16 47 -22 52 17 callsubr
        </CharString>
        <CharString name="uni0916093C094D092F">
          638 127 6 -97 callgsubr
          855 204 -106 callgsubr
          -371 -220 rmoveto
          76 -9 -42 45 -94 hhcurveto
          -79 -61 -60 -76 -89 61 -46 69 32 43 12 20 17 hvcurveto
          -5 11 rlineto
          -84 callgsubr
          385 204 callgsubr
          hvcurveto
          610 240 rmoveto
          -1242 -49 callsubr
          151 104 68 125 27 hvcurveto
          -79 31 83 -43 102 -57 callgsubr
        </CharString>
        <CharString name="uni0916093C094D0930">
          212 478 -34 -97 callgsubr
          82 452 -89 callgsubr
          236 20 rmoveto
          -816 -20 99 39 callgsubr
          26 25 2 4 23 hvcurveto
          -206 -123 11 -18 291 174 26 15 22 18 18 22 rlinecurve
          -119 136 -18 callgsubr
        </CharString>
        <CharString name="uni0916093C094D0930094D">
          -38 513 -34 -97 callgsubr
          98 594 14 callsubr
        </CharString>
        <CharString name="uni0916093C094D0935">
          557 127 6 -97 callgsubr
          775 187 rmoveto
          -96 callsubr
          -68 -65 -33 -76 -28 hvcurveto
          60 -15 -43 34 -82 hhcurveto
          -79 -61 -60 -76 -89 61 -46 69 32 43 12 20 17 hvcurveto
          -5 11 rlineto
          -84 callgsubr
          666 hlineto
          266 callsubr
          -1161 -49 callsubr
          142 100 60 110 34 hvcurveto
          -84 23 70 -39 75 hhcurveto
          -17 callsubr
        </CharString>
        <CharString name="uni0916093C094D0936">
          716 127 6 -97 callgsubr
          484 247 -35 callgsubr
        </CharString>
        <CharString name="uni0916093C094D0938">
          701 127 6 -97 callgsubr
          918 276 rmoveto
          -244 hlineto
          -77 callsubr
          251 hlineto
          -432 -260 rmoveto
          7 vlineto
          96 -40 58 -107 -79 -61 -60 -76 -89 61 -46 69 32 43 12 20 17 vhcurveto
          -5 11 rlineto
          -84 callgsubr
          404 hlineto
          -42 callgsubr
          660 280 rmoveto
          -1305 -49 callsubr
          165 108 81 147 14 hvcurveto
          -49 82 -45 -208 211 hhcurveto
          41 31 7 17 23 hvcurveto
          -6 14 rlineto
          -3 -5 -14 -6 -18 hhcurveto
          -101 70 207 -20 callgsubr
          350 -262 -94 callsubr
        </CharString>
        <CharString name="uni0916094D">
          88 666 560 rmoveto
          -686 -49 callsubr
          177 112 94 168 96 -40 58 -107 -79 -61 -60 -76 -89 61 -46 69 32 43 12 20 17 hvcurveto
          -5 11 rlineto
          -84 callgsubr
          430 hlineto
          endchar
        </CharString>
        <CharString name="uni0916094D0916">
          769 1117 51 callsubr
          -975 -257 rmoveto
          86 7 83 48 86 vvcurveto
          54 -23 42 -52 20 vhcurveto
          400 hlineto
          65 34 -53 -57 -90 -52 -38 -70 -10 hvcurveto
          93 -1 -41 56 -105 -58 callsubr
          22 41 45 46 26 -41 -76 -22 callsubr
          1211 281 rmoveto
          -1373 -49 callsubr
          160 107 77 140 19 hvcurveto
          -67 48 28 -150 195 225 callgsubr
        </CharString>
        <CharString name="uni0916094D0924">
          542 886 204 callsubr
          -102 -96 -22 -82 -43 hvcurveto
          82 -6 -42 48 -98 hhcurveto
          -79 -61 -60 -76 -89 61 -46 69 32 43 12 20 17 hvcurveto
          -5 11 rlineto
          -84 callgsubr
          650 hlineto
          238 20 rmoveto
          -1144 -49 callsubr
          129 95 50 92 41 hvcurveto
          -124 12 82 -42 100 hhcurveto
          -4 callgsubr
          hvcurveto
          -68 callsubr
        </CharString>
        <CharString name="uni0916094D0928">
          207 555 51 callsubr
          236 20 rmoveto
          -811 134 callgsubr
          17 16 1 2 16 hvcurveto
          -97 -49 -59 -43 -69 vvcurveto
          -55 82 callsubr
          78 -80 -21 40 vvcurveto
          21 43 21 76 38 vhcurveto
          20 10 33 14 28 18 24 14 21 17 17 21 rrcurveto
          -119 136 -18 callgsubr
        </CharString>
        <CharString name="uni0916094D092E">
          638 982 331 3 callsubr
          -325 -380 rmoveto
          -91 callsubr
          -114 53 rmoveto
          -84 callgsubr
          478 -210 hlineto
          -41 -3 -37 -16 -23 -27 rrcurveto
          3 210 callgsubr
          674 358 rmoveto
          -1242 -49 callsubr
          132 96 52 96 40 hvcurveto
          -46 16 47 -22 52 17 callsubr
        </CharString>
        <CharString name="uni0916094D092F">
          638 982 -105 callgsubr
          -371 -220 rmoveto
          76 -9 -42 45 -94 hhcurveto
          -79 -61 -60 -76 -89 61 -46 69 32 43 12 20 17 hvcurveto
          -5 11 rlineto
          -84 callgsubr
          385 204 callgsubr
          hvcurveto
          610 240 rmoveto
          -1242 -49 callsubr
          151 104 68 125 27 hvcurveto
          -79 31 83 -43 102 -57 callgsubr
        </CharString>
        <CharString name="uni0916094D0930">
          207 555 51 callsubr
          236 20 rmoveto
          -811 139 callsubr
          26 15 22 18 18 22 rlinecurve
          -119 136 -18 callgsubr
        </CharString>
        <CharString name="uni0916094D0930094D">
          -58 611 560 14 callsubr
        </CharString>
        <CharString name="uni0916094D0935">
          557 902 193 rmoveto
          -96 callsubr
          -68 -65 -33 -76 -28 hvcurveto
          60 -15 -43 34 -82 hhcurveto
          -79 -61 -60 -76 -89 61 -46 69 32 43 12 20 17 hvcurveto
          -5 11 rlineto
          -84 callgsubr
          666 hlineto
          266 callsubr
          -1161 -49 callsubr
          142 100 60 110 34 hvcurveto
          -84 23 70 -39 75 hhcurveto
          -17 callsubr
        </CharString>
        <CharString name="uni0916094D0936">
          716 611 253 -35 callgsubr
        </CharString>
        <CharString name="uni0917">
          100 684 560 -8 callsubr
          108 callgsubr
        </CharString>
        <CharString name="uni0917093C">
          100 208 46 -97 callgsubr
          476 514 -8 callsubr
          108 callgsubr
        </CharString>
        <CharString name="uni0917093C094D">
          -145 184 73 -97 callgsubr
          255 487 rmoveto
          -459 -20 120 -40 callgsubr
          hlineto
          endchar
        </CharString>
        <CharString name="uni0917093C094D0930">
          100 316 -42 -97 callgsubr
          368 602 -8 callsubr
          -347 hlineto
          -291 -200 11 -18 280 192 rlineto
          -167 -94 callsubr
        </CharString>
        <CharString name="uni0917093C094D0930094D">
          -177 439 173 callgsubr
          -459 -20 120 vlineto
          -99 callgsubr
          247 -330 rmoveto
          -337 -231 11 -18 337 231 rlineto
          -188 -234 -97 callgsubr
          endchar
        </CharString>
        <CharString name="uni0917094D">
          -145 439 560 rmoveto
          -459 -20 120 -40 callgsubr
          hlineto
          endchar
        </CharString>
        <CharString name="uni0917094D0917">
          484 1068 560 rmoveto
          -1088 -20 120 hlineto
          -99 callgsubr
          243 -40 callgsubr
          108 callgsubr
        </CharString>
        <CharString name="uni0917094D0918">
          453 797 169 rmoveto
          -3 callsubr
          66 38 42 77 hvcurveto
          89 hlineto
          6 callsubr
          -1057 -20 120 hlineto
          -99 callgsubr
          277 186 callsubr
          81 64 30 49 28 vhcurveto
          -118 -94 callsubr
        </CharString>
        <CharString name="uni0917094D091C">
          525 1109 560 rmoveto
          -1129 -20 120 hlineto
          -99 callgsubr
          623 -90 -346 -57 callsubr
          216 -430 -92 callsubr
          vlineto
          endchar
        </CharString>
        <CharString name="uni0917094D0923">
          675 752 328 -33 callsubr
          505 20 rmoveto
          -1277 -20 120 hlineto
          -99 callgsubr
          223 -198 hlineto
          112 callgsubr
        </CharString>
        <CharString name="uni0917094D0926">
          320 784 138 callsubr
          -923 -20 120 hlineto
          -99 callgsubr
          397 -118 hlineto
          -2 callgsubr
          endchar
        </CharString>
        <CharString name="uni0917094D0927">
          456 754 560 rmoveto
          -20 46 -371 vlineto
          -3 callsubr
          60 18 48 77 hvcurveto
          20 -711 -20 120 vlineto
          -99 callgsubr
          281 hlineto
          25 callgsubr
          94 81 64 30 49 28 vhcurveto
          260 callsubr
        </CharString>
        <CharString name="uni0917094D0927094D092F">
          866 1210 146 callgsubr
          -677 -20 71 hlineto
          -88 callsubr
          -52 17 -42 30 -32 vhcurveto
          -35 -35 -44 -41 -78 189 callsubr
          -708 -20 120 vlineto
          -99 callgsubr
          278 hlineto
          25 callgsubr
          101 126 77 62 49 43 vhcurveto
          -35 42 59 -19 67 hhcurveto
          60 71 24 54 34 hvcurveto
          -174 -94 callsubr
        </CharString>
        <CharString name="uni0917094D0927094D0935">
          787 1371 560 rmoveto
          -598 -20 358 -62 callsubr
          -45 10 -36 18 -28 hvcurveto
          -31 -33 -42 -31 -68 189 callsubr
          -708 -20 120 vlineto
          -99 callgsubr
          278 hlineto
          25 callgsubr
          101 111 73 48 45 46 vhcurveto
          -41 33 50 -19 53 hhcurveto
          50 callsubr
          hvcurveto
          -140 -94 callsubr
        </CharString>
        <CharString name="uni0917094D0928">
          100 684 560 -8 callsubr
          -353 hlineto
          -123 -84 -39 callgsubr
          20 14 54 38 35 23 rrcurveto
          -163 -94 callsubr
        </CharString>
        <CharString name="uni0917094D0928094D092F">
          486 830 -92 callgsubr
          -1090 -20 120 hlineto
          -99 callgsubr
          223 hlineto
          -88 callsubr
          49 callgsubr
          14 14 1 3 14 vhcurveto
          -35 -24 -39 callgsubr
          18 13 46 32 35 23 15 10 14 13 11 15 rrcurveto
          -167 -94 callsubr
        </CharString>
        <CharString name="uni0917094D092C">
          406 751 211 rmoveto
          26 callgsubr
          -1010 -20 121 hlineto
          -99 callgsubr
          504 -301 hlineto
          -143 135 156 callgsubr
          54 32 36 19 hvcurveto
          -140 139 540 100 vlineto
          endchar
        </CharString>
        <CharString name="uni0917094D092D">
          457 -20 181 callsubr
          hlineto
          -99 callgsubr
          131 20 -397 hlineto
          518 -400 -53 callgsubr
          543 400 235 callsubr
          -209 -103 -64 callgsubr
          104 -24 callgsubr
        </CharString>
        <CharString name="uni0917094D092D094D092F">
          849 -20 181 callsubr
          hlineto
          -99 callgsubr
          136 20 -402 hlineto
          1213 -350 -106 callgsubr
          -682 -380 -53 callgsubr
          922 400 rmoveto
          -680 -20 79 hlineto
          107 callsubr
          -179 -64 callgsubr
          95 hlineto
          -1 -6 0 -7 -10 -60 callgsubr
        </CharString>
        <CharString name="uni0917094D092E">
          483 827 331 3 callsubr
          -325 -380 rmoveto
          -91 callsubr
          565 400 rmoveto
          -1087 -20 120 hlineto
          -99 callgsubr
          313 -210 hlineto
          9 callsubr
        </CharString>
        <CharString name="uni0917094D092F">
          488 832 -92 callgsubr
          -1092 -20 120 hlineto
          -99 callgsubr
          225 129 callgsubr
        </CharString>
        <CharString name="uni0917094D0930">
          100 684 560 -8 callsubr
          -347 hlineto
          -291 -200 11 -18 280 192 rlineto
          -167 -94 callsubr
        </CharString>
        <CharString name="uni0917094D0930094D">
          -158 439 173 callgsubr
          -459 -20 120 vlineto
          -99 callgsubr
          247 -330 rmoveto
          -337 -231 11 -18 337 231 rlineto
          endchar
        </CharString>
        <CharString name="uni0917094D0930094D092F">
          486 830 184 rmoveto
          -38 -26 87 callgsubr
          195 hlineto
          6 callsubr
          -1090 -20 120 hlineto
          -99 callgsubr
          223 hlineto
          -88 callsubr
          49 callgsubr
          12 11 1 2 12 vhcurveto
          -188 -129 11 -18 302 206 rlineto
          -158 -94 callsubr
        </CharString>
        <CharString name="uni0917094D0932">
          564 1148 173 callgsubr
          -1168 -20 121 vlineto
          -99 callgsubr
          579 -107 hlineto
          -28 -12 -20 -20 -14 -23 rrcurveto
          40 -24 -41 28 -71 hhcurveto
          -112 -82 -78 -128 -109 45 -100 131 41 32 15 15 16 hvcurveto
          -98 callgsubr
        </CharString>
        <CharString name="uni0917094D0935">
          402 986 560 rmoveto
          -1006 -20 120 hlineto
          -99 callgsubr
          501 -62 callsubr
          -127 84 -59 92 -17 callsubr
        </CharString>
        <CharString name="uni0917094D0938">
          537 881 282 rmoveto
          -244 hlineto
          -77 callsubr
          251 hlineto
          6 callsubr
          -1141 -20 121 hlineto
          -99 callgsubr
          229 hlineto
          -101 callsubr
          350 213 callsubr
          vlineto
          endchar
        </CharString>
        <CharString name="uni0918">
          62 callsubr
          81 64 30 49 28 vhcurveto
          -118 -94 callsubr
        </CharString>
        <CharString name="uni0918094D">
          -224 464 173 callgsubr
          -485 -20 151 vlineto
          124 callgsubr
          83 79 33 50 43 vhcurveto
          -13 14 rlineto
          -36 -36 -48 -13 -34 33 callgsubr
          66 38 42 77 hvcurveto
          endchar
        </CharString>
        <CharString name="uni0918094D0928">
          62 callsubr
          18 17 1 3 17 vhcurveto
          -74 75 callsubr
          17 12 14 14 9 17 rrcurveto
          -118 -94 callsubr
        </CharString>
        <CharString name="uni0918094D092E">
          423 767 331 3 callsubr
          -325 -380 rmoveto
          -91 callsubr
          -120 155 243 callsubr
          183 -210 hlineto
          -71 -6 -57 -42 -72 vvcurveto
          -39 17 -27 26 -18 vhcurveto
          -28 -35 -42 -11 -31 hhcurveto
          -67 116 callgsubr
          711 245 rmoveto
          -1027 -20 151 hlineto
          124 callgsubr
          80 76 31 46 44 vhcurveto
          -7 18 21 -4 21 17 callsubr
        </CharString>
        <CharString name="uni0918094D092F">
          429 773 -105 callgsubr
          -451 -225 243 callsubr
          96 hlineto
          -88 callsubr
          -63 26 -49 42 -32 vhcurveto
          -31 -34 -45 -27 -60 hhcurveto
          -74 116 callgsubr
          717 245 rmoveto
          -1033 -20 151 hlineto
          124 callgsubr
          111 82 45 49 43 vhcurveto
          -24 39 50 -13 56 -57 callgsubr
        </CharString>
        <CharString name="uni0918094D0930">
          59 403 128 rmoveto
          -50 -29 rlineto
          -8 -14 -18 -4 -17 33 callgsubr
          66 38 42 77 hvcurveto
          89 hlineto
          -423 20 rmoveto
          -20 149 vlineto
          190 callgsubr
          9 9 1 2 10 vhcurveto
          -135 -81 11 -18 269 161 rlineto
          -104 240 callgsubr
        </CharString>
        <CharString name="uni0918094D0930094D">
          -222 424 141 rmoveto
          -71 -42 rlineto
          -8 -14 -18 -4 -17 33 callgsubr
          66 38 42 77 hvcurveto
          119 20 -453 -20 149 186 callsubr
          9 9 1 2 10 vhcurveto
          -135 -81 11 -18 301 180 rlineto
          endchar
        </CharString>
        <CharString name="uni0919">
          -17 466 399 -97 callgsubr
          101 161 rmoveto
          -587 -20 248 -87 hlineto
          -120 -66 -49 -69 hvcurveto
          -152 274 58 -137 -75 callgsubr
          137 199 vlineto
          endchar
        </CharString>
        <CharString name="uni0919094D">
          -32 367 540 rmoveto
          185 20 -573 -20 248 -87 hlineto
          -120 -66 -49 -69 hvcurveto
          -152 274 58 -137 -75 callgsubr
          -141 -439 -26 callgsubr
          248 427 -97 callgsubr
          endchar
        </CharString>
        <CharString name="uni0919094D0930">
          8 486 400 -97 callgsubr
          106 160 rmoveto
          -612 -20 248 -87 hlineto
          -17 callgsubr
          -64 67 -42 80 -8 vhcurveto
          -142 -101 54 callsubr
          -150 104 rlineto
          111 10 72 64 86 28 callgsubr
          137 224 vlineto
          endchar
        </CharString>
        <CharString name="uni091A">
          24 608 560 rmoveto
          -628 -20 388 -337 hlineto
          -40 -6 -26 -41 -50 hhcurveto
          -60 -40 callsubr
          112 69 48 31 46 21 vhcurveto
          -146 -94 callsubr
        </CharString>
        <CharString name="uni091A094D">
          -240 392 560 rmoveto
          -412 -20 412 hlineto
          14 -346 rmoveto
          -36 -28 -36 -36 -51 hhcurveto
          -74 -40 callsubr
          119 85 69 44 70 39 vhcurveto
          endchar
        </CharString>
        <CharString name="uni091A094D091A">
          346 930 560 rmoveto
          -950 -20 710 208 callgsubr
          -258 -20 108 -4 hlineto
          -79 -22 -46 -65 -86 vvcurveto
          -32 6 -29 11 -24 vhcurveto
          -26 -25 -30 -20 -38 hhcurveto
          -74 -40 callsubr
          119 69 58 29 48 41 vhcurveto
          -49 31 55 -28 70 hhcurveto
          69 48 31 46 21 hvcurveto
          -146 -94 callsubr
        </CharString>
        <CharString name="uni091A094D091B">
          459 739 466 rmoveto
          -43 -10 -29 -35 -12 -38 19 -8 rcurveline
          -54 callsubr
          67 hlineto
          304 hmoveto
          20 -1063 -20 511 199 callsubr
          -6 0 -6 1 -5 vhcurveto
          -34 -28 -34 -33 -49 hhcurveto
          -74 -40 callsubr
          119 76 63 35 57 40 vhcurveto
          -93 29 119 -30 137 hhcurveto
          207 callsubr
          86 -38 54 -63 27 hvcurveto
          91 vlineto
          endchar
        </CharString>
        <CharString name="uni091A094D091B094D0935">
          459 728 37 callgsubr
          315 460 rmoveto
          20 -1063 -20 484 200 callgsubr
          -16 3 -15 5 -14 vhcurveto
          -32 -27 -34 -29 -46 hhcurveto
          -74 -40 callsubr
          119 76 64 35 58 40 vhcurveto
          22 -33 39 -21 49 -13 rrcurveto
          141 callgsubr
        </CharString>
</ttFont>
